SplineFontDB: 3.2
FontName: MarsFrakturOT-Bold
FullName: MarsFraktur OT Bold
FamilyName: MarsFraktur OT
Weight: Bold
Copyright: (C) Copyright by Dipl.-Ing. Helzel, 1995-2012
Version: 1.8 1.11..2014
ItalicAngle: 0
UnderlinePosition: -129
UnderlineWidth: 64
Ascent: 800
Descent: 200
InvalidEm: 0
sfntRevision: 0x0001cccc
LayerCount: 2
Layer: 0 0 "Hinten" 1
Layer: 1 0 "Vorne" 0
XUID: [1021 440 24186468 13062]
StyleMap: 0x0020
FSType: 1
OS2Version: 3
OS2_WeightWidthSlopeOnly: 0
OS2_UseTypoMetrics: 0
CreationTime: 1236886583
ModificationTime: 1721574337
PfmFamily: 81
TTFWeight: 700
TTFWidth: 5
LineGap: 83
VLineGap: 0
Panose: 0 0 7 0 0 0 0 0 0 0
OS2TypoAscent: 667
OS2TypoAOffset: 0
OS2TypoDescent: -250
OS2TypoDOffset: 0
OS2TypoLinegap: 83
OS2WinAscent: 956
OS2WinAOffset: 0
OS2WinDescent: 365
OS2WinDOffset: 0
HheadAscent: 667
HheadAOffset: 0
HheadDescent: -250
HheadDOffset: 0
OS2SubXSize: 700
OS2SubYSize: 650
OS2SubXOff: 0
OS2SubYOff: 143
OS2SupXSize: 700
OS2SupYSize: 650
OS2SupXOff: 0
OS2SupYOff: 453
OS2StrikeYSize: 50
OS2StrikeYPos: 259
OS2CapHeight: 756
OS2XHeight: 544
OS2Vendor: 'Alts'
OS2CodePages: 00000001.00000000
OS2UnicodeRanges: 00000000.00000000.00000000.00000000
Lookup: 6 0 0 "'calt' Kontextuelle Alternativen in Lateinisch Nachschlagetabelle 0" { "'calt' Kontextuelle Alternativen in Lateinisch Nachschlagetabelle 0 Subtabelle"  } ['calt' ('DFLT' <'dflt' > 'latn' <'dflt' > ) ]
Lookup: 5 0 0 "'calt' Kontextuelle Alternativen in Lateinisch Nachschlagetabelle 1" { "'calt' Kontextuelle Alternativen in Lateinisch Nachschlagetabelle 1 Subtabelle"  } ['calt' ('DFLT' <'dflt' > 'latn' <'dflt' > ) ]
Lookup: 5 0 0 "'calt' Kontextuelle Alternativen in Lateinisch Nachschlagetabelle 2" { "'calt' Kontextuelle Alternativen in Lateinisch Nachschlagetabelle 2 Subtabelle"  } ['calt' ('DFLT' <'dflt' > 'latn' <'dflt' > ) ]
Lookup: 1 0 0 "Einzelne Substitution Nachschlagetabelle 3" { "Einzelne Substitution Nachschlagetabelle 3 Subtabelle"  } []

StartChar: .notdef
Encoding: 65536 -1 0
Width: 500
GlyphClass: 1
Flags: MW
HStem: 0 62<125 375 125 438> 604 63<125 375 125 125>
VStem: 62 63<62 62 62 604> 375 63<62 604 604 604>
LayerCount: 2
Fore
SplineSet
62 0 m 1
 62 667 l 1
 438 667 l 1
 438 0 l 1
 62 0 l 1
125 62 m 1
 375 62 l 1
 375 604 l 1
 125 604 l 1
 125 62 l 1
EndSplineSet
EndChar

StartChar: exclam
Encoding: 33 33 2
Width: 282
GlyphClass: 2
Flags: MW
HStem: -21 21G<152 171 152 152> 715 20G<150 175.5>
VStem: 79 166<58 74 58 74> 151 23<214 214>
LayerCount: 2
Fore
SplineSet
151 214 m 1xd0
 139 302 130 357 125 380 c 2
 78 604 l 2
 76 616 74 629 74 641 c 0
 74 666 83 688 99 707 c 0
 116 726 137 735 163 735 c 0
 188 735 209 725 227 707 c 0
 243 688 251 666 251 641 c 0
 251 629 250 616 247 604 c 2
 200 380 l 2
 195 357 186 302 174 214 c 1
 151 214 l 1xd0
171 -21 m 1
 152 -21 l 1
 147 -13 l 2
 135 7 126 21 119 28 c 0
 111 37 97 47 79 58 c 1
 79 74 l 1
 92 84 l 2
 113 99 132 120 147 147 c 2
 152 155 l 1
 171 155 l 1
 176 147 l 2
 189 122 208 101 231 84 c 2
 245 74 l 1
 245 58 l 1xe0
 215 40 192 17 176 -13 c 2
 171 -21 l 1
EndSplineSet
EndChar

StartChar: quotedbl
Encoding: 34 34 3
Width: 432
GlyphClass: 2
Flags: MW
HStem: 751 20G<186 194 411.5 419.5>
LayerCount: 2
Fore
SplineSet
427 740 m 2
 392 471 l 2
 385 419 362 393 322 393 c 0
 279 393 257 412 257 451 c 0
 257 465 262 481 271 499 c 2
 396 755 l 2
 402 766 408 771 415 771 c 0
 424 771 428 765 428 754 c 0
 428 750 428 745 427 740 c 2
202 740 m 2
 167 471 l 2
 160 419 137 393 97 393 c 0
 54 393 32 412 32 451 c 0
 32 466 36 482 45 499 c 2
 171 755 l 2
 177 766 183 771 189 771 c 0
 199 771 203 765 203 754 c 0
 203 752 203 748 202 740 c 2
EndSplineSet
EndChar

StartChar: percent
Encoding: 37 37 4
Width: 612
GlyphClass: 2
Flags: MW
HStem: -22.04 23.2002 307.4 23.1992 327.96 23.2002 657.4 23.1992
VStem: 21.9297 88.3301 159.87 88.3301 364.93 88.3301 502.87 88.3301
LayerCount: 2
Fore
SplineSet
478.669921875 330.599609375 m 0xdf
 517.389648438 330.599609375 546.4296875 309.719726562 567 269.120117188 c 0
 582.729492188 236.639648438 591.19921875 200.6796875 591.19921875 158.919921875 c 0
 591.19921875 114.83984375 583.939453125 76.5595703125 569.419921875 44.080078125 c 0
 548.849609375 -0 518.599609375 -22.0400390625 478.669921875 -22.0400390625 c 0
 438.740234375 -22.0400390625 408.490234375 -1.16015625 389.129882812 41.759765625 c 0
 373.399414062 74.240234375 364.9296875 111.360351562 364.9296875 154.280273438 c 0
 364.9296875 197.200195312 373.399414062 234.3203125 389.129882812 266.799804688 c 0
 408.490234375 309.719726562 438.740234375 330.599609375 478.669921875 330.599609375 c 0xdf
478.669921875 307.399414062 m 0
 462.939453125 307.399414062 454.469726562 295.799804688 453.259765625 273.759765625 c 2
 448.419921875 154.279296875 l 1
 453.259765625 34.798828125 l 2
 454.469726562 12.7587890625 462.939453125 1.1591796875 478.669921875 1.1591796875 c 0
 493.189453125 1.1591796875 501.659179688 12.7587890625 502.869140625 34.798828125 c 2
 507.708984375 154.279296875 l 1
 502.869140625 273.759765625 l 2
 501.659179688 295.799804688 493.189453125 307.399414062 478.669921875 307.399414062 c 0
539 686.999023438 m 1
 572 659.999023438 l 1
 74 -32.0009765625 l 1
 43 -7.0009765625 l 1
 539 686.999023438 l 1
135.669921875 680.598632812 m 0
 174.389648438 680.598632812 203.428710938 659.71875 223.999023438 619.119140625 c 0
 239.729492188 586.638671875 248.19921875 550.678710938 248.19921875 508.918945312 c 0
 248.19921875 464.838867188 240.939453125 426.55859375 226.419921875 394.078125 c 0
 205.849609375 349.998046875 175.599609375 327.958007812 135.669921875 327.958007812 c 0xbf
 95.740234375 327.958007812 65.490234375 348.837890625 46.1298828125 391.7578125 c 0
 30.400390625 424.23828125 21.9296875 461.358398438 21.9296875 504.278320312 c 0
 21.9296875 547.198242188 30.400390625 584.318359375 46.1298828125 616.798828125 c 0
 65.490234375 659.71875 95.740234375 680.598632812 135.669921875 680.598632812 c 0
135.668945312 657.3984375 m 0
 119.938476562 657.3984375 111.469726562 645.798828125 110.259765625 623.758789062 c 2
 105.419921875 504.278320312 l 1
 110.259765625 384.797851562 l 2
 111.469726562 362.7578125 119.939453125 351.158203125 135.669921875 351.158203125 c 0
 150.189453125 351.158203125 158.659179688 362.7578125 159.869140625 384.797851562 c 2
 164.708984375 504.278320312 l 1
 159.869140625 623.758789062 l 2
 158.659179688 645.798828125 150.189453125 657.3984375 135.668945312 657.3984375 c 0
EndSplineSet
EndChar

StartChar: ampersand
Encoding: 38 38 5
Width: 734
GlyphClass: 2
Flags: MW
HStem: -24 50<532.5 533.5> -24 60<194.5 297.5> 448 23<444 444 444 473> 683 27<337 358>
VStem: 36 127<134.5 241.5> 188 92<504.5 600> 420 29<585 614> 654 22<167 170>
LayerCount: 2
Fore
SplineSet
329 410 m 1x7f
 360 328 l 2
 381 269 407 208 438 143 c 1
 502 235 534 317 534 388 c 0
 534 428 504 448 442 448 c 1
 444 471 l 1
 522 468 571 466 592 467 c 2
 713 470 l 1
 714 446 l 1
 665 446 632 436 614 415 c 0
 606 406 590 371 565 311 c 0
 537 243 500 179 453 118 c 1
 486 56 517 26 548 26 c 0
 601 26 636 74 654 170 c 1
 676 167 l 1
 668 109 655 68 637 42 c 0
 605 -2 562 -24 505 -24 c 0xbf
 477 -24 452 -18 431 -7 c 0
 413 2 393 18 370 42 c 1
 309 -2 256 -24 213 -24 c 0
 176 -24 139 -10 104 18 c 0
 59 55 36 104 36 165 c 0
 36 213 56 255 96 291 c 0
 115 309 155 335 218 372 c 1
 198 440 188 489 188 520 c 0
 188 571 201 614 226 649 c 0
 254 690 293 710 341 710 c 0
 375 710 402 700 421 680 c 0
 440 660 449 633 449 600 c 0
 449 560 437 524 413 491 c 0
 397 470 369 443 329 410 c 1x7f
320 435 m 1
 354 462 378 486 392 507 c 0
 410 535 420 567 420 603 c 0
 420 625 413 644 400 659 c 0
 386 675 369 683 347 683 c 0
 327 683 310 672 297 650 c 0
 286 631 280 611 280 589 c 0
 280 566 287 536 299 498 c 2
 320 435 l 1
355 64 m 1
 318 128 273 222 223 346 c 1
 183 314 163 270 163 213 c 0
 163 173 174 135 195 99 c 0
 220 57 251 36 289 36 c 0x7f
 306 36 328 45 355 64 c 1
EndSplineSet
EndChar

StartChar: quotesingle
Encoding: 39 39 6
Width: 229
GlyphClass: 2
Flags: MW
HStem: 723 20G
VStem: 87 112<486 619.5>
LayerCount: 2
Fore
SplineSet
109 743 m 1
 141 727 164 708 178 687 c 0
 192 666 199 637 199 602 c 0
 199 557 187 516 161 479 c 0
 144 454 113 423 69 385 c 1
 52 399 l 1
 75 441 87 474 87 498 c 0
 87 541 64 586 19 633 c 1
 56 670 85 707 109 743 c 1
EndSplineSet
EndChar

StartChar: parenleft
Encoding: 40 40 7
Width: 383
GlyphClass: 2
Flags: MW
HStem: 737 20G<341 341>
VStem: 71 132<202 350.5 188.5 351.5>
LayerCount: 2
Fore
SplineSet
354 740 m 1
 317 709 289 677 271 643 c 0
 225 561 203 435 203 266 c 0
 203 111 225 -7 271 -89 c 0
 289 -123 317 -156 354 -187 c 1
 341 -203 l 1
 286 -174 240 -139 205 -99 c 0
 115 2 71 127 71 277 c 0
 71 426 115 551 205 652 c 0
 241 693 286 728 341 757 c 1
 354 740 l 1
EndSplineSet
EndChar

StartChar: parenright
Encoding: 41 41 8
Width: 373
GlyphClass: 2
Flags: MW
HStem: 733 20G<46 46>
VStem: 185 132<198.5 346.5>
LayerCount: 2
Fore
SplineSet
34 737 m 1
 46 753 l 1
 101 725 147 690 183 649 c 0
 273 548 317 422 317 273 c 0
 317 124 273 -2 183 -103 c 0
 147 -144 101 -178 46 -207 c 1
 34 -190 l 1
 71 -159 99 -126 117 -93 c 0
 162 -11 185 108 185 262 c 0
 185 431 162 557 117 639 c 0
 99 673 71 706 34 737 c 1
EndSplineSet
EndChar

StartChar: asterisk
Encoding: 42 42 9
Width: 566
GlyphClass: 2
Flags: MW
HStem: 369 131<119 128 119 131.5> 545 131<129 129> 750 20G<271 289.5>
VStem: 215 126<333.5 351> 257 44<562 588.5>
LayerCount: 2
Fore
SplineSet
256 562 m 1xf0
 257 569 257 575 257 581 c 0
 257 596 254 610 248 622 c 2
 225 664 l 2
 220 673 217 686 217 702 c 0
 217 721 223 737 235 750 c 0
 247 763 262 770 280 770 c 0
 299 770 314 763 326 750 c 0
 337 737 343 721 343 702 c 0
 343 686 340 674 335 664 c 2
 312 622 l 2
 305 609 301 589 301 562 c 1xe8
 325 574 341 587 349 601 c 2
 375 641 l 2
 389 665 412 677 441 677 c 0
 458 677 473 671 484 660 c 0
 496 649 502 634 502 617 c 0
 502 599 495 582 480 568 c 0
 465 554 449 547 430 546 c 2
 381 545 l 2
 364 544 345 536 323 521 c 1
 352 508 372 501 382 501 c 2
 431 500 l 2
 449 499 466 491 481 477 c 0
 497 463 504 447 504 429 c 0
 504 412 498 398 486 386 c 0
 473 375 459 369 442 369 c 0
 413 369 390 381 375 405 c 2
 350 445 l 2
 341 460 324 473 300 485 c 1
 300 456 303 436 310 423 c 2
 333 381 l 2
 339 371 341 359 341 343 c 0
 341 324 335 308 324 295 c 0
 312 282 297 275 278 275 c 0
 260 275 245 282 233 295 c 0
 221 308 215 324 215 343 c 0
 215 359 218 372 223 381 c 2
 246 423 l 2
 253 435 256 456 256 484 c 1
 232 471 216 458 208 446 c 2
 183 405 l 2
 168 381 146 369 117 369 c 0
 100 369 86 375 73 386 c 0
 61 398 55 412 55 428 c 0
 55 447 63 463 78 478 c 0
 93 492 110 500 128 500 c 2
 176 501 l 2
 191 501 210 509 234 523 c 1
 211 537 191 544 177 544 c 2
 129 545 l 2
 110 546 94 553 79 567 c 0
 64 581 56 597 56 615 c 0
 56 633 62 647 73 659 c 0
 85 670 100 676 117 676 c 0
 146 676 169 664 184 640 c 2
 209 600 l 2
 217 586 233 573 256 562 c 1xf0
EndSplineSet
EndChar

StartChar: plus
Encoding: 43 43 10
Width: 945
GlyphClass: 2
Flags: MW
HStem: 238 73<49 434 49 434>
VStem: 433 85<-149 237>
LayerCount: 2
Fore
SplineSet
434 311 m 1
 433 697 l 1
 518 697 l 1
 518 311 l 1
 902 311 l 1
 902 237 l 1
 518 237 l 1
 518 -149 l 1
 433 -149 l 1
 434 238 l 1
 49 238 l 1
 49 311 l 1
 434 311 l 1
EndSplineSet
EndChar

StartChar: comma
Encoding: 44 44 11
Width: 188
GlyphClass: 2
Flags: MW
VStem: 11 171
LayerCount: 2
Fore
SplineSet
13 -162 m 2
 46 108 l 2
 52 159 77 185 121 185 c 0
 138 185 153 180 165 169 c 0
 176 158 182 144 182 126 c 0
 182 111 178 95 170 79 c 2
 43 -177 l 2
 38 -188 32 -193 25 -193 c 0
 16 -193 11 -187 11 -176 c 0
 11 -175 12 -170 13 -162 c 2
EndSplineSet
EndChar

StartChar: hyphen
Encoding: 45 45 12
AltUni2: 002010.ffffffff.0 002010.ffffffff.0
Width: 296
GlyphClass: 2
Flags: MW
HStem: 124 298<31 282>
VStem: 31 251<124 267 177 367>
LayerCount: 2
Fore
SplineSet
282 267 m 1
 282 177 l 1
 31 124 l 1
 32 210 l 1
 282 267 l 1
282 422 m 1
 281 335 l 1
 32 281 l 1
 31 367 l 1
 282 422 l 1
EndSplineSet
EndChar

StartChar: period
Encoding: 46 46 13
Width: 279
GlyphClass: 2
Flags: MW
HStem: -23 205<132 155 132 155>
VStem: 47 193<68 88 68 88>
LayerCount: 2
Fore
SplineSet
155 -23 m 1
 132 -23 l 1
 127 -14 l 2
 115 9 104 25 94 35 c 0
 84 45 68 56 47 68 c 1
 47 88 l 1
 63 99 l 2
 90 118 112 142 127 171 c 2
 132 182 l 1
 155 182 l 1
 160 171 l 2
 175 142 197 118 224 99 c 2
 240 88 l 1
 240 68 l 1
 219 56 203 45 193 35 c 0
 184 25 173 9 160 -14 c 2
 155 -23 l 1
EndSplineSet
EndChar

StartChar: slash
Encoding: 47 47 14
Width: 354
GlyphClass: 2
Flags: MW
HStem: 731 20G<260 260>
VStem: 33 294
LayerCount: 2
Fore
SplineSet
327 737 m 1
 97 -198 l 1
 33 -183 l 1
 260 751 l 1
 327 737 l 1
EndSplineSet
EndChar

StartChar: zero
Encoding: 48 48 15
Width: 507
GlyphClass: 2
Flags: MW
HStem: -17 25<247 266 247 296> 708 25<229 261>
VStem: 28 151 328 152<310 406 310 587>
LayerCount: 2
Fore
SplineSet
254 733 m 0
 338 733 399 689 438 600 c 0
 466 535 480 454 480 358 c 0
 480 262 466 182 438 117 c 0
 399 28 338 -17 254 -17 c 0
 193 -17 142 9 102 60 c 0
 77 92 57 138 44 198 c 0
 33 247 28 298 28 349 c 0
 28 448 42 531 69 596 c 0
 107 688 169 733 254 733 c 0
328 173 m 1
 328 587 l 1
 319 657 l 2
 314 671 306 683 294 693 c 0
 281 703 268 708 254 708 c 0
 204 708 180 668 180 587 c 2
 179 129 l 1
 188 60 l 2
 193 46 201 34 214 23 c 0
 226 13 240 8 254 8 c 0
 278 8 297 19 310 41 c 0
 323 62 330 92 329 129 c 2
 328 173 l 1
EndSplineSet
EndChar

StartChar: one
Encoding: 49 49 16
Width: 507
GlyphClass: 2
Flags: MW
HStem: 0 30<66 155 155 167 353 441 66 155> 596 27<75 143 75 75> 714 20G<246 315 315 315>
VStem: 191 124<74 79 79 572 572 580>
LayerCount: 2
Fore
SplineSet
246 734 m 1
 315 734 l 1
 315 79 l 2
 315 46 328 30 353 30 c 2
 441 30 l 1
 441 0 l 1
 66 0 l 1
 66 30 l 1
 155 30 l 2
 179 30 191 45 191 74 c 2
 191 572 l 2
 191 588 175 596 143 596 c 2
 75 596 l 1
 75 623 l 1
 122 626 156 635 178 650 c 0
 198 664 220 692 246 734 c 1
EndSplineSet
EndChar

StartChar: two
Encoding: 50 50 17
Width: 507
GlyphClass: 2
Flags: MW
HStem: 0 125<37 389 92 389 389 396 92 424> 432 150 709 41<213.5 224>
VStem: 30 59<539 642> 331 145<511.5 565>
LayerCount: 2
Fore
SplineSet
37 0 m 1
 41 61 51 111 66 151 c 0
 84 198 113 241 152 278 c 2
 249 371 l 2
 303 422 331 480 331 543 c 0
 331 587 321 625 301 655 c 0
 277 691 245 709 203 709 c 0
 177 709 152 702 129 689 c 0
 102 674 89 654 89 630 c 0
 89 604 106 588 140 582 c 0
 182 573 204 549 204 510 c 0
 204 489 196 471 181 455 c 0
 166 440 148 432 127 432 c 0
 97 432 72 445 54 472 c 0
 38 496 30 523 30 555 c 0
 30 612 51 659 94 697 c 0
 135 732 184 750 243 750 c 0
 307 750 361 731 406 693 c 0
 452 653 476 601 476 538 c 0
 476 447 423 374 317 317 c 0
 253 283 218 264 212 260 c 0
 174 236 144 210 124 182 c 0
 113 167 102 149 92 125 c 1
 389 125 l 2
 403 125 414 133 422 150 c 2
 437 195 l 1
 450 234 l 1
 477 232 l 1
 446 111 l 2
 435 70 428 33 424 0 c 1
 37 0 l 1
EndSplineSet
EndChar

StartChar: three
Encoding: 51 51 18
Width: 507
GlyphClass: 2
Flags: MW
HStem: -13 23<220 251.5 220 264.5> 336 66<132 139.5> 371 27<236.5 240.5 215.5 272.5> 720 31<239 263.5>
VStem: 30 115<59.5 149.5> 68 81<565 675> 323 140<523 587 516.5 604> 326 152<190.5 218 162.5 272.5>
LayerCount: 2
Fore
SplineSet
315 392 m 1xb6
 363 379 401 355 431 320 c 0
 462 284 478 242 478 194 c 0
 478 131 452 80 400 41 c 0
 353 5 297 -13 232 -13 c 0
 180 -13 135 -1 97 22 c 0
 52 50 30 89 30 138 c 0
 30 161 38 180 53 196 c 0
 69 212 88 220 111 220 c 0
 132 220 150 214 165 200 c 0
 181 186 189 169 189 148 c 0
 189 129 183 114 171 102 c 2
 152 83 l 2
 147 79 145 74 145 68 c 0
 145 51 155 37 175 25 c 0
 193 15 211 10 229 10 c 0
 274 10 303 36 316 89 c 0
 323 114 326 158 326 223 c 0
 326 322 299 371 246 371 c 0xb9
 227 371 210 367 195 359 c 2
 164 344 l 2
 154 339 144 336 135 336 c 0
 114 336 103 347 103 369 c 0
 103 391 118 402 146 402 c 0xd9
 154 402 168 401 188 399 c 0
 201 398 211 398 220 398 c 0
 261 398 290 413 306 444 c 0
 317 466 323 500 323 546 c 0
 323 662 293 720 234 720 c 0
 215 720 198 716 181 708 c 0
 160 697 149 683 149 667 c 0
 149 659 156 649 171 637 c 0
 189 623 199 613 203 608 c 0
 208 599 211 587 211 572 c 0
 211 553 204 536 191 522 c 0
 178 508 162 501 143 501 c 0
 123 501 106 508 91 523 c 0
 75 538 68 555 68 575 c 0
 68 626 88 668 129 702 c 0
 168 735 213 751 265 751 c 0
 319 751 366 733 405 696 c 0
 444 660 463 614 463 560 c 0
 463 473 414 417 315 392 c 1xb6
EndSplineSet
EndChar

StartChar: four
Encoding: 52 52 19
Width: 506
GlyphClass: 2
Flags: MW
HStem: 0 29<115 205 205 210 115 478 115 205> 195 63<66 248 27 249 374 466 374 374> 721 20G<271 271>
VStem: 248 125<51 195 634 634>
LayerCount: 2
Fore
SplineSet
271 741 m 1
 373 740 l 1
 373 258 l 1
 466 258 l 1
 466 195 l 1
 374 195 l 1
 373 62 l 2
 373 40 382 30 401 30 c 2
 478 30 l 1
 478 0 l 1
 115 0 l 1
 115 29 l 1
 205 29 l 2
 215 29 225 33 234 40 c 0
 243 46 248 55 248 65 c 2
 248 195 l 1
 27 195 l 1
 27 244 l 1
 271 741 l 1
248 634 m 1
 66 258 l 1
 249 258 l 1
 248 634 l 1
EndSplineSet
EndChar

StartChar: five
Encoding: 53 53 20
Width: 506
GlyphClass: 2
Flags: MW
HStem: -18 28<207 247.5 199.5 270> 456 35<253 254.5> 593 97<228 246.5> 722 20G<86 112 112 112>
VStem: 26 96<57.5 158.5> 61 52 96 30<526.5 548 526.5 568.5> 327 150<213.5 240>
LayerCount: 2
Fore
SplineSet
122 621 m 1xf9
 125 584 126 556 126 540 c 0xf3
 126 513 124 476 120 428 c 1
 146 451 169 466 188 475 c 0
 211 486 238 491 268 491 c 0
 329 491 376 471 412 431 c 0
 455 382 477 321 477 250 c 0
 477 177 455 115 412 63 c 0
 365 9 306 -18 234 -18 c 0
 180 -18 133 -2 93 30 c 0
 48 66 26 106 26 148 c 0
 26 169 33 187 47 202 c 0
 62 217 79 224 100 224 c 0
 121 224 138 217 152 203 c 0
 166 189 173 171 173 151 c 0
 173 133 163 115 144 98 c 0
 129 85 122 74 122 65 c 0xf9
 122 50 133 37 155 25 c 0
 173 15 191 10 208 10 c 0
 287 10 327 73 327 198 c 0
 327 282 325 335 321 354 c 0
 309 422 279 456 230 456 c 0
 162 456 123 412 113 325 c 0
 110 299 101 286 84 286 c 0
 69 286 61 295 61 312 c 0xf5
 61 321 63 331 67 340 c 2
 79 367 l 2
 90 394 96 455 96 549 c 0xf3
 96 588 92 652 86 742 c 1
 112 742 l 1
 156 708 203 690 253 690 c 0
 306 690 353 707 396 741 c 1
 417 743 l 1
 409 715 402 694 394 680 c 0
 384 663 369 647 349 633 c 0
 311 606 269 593 224 593 c 0
 194 593 160 603 122 621 c 1xf9
EndSplineSet
EndChar

StartChar: six
Encoding: 54 54 21
Width: 507
GlyphClass: 2
Flags: MW
HStem: -11 28<241 279 241 298.5> 410 36<286 294> 712 26<273 299>
VStem: 33 145<261.5 277 182 397> 334 141<130.5 263> 362 100<584 677.5>
LayerCount: 2
Fore
SplineSet
181 378 m 1xf4
 198 403 215 420 231 430 c 0
 249 441 272 446 300 446 c 0
 356 446 400 424 432 380 c 0
 461 340 475 292 475 234 c 0xf8
 475 172 457 116 419 68 c 0
 379 15 329 -11 268 -11 c 0
 205 -11 149 19 100 80 c 0
 55 134 33 211 33 312 c 0
 33 482 68 601 138 668 c 0
 187 715 238 738 291 738 c 0
 334 738 373 725 407 699 c 0
 444 671 462 636 462 594 c 0
 462 574 457 557 445 541 c 0
 432 524 416 515 397 515 c 0
 378 515 361 522 346 536 c 0
 331 550 323 567 323 586 c 0
 323 605 332 625 350 647 c 0
 358 657 362 666 362 672 c 0
 362 683 353 692 335 701 c 0
 319 709 305 712 293 712 c 0
 253 712 224 695 206 662 c 0
 186 624 177 570 178 500 c 2
 181 378 l 1xf4
270 410 m 0
 209 410 178 344 178 210 c 0
 178 154 181 115 186 92 c 0
 197 42 222 17 260 17 c 0
 298 17 322 44 331 99 c 0
 333 110 334 123 334 138 c 2
 338 220 l 1
 339 292 l 2
 341 371 318 410 270 410 c 0
EndSplineSet
EndChar

StartChar: seven
Encoding: 55 55 22
Width: 506
GlyphClass: 2
Flags: MW
HStem: -11 21G<210 251.5> 596 125<125.5 139>
VStem: 28 31<489 494> 154 160<53.5 199.5>
LayerCount: 2
Fore
SplineSet
432 597 m 1
 139 596 l 2
 112 596 92 584 80 561 c 0
 75 551 68 527 59 489 c 1
 28 494 l 1
 49 582 64 658 72 721 c 1
 479 721 l 1
 473 663 466 617 459 585 c 0
 449 542 434 499 412 456 c 2
 364 359 l 2
 331 292 314 229 314 170 c 0
 314 161 315 151 316 138 c 0
 319 112 320 96 320 88 c 0
 320 60 313 37 301 19 c 0
 286 -1 265 -11 238 -11 c 0
 182 -11 154 21 154 86 c 0
 154 168 186 244 251 316 c 2
 332 405 l 2
 376 454 410 518 432 597 c 1
EndSplineSet
EndChar

StartChar: eight
Encoding: 56 56 23
Width: 507
GlyphClass: 2
Flags: MW
HStem: -18 23<233.5 272.5 233.5 295> 718 25<249.5 285>
VStem: 26 76<160 210.5 156.5 211> 46 91<522.5 613.5> 388 94<125.5 234> 413 60<541.5 588>
LayerCount: 2
Fore
SplineSet
364 399 m 1xd4
 404 371 433 346 449 322 c 0
 471 291 482 255 482 213 c 0
 482 158 465 108 432 64 c 0
 391 10 333 -18 257 -18 c 0
 194 -18 140 1 96 39 c 0
 49 78 26 129 26 191 c 0xe8
 26 231 38 265 63 293 c 0
 82 314 112 336 154 358 c 1
 117 389 91 416 77 438 c 0
 56 469 46 503 46 542 c 0
 46 602 67 650 109 688 c 0
 150 725 200 743 260 743 c 0
 315 743 363 728 404 698 c 0
 450 665 473 622 473 569 c 0
 473 514 437 457 364 399 c 1xd4
333 418 m 1
 386 464 413 514 413 569 c 0
 413 607 398 641 368 672 c 0
 338 703 304 718 266 718 c 0
 233 718 203 707 177 683 c 0
 150 659 137 630 137 597 c 0xd4
 137 560 161 523 211 487 c 0
 237 468 277 445 333 418 c 1
182 341 m 1
 129 296 102 242 102 179 c 0
 102 134 115 96 142 64 c 0
 176 25 213 5 254 5 c 0
 291 5 322 19 348 47 c 0
 375 75 388 107 388 144 c 0xe8
 388 168 383 189 373 206 c 0
 364 219 350 235 328 252 c 0
 292 281 243 311 182 341 c 1
EndSplineSet
EndChar

StartChar: nine
Encoding: 57 57 24
Width: 507
GlyphClass: 2
Flags: MW
HStem: -16 26<210 235.5 210 244.5> 276 37<180.5 251.5> 705 27<229.5 267.5>
VStem: 33 136<430 519> 46 100<45.5 138.5> 330 145<222 460.5 325 539.5>
LayerCount: 2
Fore
SplineSet
327 345 m 1xec
 310 320 294 303 277 293 c 0
 259 282 236 276 208 276 c 0
 153 276 109 298 77 342 c 0
 48 382 33 431 33 488 c 0xf4
 33 550 52 606 89 654 c 0
 129 706 180 732 241 732 c 0
 304 732 360 702 409 642 c 0
 453 588 475 511 475 410 c 0
 475 240 440 121 371 55 c 0
 321 8 271 -16 218 -16 c 0
 175 -16 136 -3 102 23 c 0
 65 51 46 87 46 129 c 0
 46 148 52 166 63 182 c 0
 76 199 92 208 111 208 c 0
 130 208 148 201 163 187 c 0
 178 173 185 156 185 136 c 0
 185 117 176 97 159 75 c 0
 150 65 146 57 146 51 c 0
 146 40 155 30 174 21 c 0
 190 14 204 10 216 10 c 0
 255 10 284 27 303 62 c 0
 323 99 332 152 330 222 c 2
 327 345 l 1xec
249 705 m 0
 210 705 186 677 177 622 c 0
 176 611 174 598 174 584 c 2
 170 502 l 1
 169 430 l 1
 179 358 l 1
 189 328 209 313 239 313 c 0
 264 313 286 329 305 361 c 0
 322 390 330 440 330 512 c 0
 330 567 327 607 322 630 c 0
 311 680 286 705 249 705 c 0
EndSplineSet
EndChar

StartChar: colon
Encoding: 58 58 25
Width: 366
GlyphClass: 2
Flags: MW
HStem: -21 21G<191 206 191 191> 521 20G<191 206 206 206>
VStem: 103 190<73 86 73 86 432 446>
LayerCount: 2
Fore
SplineSet
206 -21 m 1
 191 -21 l 1
 172 13 143 44 103 73 c 1
 103 86 l 1
 140 111 169 143 191 182 c 1
 206 182 l 1
 227 143 256 111 293 86 c 1
 293 73 l 1
 254 45 224 13 206 -21 c 1
206 338 m 1
 191 338 l 1
 172 372 143 403 103 432 c 1
 103 446 l 1
 140 471 169 503 191 541 c 1
 206 541 l 1
 227 503 256 471 293 446 c 1
 293 432 l 1
 254 404 224 373 206 338 c 1
EndSplineSet
EndChar

StartChar: semicolon
Encoding: 59 59 26
Width: 263
GlyphClass: 2
Flags: MW
HStem: 521 20G<122 137 137 137>
VStem: 127 108<-99 56.5>
LayerCount: 2
Fore
SplineSet
132 175 m 1
 201 136 235 86 235 27 c 0
 235 -45 187 -129 90 -227 c 1
 74 -209 l 1
 109 -169 127 -124 127 -74 c 0
 127 -14 96 29 34 55 c 1
 77 88 110 128 132 175 c 1
137 338 m 1
 122 338 l 1
 104 372 74 403 34 432 c 1
 34 446 l 1
 71 471 101 503 122 541 c 1
 137 541 l 1
 158 503 187 471 225 446 c 1
 225 432 l 1
 185 404 156 373 137 338 c 1
EndSplineSet
EndChar

StartChar: equal
Encoding: 61 61 27
Width: 750
GlyphClass: 2
Flags: MW
HStem: 155 60<41 720 41 720 40 720> 336 61<40 720 40 720>
LayerCount: 2
Fore
SplineSet
41 215 m 1
 720 215 l 1
 720 155 l 1
 40 155 l 1
 41 215 l 1
40 397 m 1
 720 397 l 1
 720 336 l 1
 40 336 l 1
 40 397 l 1
EndSplineSet
EndChar

StartChar: question
Encoding: 63 63 28
Width: 558
GlyphClass: 2
Flags: MW
HStem: -21 21G<222 241 222 222> 473 141<154.5 186> 709 35<239.5 266>
VStem: 81 50<564 650> 219 27<195 195> 384 105<474.5 585>
LayerCount: 2
Fore
SplineSet
211 399 m 1
 265 412 306 429 332 450 c 0
 367 477 384 515 384 564 c 0
 384 606 372 641 346 668 c 0
 320 695 287 709 245 709 c 0
 222 709 199 703 174 691 c 0
 145 677 131 660 131 640 c 0
 131 633 134 627 139 622 c 0
 145 616 151 614 158 614 c 0
 162 614 169 615 177 617 c 0
 185 619 191 620 195 620 c 0
 212 620 226 614 237 601 c 0
 248 588 254 572 254 555 c 0
 254 533 246 514 231 498 c 0
 216 481 197 473 175 473 c 0
 148 473 125 484 106 505 c 0
 90 526 81 550 81 578 c 0
 81 626 100 666 137 698 c 0
 173 729 215 744 264 744 c 0
 333 744 390 717 433 663 c 0
 471 616 489 564 489 508 c 0
 489 441 465 386 418 342 c 0
 382 310 348 290 314 284 c 2
 276 276 l 2
 262 274 253 263 249 243 c 0
 248 238 247 222 246 195 c 1
 219 195 l 1
 218 238 l 1
 211 399 l 1
241 -21 m 1
 222 -21 l 1
 217 -13 l 2
 204 9 195 23 189 29 c 0
 180 38 167 47 148 58 c 1
 148 74 l 1
 162 84 l 2
 183 99 201 120 217 147 c 2
 222 155 l 1
 241 155 l 1
 246 147 l 2
 259 122 277 101 301 84 c 2
 314 74 l 1
 314 58 l 1
 285 40 262 17 246 -13 c 2
 241 -21 l 1
EndSplineSet
EndChar

StartChar: at
Encoding: 64 64 29
Width: 842
GlyphClass: 2
Flags: MW
HStem: -125 31<426.5 492.5> 0 83<504.5 604> 474 42 629 24<418.5 495.5 388.5 506>
VStem: 29 98<220 250.5 146.5 321.5> 186 131<127 135> 453 133<49.5 98> 775 22<345 409.5> 803 21<178 232>
LayerCount: 2
Fore
SplineSet
459 96 m 1
 426 65 400 44 381 32 c 0
 349 12 317 1 287 1 c 0
 257 1 232 13 213 37 c 0
 195 59 186 86 186 116 c 0
 186 154 194 197 211 246 c 0
 227 290 246 330 269 366 c 0
 332 466 409 516 500 516 c 0
 550 516 592 497 625 458 c 1
 667 503 l 1
 715 508 l 1
 591 121 l 2
 588 110 586 101 586 95 c 0
 586 87 590 83 598 83 c 0
 610 83 628 91 651 109 c 0
 689 138 719 177 742 225 c 0
 764 273 775 321 775 369 c 0
 775 450 743 515 678 563 c 0
 619 607 548 629 464 629 c 0
 373 629 300 605 245 555 c 0
 205 519 175 467 154 400 c 0
 136 343 127 282 127 219 c 0
 127 74 186 -21 304 -67 c 0
 350 -85 400 -94 453 -94 c 0
 550 -94 631 -66 695 -10 c 0
 733 23 759 59 775 98 c 0
 789 131 798 176 803 232 c 1
 824 232 l 1
 824 124 786 36 710 -30 c 0
 638 -93 547 -125 438 -125 c 0
 371 -125 308 -111 249 -85 c 0
 185 -56 135 -16 99 35 c 0
 52 101 29 177 29 263 c 0
 29 380 70 475 152 548 c 0
 231 618 329 653 448 653 c 0
 543 653 623 630 688 583 c 0
 761 531 797 459 797 367 c 0
 797 265 760 175 685 96 c 0
 662 72 635 51 605 33 c 0
 569 11 538 0 512 0 c 0
 497 0 483 5 471 17 c 0
 459 28 453 42 453 57 c 0
 453 67 455 80 459 96 c 1
497 474 m 0
 473 475 452 465 435 446 c 0
 417 426 396 389 372 335 c 0
 335 252 317 185 317 134 c 0
 317 120 320 109 327 98 c 0
 335 86 345 80 358 80 c 0
 379 80 404 91 431 113 c 0
 451 129 469 154 483 187 c 0
 489 201 499 230 513 273 c 2
 538 354 l 2
 546 382 551 404 551 419 c 0
 551 454 533 472 497 474 c 0
EndSplineSet
EndChar

StartChar: A
Encoding: 65 65 30
Width: 738
GlyphClass: 2
Flags: MW
HStem: -21 21G 705 29<182 183.5> 713 20<709 710>
VStem: 30 71<554.5 650> 143 96<334 437> 279 134<434 479.5> 473 145<172 189>
LayerCount: 2
Fore
SplineSet
228 185 m 1xde
 373 88 l 1
 473 172 l 1
 472 546 l 2
 472 578 469 605 462 627 c 0
 458 643 448 668 432 705 c 1xde
 451 714 l 1
 476 668 492 620 499 568 c 1
 530 645 571 695 621 716 c 0
 643 725 673 731 710 733 c 1
 709 713 l 1xbe
 673 708 648 692 634 665 c 0
 623 644 617 614 617 573 c 2
 618 189 l 2
 618 174 623 157 632 140 c 0
 643 119 656 109 670 109 c 0
 675 109 689 116 711 131 c 1
 723 112 l 1
 695 89 650 44 589 -21 c 1
 554 -2 529 20 513 45 c 0
 501 63 489 95 476 140 c 1
 351 32 l 1
 320 0 l 1
 298 -21 l 1
 254 16 221 41 201 54 c 0
 167 76 129 90 88 99 c 1
 88 117 l 1
 158 149 207 187 236 229 c 0
 255 258 268 293 273 336 c 0
 277 361 279 399 279 450 c 0
 279 509 278 547 276 563 c 0
 272 611 260 646 241 667 c 0
 219 693 196 705 171 705 c 0
 155 705 139 699 125 686 c 0
 109 672 101 658 101 642 c 0
 101 621 120 592 159 555 c 0
 212 503 239 457 239 417 c 0
 239 380 221 346 184 314 c 0
 154 288 119 268 78 255 c 1
 69 277 l 1
 118 292 143 317 143 351 c 0
 143 368 128 393 99 426 c 0
 75 453 59 474 50 490 c 0
 36 515 30 541 30 568 c 0
 30 617 47 658 82 689 c 0
 115 719 157 734 207 734 c 0
 277 734 330 706 366 650 c 0
 397 603 413 543 413 469 c 0
 413 399 397 344 365 301 c 0
 343 273 298 234 228 185 c 1xde
EndSplineSet
EndChar

StartChar: B
Encoding: 66 66 31
Width: 792
GlyphClass: 2
Flags: MW
HStem: -23 58<424.5 575.5> 109 92<124.5 216> 277 22<99 102> 443 21<731 748> 701 50<512.5 590.5> 719 30<196 200>
VStem: 29 74<536.5 650> 161 81<344 431> 313 138<360 370.5 343.5 433.5> 561 136<504 586> 569 137<595.5 656> 669 100<120.5 305.5>
LayerCount: 2
Fore
SplineSet
674 433 m 1xfbc0
 737 394 769 340 769 271 c 0
 769 188 738 118 677 61 c 0
 617 5 545 -23 461 -23 c 0
 388 -23 318 0 252 46 c 0
 191 88 151 109 132 109 c 0
 117 109 104 95 92 67 c 1
 68 78 l 1
 98 160 147 201 213 201 c 0
 219 201 227 201 236 200 c 1
 266 228 287 255 297 281 c 0
 308 306 313 339 313 381 c 0
 313 486 305 569 290 627 c 0
 283 652 271 673 253 690 c 0
 233 710 212 719 188 719 c 0
 166 719 147 711 129 696 c 0
 112 680 103 661 103 639 c 0
 103 614 125 580 170 538 c 0
 218 493 242 451 242 411 c 0
 242 375 227 344 198 319 c 0
 172 296 140 283 102 277 c 1
 99 299 l 1
 120 305 134 310 141 315 c 0
 154 323 161 336 161 352 c 0
 161 367 150 384 129 402 c 0
 62 460 29 513 29 560 c 0
 29 612 48 656 87 693 c 0
 125 730 170 749 222 749 c 0xf790
 271 749 317 736 360 708 c 0
 383 694 404 671 422 639 c 1
 440 676 458 704 478 720 c 0
 502 741 533 751 570 751 c 0
 611 751 644 736 669 705 c 0xfb90
 694 676 706 641 706 600 c 0xfba0
 706 591 704 579 702 566 c 0
 699 545 697 531 697 524 c 0
 697 484 714 464 748 464 c 1
 748 443 l 1
 674 433 l 1xfbc0
651 456 m 1
 591 477 561 519 561 582 c 0xfbc0
 561 590 562 599 564 610 c 0
 567 629 569 642 569 649 c 0
 569 663 565 676 556 686 c 0
 548 696 537 701 523 701 c 0xfba0
 502 701 483 691 469 672 c 0
 461 662 451 642 439 613 c 1
 449 550 453 497 453 454 c 2
 452 421 l 1
 651 456 l 1
278 192 m 1
 314 178 358 151 411 109 c 0
 442 85 465 69 480 60 c 0
 508 43 535 35 560 35 c 0
 591 35 617 44 638 63 c 0
 659 81 669 105 669 136 c 0xf390
 669 184 655 229 627 271 c 0
 606 304 580 329 550 349 c 0
 527 363 494 378 450 394 c 1
 450 383 451 374 451 367 c 0
 451 320 435 282 403 252 c 0
 382 233 340 213 278 192 c 1
EndSplineSet
EndChar

StartChar: C
Encoding: 67 67 32
Width: 684
GlyphClass: 2
Flags: MW
HStem: -22 78<383 447.5> 132 39<403.5 418.5 394.5 452.5> 604 81<511 594> 718 35<252.5 296>
VStem: 43 149<342 599> 308 93<483 607> 465 97<217.5 317.5>
LayerCount: 2
Fore
SplineSet
372 630 m 1
 345 688 314 718 278 718 c 0
 221 718 192 658 192 540 c 0
 192 462 194 403 197 365 c 0
 203 296 216 240 236 195 c 0
 277 103 340 56 426 56 c 0
 514 56 591 100 656 187 c 1
 673 178 l 1
 611 45 514 -22 381 -22 c 0
 268 -22 181 22 121 109 c 0
 69 186 43 283 43 401 c 0
 43 533 76 630 142 693 c 0
 184 733 229 753 276 753 c 0
 324 753 362 718 392 649 c 1
 423 679 456 712 490 750 c 1
 525 707 557 685 585 685 c 0
 603 685 621 697 638 720 c 1
 652 715 l 1
 643 687 626 662 603 641 c 0
 577 616 551 604 523 604 c 0
 499 604 467 620 427 652 c 1
 410 636 401 617 401 597 c 0
 401 576 410 552 428 527 c 0
 433 520 450 501 479 470 c 0
 508 437 528 411 539 393 c 0
 554 366 562 335 562 300 c 0
 562 258 551 220 530 188 c 0
 505 150 473 132 432 132 c 0
 375 132 332 174 300 259 c 1
 320 269 l 1
 326 253 l 2
 348 198 377 171 412 171 c 0
 425 171 438 176 448 188 c 0
 459 199 465 211 465 224 c 0
 465 242 454 265 432 294 c 2
 381 354 l 2
 333 414 308 464 308 502 c 0
 308 531 329 573 372 630 c 1
EndSplineSet
EndChar

StartChar: D
Encoding: 68 68 33
Width: 833
GlyphClass: 2
Flags: MW
HStem: -22 124<480.5 605> 68 117<162 279> 611 143<272 314>
VStem: 31 44<484 527 473 543.5> 275 101<424 551.5> 355 121<227 349> 761 29<268.5 338.5>
LayerCount: 2
Fore
SplineSet
332 175 m 1x7a
 347 200 355 220 355 234 c 0x76
 355 257 347 283 331 312 c 2
 289 385 l 2
 280 401 275 417 275 431 c 0
 275 473 308 533 375 608 c 1
 342 610 320 611 308 611 c 0
 152 611 75 569 75 485 c 0
 75 461 82 441 96 425 c 0
 105 416 123 403 149 387 c 1
 139 368 l 1
 67 401 31 451 31 517 c 0
 31 570 50 618 88 663 c 0
 140 724 219 754 325 754 c 0
 477 754 598 698 689 587 c 0
 756 505 790 415 790 317 c 0
 790 220 756 135 689 63 c 0
 636 6 574 -22 502 -22 c 0xba
 459 -22 412 -14 360 2 c 0
 331 12 286 29 225 55 c 0
 204 63 186 68 171 68 c 0
 153 68 137 52 125 21 c 1
 102 26 l 1
 119 77 138 115 160 138 c 0
 188 169 225 185 271 185 c 0
 287 185 307 182 332 175 c 1x7a
352 169 m 1
 419 145 l 2
 494 116 547 102 579 102 c 0
 631 102 675 121 710 159 c 0
 744 196 761 241 761 294 c 0
 761 383 718 457 632 518 c 0
 583 552 509 581 409 604 c 1
 387 581 376 561 376 542 c 0xba
 376 524 388 498 411 464 c 2
 464 388 l 2
 472 373 476 357 476 341 c 0
 476 316 464 285 441 250 c 0
 424 224 394 197 352 169 c 1
EndSplineSet
EndChar

StartChar: E
Encoding: 69 69 34
Width: 683
GlyphClass: 2
Flags: MW
HStem: -22 78<405.5 419.5> 132 39<400 416 398 452> 433 96<559 621> 604 81<511 593> 718 35<250.5 296>
VStem: 43 149<369 599.5> 300 19<262 269> 311 90<481 607> 465 100<219 313.5>
LayerCount: 2
Fore
SplineSet
507 436 m 1xfd80
 554 490 l 2
 575 516 594 529 611 529 c 0
 631 529 655 513 684 482 c 1
 660 454 637 425 615 396 c 1
 594 421 577 433 565 433 c 0
 553 433 541 426 529 412 c 1
 553 368 565 330 565 297 c 0
 565 256 553 219 530 187 c 0
 505 150 472 132 432 132 c 0
 368 132 324 175 300 262 c 1
 319 269 l 1xfe80
 333 236 344 215 351 205 c 0
 367 182 387 171 409 171 c 0
 423 171 436 177 447 188 c 0
 459 200 465 212 465 226 c 0
 465 242 454 265 432 294 c 2
 381 354 l 2
 334 411 311 460 311 502 c 0
 311 534 332 576 373 630 c 1
 345 688 314 718 278 718 c 0
 221 718 192 659 192 540 c 0
 192 460 194 400 198 359 c 0
 204 287 218 229 239 185 c 0
 258 146 283 116 314 93 c 0
 348 68 385 56 426 56 c 0
 518 56 595 100 656 189 c 1
 673 184 l 1
 654 121 618 71 565 34 c 0
 513 -3 453 -22 386 -22 c 0
 347 -22 306 -14 265 1 c 0
 223 16 188 37 159 63 c 0
 119 99 89 152 68 220 c 0
 51 276 43 337 43 401 c 0
 43 533 76 630 142 693 c 0
 184 733 228 753 273 753 c 0
 323 753 363 718 392 649 c 1
 427 683 l 2
 458 712 479 735 490 751 c 1
 512 727 525 713 531 708 c 0
 549 693 566 685 583 685 c 0
 603 685 622 698 639 723 c 1
 656 713 l 1
 615 640 571 604 523 604 c 0
 499 604 467 620 427 652 c 1
 410 636 401 617 401 597 c 0
 401 570 415 541 443 510 c 2
 479 470 l 2
 485 464 494 452 507 436 c 1xfd80
EndSplineSet
EndChar

StartChar: F
Encoding: 70 70 35
Width: 714
GlyphClass: 2
Flags: MW
HStem: -204 31<324 357.5 324 366> 278 37<86.5 143> 348 101<565 624.5> 435 24<169 178> 538 110 641 118<146.5 238.5>
VStem: 37 41<560 566.5 541 607> 55 122<-50 60.5> 124 123<165.5 257.5> 334 101 495 122<-46.5 70> 621 23<700 708>
LayerCount: 2
Fore
SplineSet
454 538 m 1xca70
 441 507 435 480 435 456 c 0
 435 427 453 384 489 328 c 1
 509 355 528 380 547 402 c 0
 574 433 598 449 619 449 c 0
 630 449 642 445 655 438 c 0
 676 427 693 402 707 364 c 0
 706 362 683 327 640 259 c 1
 616 263 l 1
 619 275 620 285 620 294 c 0
 620 308 615 320 606 332 c 0
 597 343 586 348 573 348 c 0
 557 348 534 333 505 304 c 1
 508 299 l 1
 544 238 l 2
 572 193 590 163 596 150 c 0
 610 119 617 87 617 53 c 0
 617 -13 588 -72 528 -125 c 0
 469 -178 403 -204 329 -204 c 0
 253 -204 188 -180 135 -133 c 0
 82 -86 55 -28 55 40 c 0xe970
 55 81 71 130 102 187 c 0
 117 214 124 234 124 247 c 0
 124 268 113 278 92 278 c 0
 81 278 66 272 47 261 c 1
 35 281 l 1
 68 304 98 315 125 315 c 0
 161 315 191 303 213 278 c 0
 236 254 247 222 247 181 c 0xe8f0
 247 150 232 104 203 44 c 0
 186 9 177 -19 177 -39 c 0xe970
 177 -61 183 -80 196 -98 c 0
 211 -120 232 -138 259 -152 c 0
 285 -166 311 -173 337 -173 c 0
 378 -173 414 -158 447 -128 c 0
 479 -99 495 -65 495 -28 c 0
 495 11 474 60 433 121 c 2
 374 208 l 2
 347 249 334 290 334 329 c 0
 334 345 336 360 339 374 c 0
 349 416 375 472 417 541 c 1
 376 549 341 562 311 577 c 2
 224 623 l 2
 201 635 179 641 158 641 c 0
 135 641 116 633 101 616 c 0
 86 600 78 579 78 554 c 0
 78 528 88 505 109 487 c 0
 129 468 154 459 184 459 c 1
 182 459 191 460 211 461 c 1
 214 439 l 1
 199 436 185 435 171 435 c 0
 133 435 101 449 75 477 c 0
 50 504 37 539 37 581 c 0
 37 633 55 676 90 709 c 0
 125 742 170 759 225 759 c 0xd670
 252 759 281 754 310 744 c 0
 324 738 351 727 390 708 c 2
 466 672 l 2
 500 656 527 648 549 648 c 0
 579 648 603 668 621 708 c 1
 644 700 l 1
 632 659 612 625 584 597 c 0
 560 573 534 556 506 546 c 0
 493 541 476 539 454 538 c 1xca70
EndSplineSet
EndChar

StartChar: G
Encoding: 71 71 36
Width: 833
GlyphClass: 2
Flags: MW
HStem: -23 33<393 454> 117 38<390.5 409 369.5 430.5> 439 47<551.5 651> 722 39<304 316 273.5 343>
VStem: 43 156<349.5 453.5 349.5 453.5> 276 23<256 261> 300 100<507 649> 441 119<196 322.5> 559 101<650 727> 617 108<539.5 623> 636 155<256.5 326.5 256.5 331>
LayerCount: 2
Fore
SplineSet
409 729 m 1xfe20
 441 765 l 1
 460 750 l 1
 451 738 444 727 436 716 c 1
 463 698 489 674 514 646 c 1
 493 630 l 1
 468 656 444 677 419 693 c 1
 406 674 400 656 400 642 c 0
 400 613 417 574 451 525 c 2
 503 448 l 1
 540 471 l 2
 591 504 617 530 617 549 c 0xff40
 617 558 611 570 599 585 c 0
 572 617 559 641 559 659 c 0
 559 681 578 706 615 734 c 2
 651 762 l 1
 666 751 l 1
 663 739 l 2
 661 733 660 728 660 726 c 0xfe80
 660 717 671 701 693 677 c 0
 714 652 725 631 725 615 c 0xfe40
 725 590 710 564 679 538 c 0
 669 530 644 512 602 484 c 1
 614 485 624 486 632 486 c 0
 670 486 705 471 738 441 c 0
 773 409 791 360 791 293 c 0
 791 220 768 156 722 101 c 0
 688 61 643 30 587 8 c 0
 536 -13 482 -23 426 -23 c 0
 325 -23 239 5 170 61 c 0
 85 129 43 234 43 374 c 0
 43 533 81 644 156 707 c 0
 200 743 248 761 299 761 c 0
 333 761 369 750 409 729 c 1xfe20
391 708 m 1
 368 717 350 722 336 722 c 0
 272 722 231 682 212 602 c 0
 203 565 199 500 199 407 c 0
 199 292 212 204 237 144 c 0
 275 55 344 10 442 10 c 0
 571 10 636 99 636 277 c 0xff20
 636 385 609 439 556 439 c 0
 547 439 534 435 516 426 c 1
 545 383 560 342 560 303 c 0
 560 256 547 214 520 178 c 0
 491 137 453 117 408 117 c 0
 373 117 343 132 318 161 c 0
 296 187 282 218 276 256 c 1
 299 261 l 1
 315 190 346 155 393 155 c 0
 425 155 441 175 441 217 c 0
 441 247 426 283 397 325 c 2
 333 417 l 1
 311 456 300 491 300 523 c 0
 300 580 330 641 391 708 c 1
EndSplineSet
EndChar

StartChar: H
Encoding: 72 72 37
Width: 719
GlyphClass: 2
Flags: MW
HStem: -204 28<350.5 386 350.5 386> -32 104<279 373> 39 26<157 175.5 157 179.5> 521 20G 592 102<353.5 461> 715 20G<530 530> 728 20G
VStem: 9 78<102.5 180.5> 97 108<442.5 572> 201 35<-94.5 -75 -95 -55> 247 94<128.5 271> 554 124<161 323>
LayerCount: 2
Fore
SplineSet
268 667 m 1x9db0
 244 647 229 631 222 621 c 0
 210 604 205 584 205 560 c 0x9db0
 205 538 211 515 225 492 c 0
 231 481 245 461 267 433 c 1
 340 463 418 499 502 541 c 1
 542 521 572 502 590 485 c 0
 649 432 678 364 678 282 c 0
 678 207 651 140 596 79 c 0
 571 52 529 20 469 -16 c 0
 437 -36 410 -57 389 -80 c 1
 351 -48 317 -32 286 -32 c 0
 272 -32 261 -37 251 -47 c 0
 241 -56 236 -68 236 -82 c 0
 236 -108 251 -131 282 -150 c 0
 309 -167 336 -176 365 -176 c 0
 407 -176 450 -157 492 -119 c 1
 509 -134 l 1
 468 -181 417 -204 355 -204 c 0
 317 -204 282 -193 251 -169 c 0
 217 -144 201 -113 201 -76 c 0
 201 -34 216 1 246 29 c 0
 276 58 312 72 354 72 c 0xdd70
 392 72 435 55 485 21 c 1
 531 73 554 130 554 192 c 0
 554 248 538 301 507 350 c 0
 472 407 428 435 375 435 c 0
 352 435 321 427 281 411 c 1
 321 346 341 292 341 250 c 0
 341 194 324 146 289 104 c 0
 253 61 207 39 152 39 c 0
 113 39 79 51 52 74 c 0
 23 99 9 131 9 170 c 0
 9 191 15 208 27 223 c 0
 40 239 57 247 77 247 c 0
 95 247 109 241 121 228 c 0
 133 215 139 200 139 182 c 0
 139 156 125 136 99 123 c 0
 91 119 87 114 87 109 c 0
 87 96 97 84 117 76 c 0
 133 69 149 65 165 65 c 0
 186 65 205 72 222 86 c 0
 238 100 247 118 247 139 c 0
 247 164 232 197 204 239 c 2
 143 330 l 2
 112 375 97 420 97 465 c 0
 97 509 111 549 138 585 c 0
 158 610 190 639 235 672 c 2
 282 707 l 2
 297 717 312 731 330 748 c 1xbbb0
 374 712 413 694 447 694 c 0
 475 694 503 708 530 735 c 1
 546 724 l 1
 496 636 440 592 378 592 c 0
 329 592 292 617 268 667 c 1x9db0
EndSplineSet
EndChar

StartChar: I
Encoding: 73 73 38
Width: 666
GlyphClass: 2
Flags: MW
HStem: -208 36<374.5 386.5> 102 65<65 145.5> 376 26<177 202.5 177 204> 397 46<490.5 566> 469 93<505.5 589.5> 643 113<150 252.5>
VStem: 17 40<531 545.5 512 585> 20 21<57 59> 373 137<273.5 364.5> 532 123<-57.5 77> 611 25<580 637 580 637>
LayerCount: 2
Fore
SplineSet
241 409 m 1xeea0
 247 387 l 1
 229 380 212 376 196 376 c 0
 145 376 102 393 68 428 c 0
 34 462 17 505 17 557 c 0
 17 613 38 661 79 700 c 0
 119 737 168 756 225 756 c 0
 280 756 337 738 396 703 c 0
 427 685 464 654 506 610 c 0
 538 578 562 562 578 562 c 0
 601 562 612 580 611 616 c 2
 611 637 l 1
 634 637 l 1
 636 627 636 618 636 611 c 0
 636 549 616 507 577 484 c 0
 559 474 542 469 524 469 c 0
 487 469 441 489 385 529 c 2
 282 603 l 2
 239 630 200 643 165 643 c 0
 135 643 109 632 88 610 c 0
 68 587 57 561 57 530 c 0
 57 494 71 463 99 439 c 0
 126 414 159 402 195 402 c 0
 210 402 225 404 241 409 c 1xeea0
644 361 m 1
 625 348 l 1
 603 381 579 397 553 397 c 0
 542 397 532 393 523 386 c 0
 515 379 510 370 510 359 c 0
 510 346 526 318 556 276 c 0
 622 185 655 108 655 46 c 0
 655 -27 622 -89 554 -139 c 0
 493 -185 424 -208 349 -208 c 0
 282 -208 227 -190 184 -155 c 0
 138 -118 113 -66 109 0 c 2
 106 61 l 2
 102 88 92 102 75 102 c 0
 55 102 44 87 41 57 c 1
 20 59 l 1
 21 90 31 116 49 136 c 0
 69 157 94 167 125 167 c 0
 166 167 200 153 225 125 c 0
 248 100 262 65 267 22 c 2
 275 -52 l 2
 279 -81 287 -104 298 -122 c 0
 320 -155 353 -172 396 -172 c 0
 431 -172 463 -159 491 -133 c 0
 518 -106 532 -75 532 -40 c 0
 532 -5 503 52 444 132 c 0
 397 197 373 251 373 296 c 0
 373 335 386 369 412 399 c 0
 439 428 471 443 510 443 c 0xddc0
 569 443 614 416 644 361 c 1
EndSplineSet
EndChar

StartChar: J
Encoding: 74 74 39
Width: 666
GlyphClass: 2
Flags: MW
HStem: -208 36<374.5 386.5> 102 65<65 145.5> 376 26<177 202.5 177 204> 397 46<490.5 566> 469 93<505.5 589.5> 643 113<150 252.5>
VStem: 17 40<531 545.5 512 585> 20 21<57 59> 373 137<273.5 364.5> 532 123<-57.5 77> 611 25<580 637 580 637>
LayerCount: 2
Fore
SplineSet
241 409 m 1xeea0
 247 387 l 1
 229 380 212 376 196 376 c 0
 145 376 102 393 68 428 c 0
 34 462 17 505 17 557 c 0
 17 613 38 661 79 700 c 0
 119 737 168 756 225 756 c 0
 280 756 337 738 396 703 c 0
 427 685 464 654 506 610 c 0
 538 578 562 562 578 562 c 0
 601 562 612 580 611 616 c 2
 611 637 l 1
 634 637 l 1
 636 627 636 618 636 611 c 0
 636 549 616 507 577 484 c 0
 559 474 542 469 524 469 c 0
 487 469 441 489 385 529 c 2
 282 603 l 2
 239 630 200 643 165 643 c 0
 135 643 109 632 88 610 c 0
 68 587 57 561 57 530 c 0
 57 494 71 463 99 439 c 0
 126 414 159 402 195 402 c 0
 210 402 225 404 241 409 c 1xeea0
644 361 m 1
 625 348 l 1
 603 381 579 397 553 397 c 0
 542 397 532 393 523 386 c 0
 515 379 510 370 510 359 c 0
 510 346 526 318 556 276 c 0
 622 185 655 108 655 46 c 0
 655 -27 622 -89 554 -139 c 0
 493 -185 424 -208 349 -208 c 0
 282 -208 227 -190 184 -155 c 0
 138 -118 113 -66 109 0 c 2
 106 61 l 2
 102 88 92 102 75 102 c 0
 55 102 44 87 41 57 c 1
 20 59 l 1
 21 90 31 116 49 136 c 0
 69 157 94 167 125 167 c 0
 166 167 200 153 225 125 c 0
 248 100 262 65 267 22 c 2
 275 -52 l 2
 279 -81 287 -104 298 -122 c 0
 320 -155 353 -172 396 -172 c 0
 431 -172 463 -159 491 -133 c 0
 518 -106 532 -75 532 -40 c 0
 532 -5 503 52 444 132 c 0
 397 197 373 251 373 296 c 0
 373 335 386 369 412 399 c 0
 439 428 471 443 510 443 c 0xddc0
 569 443 614 416 644 361 c 1
EndSplineSet
EndChar

StartChar: K
Encoding: 75 75 40
Width: 644
GlyphClass: 2
Flags: MW
HStem: -23 22<152 166 152 175.5> -14 21G<506 506> 605 42<282 379.5> 719 34<321.5 371.5>
VStem: 16 94<28 95> 26 128<449 573> 221 79<66.5 175.5> 606 29<444 511.5>
LayerCount: 2
Fore
SplineSet
517 369 m 1xb7
 524 263 530 198 534 174 c 0
 543 127 561 104 588 104 c 0
 595 104 607 109 623 118 c 1
 634 97 l 1
 608 80 570 47 520 0 c 2
 506 -14 l 1x77
 453 6 418 39 401 86 c 0
 393 110 387 161 383 239 c 0
 381 283 373 320 358 351 c 1
 238 338 l 1
 260 304 276 275 284 253 c 0
 295 225 300 193 300 158 c 0
 300 105 289 62 266 31 c 0
 240 -5 201 -23 150 -23 c 0
 114 -23 84 -14 59 3 c 0
 30 23 16 50 16 85 c 0
 16 105 23 123 36 138 c 0
 49 153 66 161 86 161 c 0
 104 161 119 155 131 143 c 0
 144 131 150 116 150 98 c 0
 150 77 142 62 127 53 c 0
 116 46 110 39 110 33 c 0xbb
 110 23 116 15 127 8 c 0
 137 2 147 -1 157 -1 c 0
 175 -1 191 7 204 24 c 0
 215 40 221 57 221 76 c 0
 221 103 204 137 169 181 c 0
 121 241 89 287 71 317 c 0
 41 371 26 423 26 475 c 0
 26 558 57 626 119 679 c 0
 178 728 249 753 334 753 c 0
 421 753 493 728 548 677 c 0
 606 624 635 555 635 468 c 0
 635 453 634 433 632 409 c 1
 605 409 l 1
 606 444 l 2
 608 499 598 546 579 584 c 0
 557 625 525 658 482 683 c 0
 440 707 395 719 348 719 c 0
 295 719 250 704 213 673 c 0
 174 641 154 599 154 547 c 0
 154 521 163 487 180 446 c 1
 185 511 202 561 231 594 c 0
 262 629 305 647 358 647 c 0
 401 647 439 636 470 614 c 0
 506 589 524 556 524 515 c 0
 524 503 523 489 520 474 c 0
 517 459 516 448 516 441 c 0
 516 427 522 416 533 409 c 0
 537 407 549 402 569 395 c 1
 568 373 l 1
 517 369 l 1xb7
485 390 m 1
 450 393 426 403 412 418 c 0
 400 432 391 450 386 473 c 0
 384 480 382 500 377 535 c 0
 372 582 350 605 312 605 c 0
 252 605 215 542 201 415 c 1
 208 399 216 381 226 363 c 1
 485 390 l 1
EndSplineSet
EndChar

StartChar: L
Encoding: 76 76 41
Width: 615
GlyphClass: 2
Flags: MW
HStem: -23 101<394.5 517> 259 21<513.5 539> 732 24<297 332>
VStem: 37 23<41 59 41 73.5> 52 129<503.5 626.5> 194 102<240 379> 357 103<317 414> 457 121<518.5 620.5> 573 18<125 134>
LayerCount: 2
Fore
SplineSet
208 205 m 1xed
 240 202 272 192 305 176 c 0
 317 170 347 152 393 124 c 0
 442 93 479 78 503 78 c 0
 531 78 554 97 573 134 c 1
 591 125 l 1
 580 90 564 61 544 40 c 0
 505 -2 460 -23 411 -23 c 0
 378 -23 345 -14 309 4 c 2
 209 54 l 2
 155 82 118 95 97 95 c 0
 74 95 62 77 60 41 c 1
 37 41 l 1
 37 59 l 2xf480
 37 88 50 117 77 144 c 0
 101 170 134 189 175 202 c 1
 188 220 194 234 194 246 c 0
 194 266 187 285 172 304 c 2
 104 393 l 2
 69 438 52 482 52 525 c 0
 52 589 79 643 133 689 c 0
 185 734 243 756 307 756 c 0
 372 756 432 736 487 698 c 0
 548 655 578 603 578 541 c 0xed
 578 496 561 456 527 421 c 2
 484 377 l 2
 468 360 460 345 460 331 c 0
 460 303 486 286 539 280 c 1
 536 259 l 1
 491 259 451 271 416 294 c 0
 377 321 357 356 357 399 c 0xe6
 357 429 372 462 402 500 c 0
 439 547 457 581 457 603 c 0
 457 638 442 668 412 694 c 0
 382 719 350 732 314 732 c 0
 280 732 249 720 223 697 c 0
 195 672 181 643 181 610 c 0
 181 581 192 551 215 520 c 2
 275 438 l 2
 289 418 296 394 296 364 c 0
 296 330 288 300 272 274 c 0
 259 254 238 231 208 205 c 1xed
EndSplineSet
EndChar

StartChar: M
Encoding: 77 77 42
Width: 1028
GlyphClass: 2
Flags: MW
HStem: -22 21G<507 507> 227 23<71 75> 687 53<757.5 848> 698 43<163 256>
VStem: 35 74<538 644> 145 92<312 414.5> 292 138<329.5 389.5 329.5 410.5> 567 140 789 131<216.5 229> 822 132<505 580> 822 144<580 644.5>
LayerCount: 2
Fore
SplineSet
673 646 m 1xdf20
 696 679 718 702 738 716 c 0
 763 732 793 740 829 740 c 0
 867 740 898 731 923 712 c 0
 952 691 966 663 966 626 c 0xef20
 966 612 965 598 962 583 c 2
 957 551 l 2
 955 540 954 529 954 519 c 0xef40
 954 491 970 473 1003 465 c 1
 1003 447 l 1
 968 436 943 405 931 355 c 0
 924 326 920 285 920 231 c 0
 920 202 923 173 929 144 c 0
 939 101 953 78 972 77 c 0
 974 77 979 78 986 82 c 2
 1002 89 l 1
 1013 71 l 1
 974 44 936 13 896 -21 c 1
 852 4 822 32 807 64 c 0
 795 91 789 132 789 188 c 0xef80
 789 270 798 326 815 356 c 0
 834 388 880 420 953 455 c 1
 864 465 820 506 822 580 c 2
 823 633 l 2
 823 642 821 651 816 660 c 0
 808 678 794 687 773 687 c 0
 742 687 715 663 692 615 c 1
 702 546 707 476 707 405 c 0
 707 327 704 271 699 238 c 0
 689 171 666 122 630 91 c 2
 556 28 l 2
 547 21 531 4 507 -22 c 1
 407 66 l 1
 344 6 l 1
 321 27 l 1
 463 168 l 1
 560 77 l 1
 565 102 567 133 567 168 c 2
 565 282 l 1
 561 524 l 2
 559 584 554 626 544 648 c 0
 533 674 515 687 490 687 c 0xef20
 450 687 427 658 420 601 c 1
 427 493 430 414 430 365 c 0
 430 294 422 239 406 201 c 0
 389 161 354 118 303 73 c 2
 251 27 l 2
 243 20 226 3 200 -23 c 1
 108 63 l 1
 48 3 l 1
 29 24 l 1
 168 161 l 1
 258 72 l 1
 273 89 282 104 285 120 c 0
 290 144 292 218 292 341 c 0
 292 480 286 569 274 607 c 0
 266 632 254 653 237 670 c 0
 217 689 195 698 171 698 c 0
 155 698 141 692 128 679 c 0
 115 667 109 652 109 636 c 0
 109 616 117 596 132 575 c 0
 134 571 149 554 176 523 c 0
 216 477 237 434 237 395 c 0
 237 354 219 316 184 280 c 0
 161 257 125 239 75 227 c 1
 71 250 l 1
 97 258 115 266 124 273 c 0
 138 284 145 301 145 323 c 0
 145 342 140 360 129 377 c 0
 124 385 112 400 93 423 c 0
 54 469 35 515 35 561 c 0
 35 614 55 657 96 692 c 0
 135 725 181 741 235 741 c 0
 277 741 310 733 334 716 c 0
 357 700 377 672 393 632 c 1
 426 706 473 742 535 742 c 0
 597 742 643 710 673 646 c 1xdf20
EndSplineSet
EndChar

StartChar: N
Encoding: 78 78 43
Width: 756
GlyphClass: 2
Flags: MW
HStem: -22 21G<251 251> 252 23<96 118.5> 450 22<733 733> 702 40<167 268.5> 704 45<510.5 575.5>
VStem: 29 80<529.5 647.5> 166 88<315.5 409> 305 133<175.5 376.5> 509 134<198 252.5> 563 125<506.5 587.5> 569 134<647 647.5 619.5 656.5>
LayerCount: 2
Fore
SplineSet
399 619 m 1xf720
 418 662 437 693 456 712 c 0
 481 737 514 749 555 749 c 0
 596 749 630 739 657 720 c 0
 687 698 703 667 703 628 c 0xef20
 703 611 700 589 694 563 c 0
 690 546 688 532 688 521 c 0xef40
 688 492 703 476 733 472 c 1
 733 450 l 1
 673 441 643 376 643 256 c 0
 643 140 662 81 701 78 c 0
 705 78 715 82 730 90 c 1
 739 70 l 1
 697 41 657 10 617 -22 c 1
 574 5 546 33 534 60 c 0
 517 97 509 147 509 209 c 0xef80
 509 296 524 355 554 387 c 0
 575 410 620 435 690 461 c 1
 648 465 617 476 597 493 c 0
 574 512 563 542 563 582 c 0xef40
 563 593 564 605 566 620 c 0
 568 635 569 645 569 649 c 0
 569 664 565 677 557 688 c 0
 549 699 537 704 523 704 c 0xef20
 498 704 476 690 456 662 c 0
 446 647 434 622 418 586 c 1
 431 493 438 411 438 342 c 0
 438 267 420 200 385 143 c 0
 370 117 325 62 251 -22 c 1
 126 71 l 1
 71 11 l 1
 49 31 l 1
 177 171 l 1
 297 77 l 1
 302 122 305 160 305 191 c 2
 304 264 l 1
 300 387 l 2
 296 518 278 609 248 659 c 0
 230 688 207 702 177 702 c 0
 157 702 141 696 128 685 c 0
 115 673 109 657 109 638 c 0
 109 612 125 582 159 547 c 0
 204 499 229 471 234 464 c 0
 247 443 254 420 254 398 c 0
 254 359 238 325 206 296 c 0
 174 267 138 252 99 252 c 1
 96 275 l 1
 143 283 166 301 166 330 c 0
 166 345 160 359 147 372 c 0
 143 376 131 387 110 402 c 0
 56 443 29 497 29 562 c 0
 29 613 49 656 91 691 c 0
 130 725 176 742 228 742 c 0
 309 742 366 701 399 619 c 1xf720
EndSplineSet
EndChar

StartChar: O
Encoding: 79 79 44
Width: 811
GlyphClass: 2
Flags: MW
HStem: -22 121<423 579.5> 68 122<121 250> 200 47<103 168> 602 128<183.5 336.5> 632 146<409.5 537.5> 743 20G<142 142>
VStem: 24 20<321.5 345> 59 22<22 26> 61 91<489 609.5> 165 119<284 373.5> 735 33<322 389.5>
LayerCount: 2
Fore
SplineSet
184 651 m 1x3360
 162 637 152 620 152 599 c 0
 152 573 163 548 184 524 c 2
 242 459 l 2
 270 428 284 393 284 354 c 0
 284 315 271 280 247 250 c 0
 220 217 187 200 149 200 c 0
 112 200 81 215 58 243 c 0
 35 270 24 303 24 340 c 1
 44 345 l 1
 61 280 86 247 120 247 c 0
 132 247 143 251 152 260 c 0
 161 268 165 278 165 290 c 0
 165 305 155 325 136 350 c 0
 86 415 61 468 61 510 c 0
 61 564 97 617 169 668 c 1
 140 694 123 723 118 755 c 1
 142 763 l 1
 157 741 174 730 193 730 c 0x36e0
 206 730 221 733 239 738 c 2
 304 757 l 2
 350 771 391 778 428 778 c 0
 492 778 551 757 605 717 c 0
 654 679 694 630 723 569 c 0
 753 504 768 436 768 362 c 0
 768 233 726 131 641 57 c 0
 581 4 519 -22 455 -22 c 0xaae0
 391 -22 316 -2 229 39 c 0
 188 58 156 68 131 68 c 0
 111 68 94 53 81 22 c 1
 59 26 l 1
 68 90 101 138 160 169 c 0
 185 183 210 190 234 190 c 0x6360
 266 190 308 180 359 159 c 2
 481 109 l 2
 504 103 527 99 549 99 c 0
 610 99 657 128 691 185 c 0
 720 234 735 290 735 354 c 0
 735 425 714 488 673 542 c 0
 629 602 572 632 503 632 c 0xab60
 483 632 466 630 452 626 c 2
 384 609 l 2
 365 604 346 602 327 602 c 0
 281 602 233 618 184 651 c 1x3360
EndSplineSet
EndChar

StartChar: P
Encoding: 80 80 45
Width: 756
GlyphClass: 2
Flags: MW
HStem: -22 91<528 643> 0 21G<137 137> 73 111<194.5 250.5> 238 24<81.5 96.5 63 104.5> 710 34<193 197.5>
VStem: 33 76<531.5 652> 164 80<299.5 416> 282 137<155 179> 498 107<326.5 408.5> 548 123<510 603> 548 140<576 646> 693 47<117.5 230.5>
LayerCount: 2
Fore
SplineSet
394 615 m 1x7f90
 421 702 475 745 555 745 c 0
 591 745 622 735 647 714 c 0
 674 692 688 664 688 628 c 0x7f30
 688 616 685 598 680 574 c 0
 674 550 671 533 671 521 c 0x7f50
 671 499 692 478 732 460 c 1
 732 438 l 1
 732 438 724 437 710 436 c 0
 675 433 655 431 651 430 c 0
 620 424 605 415 605 402 c 0
 605 391 613 380 628 370 c 2
 676 337 l 2
 719 308 740 262 740 199 c 0
 740 126 715 69 665 28 c 0
 623 -5 582 -22 540 -22 c 0xbf90
 516 -22 475 -10 416 14 c 1
 405 -50 l 2
 395 -112 384 -160 374 -195 c 1
 343 -195 l 1
 332 -168 323 -134 315 -94 c 2
 287 50 l 1
 255 66 229 73 212 73 c 0
 177 73 152 49 137 0 c 1
 118 5 l 1
 117 24 l 2
 116 63 130 100 157 135 c 0
 184 168 214 184 246 184 c 0
 255 184 266 182 282 179 c 1
 281 247 l 1
 280 552 l 2
 280 589 273 622 258 652 c 0
 240 691 214 710 181 710 c 0
 163 710 146 703 131 690 c 0
 117 677 109 661 109 643 c 0
 109 616 118 593 136 574 c 2
 210 495 l 2
 233 471 244 437 244 395 c 0
 244 352 228 315 196 284 c 0
 164 253 126 238 83 238 c 0
 80 238 73 238 63 240 c 1
 63 262 l 1
 130 262 164 281 164 318 c 0
 164 336 152 356 127 379 c 0
 94 410 71 435 59 454 c 0
 42 481 33 513 33 550 c 0
 33 607 50 653 85 690 c 0
 119 726 165 744 221 744 c 0
 266 744 304 733 336 710 c 0
 363 691 382 660 394 615 c 1x7f90
419 155 m 1
 524 103 l 2
 573 80 611 69 635 69 c 0
 651 69 664 74 676 85 c 0
 688 97 693 110 693 125 c 0
 693 148 675 170 640 192 c 2
 571 235 l 2
 522 266 498 304 498 349 c 0xbf90
 498 381 516 408 551 430 c 0
 582 449 631 458 698 458 c 1
 647 469 611 482 591 498 c 0
 562 519 548 553 548 599 c 0
 548 607 549 618 550 631 c 0
 552 646 553 657 553 663 c 0
 554 676 550 687 542 696 c 0
 534 705 524 709 511 709 c 0
 479 709 454 688 436 645 c 0
 426 623 421 578 421 509 c 2
 419 155 l 1
EndSplineSet
EndChar

StartChar: Q
Encoding: 81 81 46
Width: 829
GlyphClass: 2
Flags: MW
HStem: -23 98<750 771.5> -22 116<433.5 588.5> 63 127<116.5 254> 200 47<103.5 168.5> 602 129<188.5 337> 632 145<410 538> 742 20G<142 142>
VStem: 24 20<338 345> 61 91<489 605.5> 64 19<19 28 19 39> 165 121<284 374.5> 690 29 729 36<343 392.5> 800 20<109.5 125>
LayerCount: 2
Fore
SplineSet
186 654 m 1x197c
 163 632 152 613 152 598 c 0
 152 573 163 549 185 524 c 2
 242 459 l 2
 271 426 286 392 286 357 c 0
 286 318 273 283 248 251 c 0
 221 217 188 200 149 200 c 0
 112 200 82 214 59 242 c 0
 38 267 26 299 24 338 c 1
 44 345 l 1
 60 280 86 247 121 247 c 0
 133 247 143 251 152 260 c 0
 161 268 165 278 165 290 c 0
 165 305 155 325 136 350 c 0
 86 415 61 468 61 510 c 0
 61 565 97 618 170 668 c 1
 143 696 127 726 122 757 c 1
 142 762 l 1
 157 741 177 731 200 731 c 0x1bbc
 211 731 223 733 239 738 c 2
 304 757 l 2
 348 770 390 777 430 777 c 0
 529 777 611 733 676 646 c 0
 736 566 765 475 765 373 c 0
 765 313 750 239 719 153 c 1
 721 101 736 75 764 75 c 0
 785 75 797 92 800 125 c 1
 820 125 l 1
 820 94 817 65 810 38 c 0
 799 -3 783 -23 760 -23 c 0x95bc
 714 -23 690 15 690 91 c 0
 690 100 691 110 692 121 c 1
 650 73 616 41 590 22 c 0
 549 -7 505 -22 458 -22 c 0x51bc
 409 -22 333 -2 229 39 c 0
 189 55 155 63 128 63 c 0
 105 63 90 48 83 19 c 1
 64 21 l 1
 64 28 l 1
 64 39 l 2
 66 77 86 112 123 144 c 0
 159 175 196 190 235 190 c 0x317c
 273 190 318 179 370 157 c 2
 461 118 l 2
 498 102 531 94 561 94 c 0
 616 94 659 126 690 188 c 0
 716 239 729 295 729 356 c 0
 729 429 710 491 672 544 c 0
 629 603 573 632 503 632 c 0x557c
 483 632 466 630 452 626 c 2
 384 609 l 2
 365 604 346 602 328 602 c 0
 275 602 228 619 186 654 c 1x197c
EndSplineSet
EndChar

StartChar: R
Encoding: 82 82 47
Width: 784
GlyphClass: 2
Flags: MW
HStem: -24 32<221 233 217 318.5> -10 21G 273 22<102 115 102 104> 726 42<539 549.5> 733 38<178.5 266.5>
VStem: 39 80<563.5 674> 66 116<38.5 125.5> 178 77<336.5 446> 304 159<351 456.5> 566 127<509 574> 582 139<646 696.5>
LayerCount: 2
Fore
SplineSet
642 432 m 1x30c0
 662 411 674 394 679 380 c 0
 683 370 686 349 688 317 c 2
 697 213 l 2
 703 140 715 104 735 104 c 0
 741 104 750 108 760 117 c 1
 773 96 l 1
 736 63 701 27 668 -10 c 1x70c0
 611 27 577 71 567 122 c 0
 563 144 558 185 553 247 c 0
 546 324 539 371 531 387 c 0
 522 404 502 412 471 410 c 2
 462 410 l 1
 463 351 l 2
 467 101 394 -24 243 -24 c 0xa0c0
 199 -24 160 -12 125 11 c 0
 86 38 66 72 66 114 c 0
 66 137 74 158 91 176 c 0
 108 194 128 203 151 203 c 0
 171 203 189 196 206 182 c 0
 223 167 232 150 232 131 c 0
 232 106 224 88 209 75 c 2
 187 56 l 2
 184 53 182 49 182 43 c 0x62c0
 182 34 186 26 195 19 c 0
 203 11 212 8 222 8 c 0
 244 8 262 22 276 50 c 0
 290 79 299 139 303 230 c 0
 304 255 304 317 304 416 c 0
 304 497 300 560 292 603 c 0
 274 689 239 733 188 733 c 0
 169 733 153 726 139 713 c 0
 126 700 119 683 119 665 c 0
 119 646 129 625 148 601 c 2
 198 549 l 2
 236 509 255 467 255 425 c 0
 255 388 241 354 213 322 c 0
 184 289 152 273 115 273 c 2
 104 273 l 1
 102 295 l 1
 153 301 178 320 178 353 c 0
 178 375 169 393 151 409 c 2
 103 452 l 2
 60 490 39 536 39 591 c 0
 39 646 60 690 102 724 c 0
 141 755 189 771 245 771 c 0xad80
 288 771 325 762 354 743 c 0
 380 727 405 699 430 660 c 1
 456 732 504 768 574 768 c 0
 611 768 643 759 672 740 c 0
 705 719 721 691 721 656 c 0x35a0
 721 636 718 618 713 600 c 2
 698 552 l 2
 695 541 693 531 693 522 c 0
 693 496 715 478 759 469 c 1
 759 447 l 1
 642 432 l 1x30c0
685 459 m 1
 647 469 620 480 604 492 c 0
 578 510 566 534 566 565 c 0x30c0
 566 583 568 602 573 623 c 0
 579 648 582 668 582 682 c 0x30a0
 582 711 566 726 533 726 c 0
 493 726 466 692 452 625 c 1
 458 544 461 481 461 435 c 1
 685 459 l 1
EndSplineSet
EndChar

StartChar: S
Encoding: 83 83 48
Width: 796
GlyphClass: 2
Flags: MW
HStem: -22 142<407.5 462> 250 133<305 377.5> 342 125<539 658> 510 26<317.5 341> 550 125<579.5 676.5> 616 141<271 407> 714 20G<732 732>
VStem: 43 33<348 399.5> 193 53<387.5 450.5> 726 28<239 274>
LayerCount: 2
Fore
SplineSet
426 495 m 1xd1c0
 410 478 l 1
 381 499 354 510 328 510 c 0
 307 510 289 504 272 491 c 0
 255 478 246 461 246 440 c 0
 246 422 253 408 267 397 c 0
 280 388 296 383 314 383 c 0xd1c0
 337 383 365 393 398 412 c 0
 461 449 516 467 562 467 c 0
 610 467 653 448 692 410 c 0
 733 371 754 322 754 263 c 0
 754 177 718 107 647 53 c 0
 582 3 506 -22 418 -22 c 0
 356 -22 299 -9 246 16 c 0
 190 42 146 80 112 128 c 0
 66 194 43 274 43 369 c 0
 43 430 53 487 74 540 c 0
 97 598 131 645 174 681 c 0
 235 732 303 757 376 757 c 0xb5c0
 438 757 514 735 604 692 c 0
 629 681 649 675 664 675 c 0
 689 675 712 694 732 734 c 1
 753 729 l 1
 740 682 722 643 698 611 c 0
 667 570 631 550 590 550 c 0x9bc0
 569 550 547 554 524 561 c 2
 404 601 l 2
 373 611 339 616 303 616 c 0
 239 616 185 595 142 552 c 0
 98 510 76 457 76 393 c 0
 76 303 119 233 204 183 c 0
 275 141 359 120 456 120 c 0
 513 120 568 130 621 150 c 0
 691 177 726 215 726 263 c 0
 726 285 718 303 703 319 c 0
 688 334 669 342 647 342 c 0xb5c0
 618 342 581 332 538 311 c 0
 473 280 438 264 432 262 c 0
 410 254 388 250 367 250 c 0
 321 250 281 265 247 295 c 0
 211 327 193 365 193 410 c 0
 193 447 207 477 235 501 c 0
 262 524 293 536 330 536 c 0
 371 536 403 522 426 495 c 1xd1c0
EndSplineSet
EndChar

StartChar: T
Encoding: 84 84 49
Width: 739
GlyphClass: 2
Flags: MW
HStem: -23 125<485.5 606> -1 21G<139 139> 80 115<187.5 294.5> 396 26<154 162> 509 123<510 628.5> 620 129<179.5 278>
VStem: 39 41<510.5 536 497 579.5> 116 23<-1 2> 272 103<407 539> 395 116<218.5 330> 676 20<696 700> 709 16<183 192>
LayerCount: 2
Fore
SplineSet
395 171 m 1x1bf0
 447 147 l 2
 510 117 554 102 578 102 c 0
 634 102 678 132 709 192 c 1
 725 183 l 1
 710 131 683 85 644 45 c 0
 600 0 553 -23 503 -23 c 0x9bf0
 468 -23 433 -15 397 2 c 2
 292 51 l 2
 250 70 221 80 205 80 c 0
 170 80 148 53 139 -1 c 1
 116 2 l 1
 124 55 138 94 156 119 c 0
 193 170 236 195 284 195 c 0
 305 195 333 190 366 180 c 1
 385 196 395 211 395 226 c 0
 395 246 383 268 358 293 c 2
 304 349 l 2
 283 374 272 397 272 417 c 0
 272 457 302 508 361 570 c 1
 293 604 237 620 195 620 c 0
 164 620 138 611 116 594 c 0
 92 575 80 551 80 521 c 0
 80 473 107 440 162 422 c 1
 154 396 l 1
 77 419 39 471 39 550 c 0
 39 609 59 656 99 694 c 0
 138 731 187 749 246 749 c 0x77f0
 310 749 391 725 488 676 c 0
 548 647 589 632 612 632 c 0
 645 632 666 654 676 700 c 1
 696 696 l 1
 689 640 672 597 646 567 c 0
 611 528 573 509 530 509 c 0
 490 509 442 526 385 561 c 1
 378 551 375 542 375 536 c 0
 375 514 398 480 443 431 c 0
 489 382 511 344 511 316 c 0
 511 283 497 250 467 218 c 0
 452 201 428 186 395 171 c 1x1bf0
EndSplineSet
EndChar

StartChar: U
Encoding: 85 85 50
Width: 647
GlyphClass: 2
Flags: MW
HStem: -21 20G 717 20G<467 467>
VStem: 90 145<141 612 612 615.5> 417 146<81 133 128.5 605>
LayerCount: 2
Fore
SplineSet
417 180 m 1
 417 605 l 2
 417 612 413 619 404 626 c 0
 396 634 387 637 380 637 c 0
 371 637 358 631 342 618 c 1
 324 642 l 1
 352 660 l 1
 467 737 l 1
 487 723 l 2
 534 688 577 665 614 654 c 1
 613 634 l 1
 595 630 583 626 577 621 c 0
 568 614 564 602 564 586 c 2
 563 133 l 2
 563 124 567 115 574 105 c 0
 582 95 590 90 599 91 c 0
 605 91 614 97 625 107 c 1
 639 91 l 1
 598 55 561 17 525 -22 c 1
 490 0 l 2
 462 16 443 31 433 43 c 0
 423 56 417 72 417 90 c 2
 416 149 l 1
 276 33 l 1
 234 -4 l 1
 215 -21 l 1
 155 14 98 41 43 63 c 1
 43 80 l 1
 61 86 73 93 79 101 c 0
 86 110 90 124 90 141 c 2
 90 612 l 2
 90 619 87 625 80 632 c 0
 74 639 67 643 61 643 c 0
 58 643 47 639 29 632 c 1
 19 655 l 1
 74 685 119 713 156 739 c 1
 208 715 235 690 235 662 c 2
 235 118 l 1
 292 82 l 1
 417 180 l 1
EndSplineSet
EndChar

StartChar: V
Encoding: 86 86 51
Width: 805
GlyphClass: 2
Flags: MW
HStem: -22 77<453.5 594> 137 94<143.5 243> 496 22<740.5 752> 735 33<223 226>
VStem: 39 78<577 673> 77 24<56 60> 174 81<357 456.5> 317 144<303 463.5> 581 113<558.5 617> 584 128<666 672 647 677> 683 84<147 283.5>
LayerCount: 2
Fore
SplineSet
282 227 m 1xf720
 305 249 317 281 317 325 c 0
 317 465 309 571 294 644 c 0
 281 704 250 735 202 735 c 0
 182 735 164 728 146 714 c 0
 127 699 117 682 117 664 c 0
 117 639 130 614 156 589 c 2
 214 532 l 2
 241 505 255 474 255 439 c 0
 255 409 242 380 217 351 c 0
 190 319 153 300 107 293 c 1
 104 315 l 1
 151 321 174 340 174 374 c 0
 174 393 161 414 135 436 c 2
 94 472 l 2
 79 486 68 500 60 514 c 0
 46 540 39 565 39 589 c 0
 39 642 62 686 106 720 c 0
 148 752 196 768 250 768 c 0
 302 768 345 755 380 728 c 0
 395 716 411 694 428 663 c 1
 447 700 466 726 483 741 c 0
 505 760 535 769 571 769 c 0
 610 769 642 760 668 741 c 0
 697 720 712 691 712 653 c 0xfb40
 712 641 710 628 706 616 c 2
 698 591 l 2
 695 582 694 575 694 570 c 0xf380
 694 547 713 530 752 518 c 1
 751 496 l 1
 730 496 709 493 688 487 c 0
 658 478 643 466 642 450 c 0
 641 437 661 413 702 377 c 0
 745 340 767 303 767 264 c 0
 767 217 747 167 707 112 c 0
 680 75 648 44 609 20 c 0
 565 -8 523 -22 482 -22 c 0
 425 -22 367 0 309 45 c 2
 250 89 l 2
 209 121 177 137 155 137 c 0
 132 137 114 110 101 56 c 1
 77 60 l 1
 96 174 150 231 238 231 c 0
 248 231 263 230 282 227 c 1xf720
690 507 m 1
 618 521 581 556 581 614 c 0xf380
 581 620 582 629 583 641 c 0
 583 654 584 663 584 669 c 0xf340
 584 685 580 699 573 711 c 0
 565 725 553 732 538 732 c 0
 501 732 471 699 446 633 c 1
 456 548 461 485 461 442 c 0
 461 382 450 335 428 302 c 0
 405 267 366 239 311 219 c 1
 341 202 373 179 409 148 c 0
 481 86 538 55 580 55 c 0
 608 55 632 66 652 87 c 0
 673 108 683 133 683 161 c 0xf320
 683 197 660 233 613 269 c 0
 562 307 537 343 537 378 c 0
 537 415 554 445 588 469 c 0
 615 488 649 500 690 507 c 1
EndSplineSet
EndChar

StartChar: W
Encoding: 87 87 52
Width: 1002
GlyphClass: 2
Flags: MW
HStem: -24 88<691.5 829.5> 123 101<88 179.5> 278 21<72 77> 714 45<469 492.5>
VStem: 32 71<557 663> 39 22<69 102.5> 140 81<353 456.5> 285 138<446 511 437.5 569> 507 80<497 629.5> 599 107<209.5 344.5> 766 115<335 424.5> 795 126<651 651> 903 73<134.5 252>
LayerCount: 2
Fore
SplineSet
370 696 m 1xfbc0
 409 738 449 759 489 759 c 0
 532 759 569 737 602 693 c 1
 670 739 729 762 779 762 c 0
 818 762 851 752 877 731 c 0
 907 709 921 679 921 641 c 0xfbd0
 921 628 919 613 915 594 c 0
 910 574 907 557 907 544 c 0
 907 520 927 500 967 484 c 1
 966 461 l 1
 947 458 l 2
 903 451 881 436 881 413 c 0
 881 401 893 382 917 355 c 0
 944 324 961 304 965 296 c 0
 972 281 976 263 976 241 c 0
 976 181 951 125 902 73 c 0
 878 47 848 25 812 6 c 0
 774 -14 738 -24 706 -24 c 0
 677 -24 647 -16 617 -1 c 2
 554 30 l 1
 520 45 l 1
 465 1 416 -21 370 -21 c 0
 337 -21 304 -12 272 7 c 0
 255 17 227 38 190 68 c 0
 146 105 115 123 98 123 c 0
 78 123 66 105 61 69 c 1
 39 73 l 1xf7e8
 39 132 62 176 109 205 c 0
 130 218 152 224 174 224 c 0
 185 224 200 222 219 218 c 1
 239 235 252 254 260 275 c 0
 277 324 285 397 285 495 c 0
 285 643 248 717 173 717 c 0
 155 717 139 711 125 700 c 0
 110 687 103 672 103 654 c 0
 103 636 115 614 138 590 c 0
 165 563 184 541 195 524 c 0
 212 497 221 470 221 443 c 0
 221 398 204 358 170 324 c 0
 150 305 119 290 77 278 c 1
 72 299 l 1
 118 313 140 336 140 370 c 0
 140 388 136 402 126 412 c 2
 79 462 l 2
 48 496 32 535 32 579 c 0
 32 629 52 672 90 707 c 0
 128 740 172 757 223 757 c 0
 277 757 326 737 370 696 c 1xfbc0
581 669 m 1
 544 699 509 714 476 714 c 0
 446 714 416 701 386 674 c 1
 411 616 423 549 423 473 c 0
 423 402 410 346 383 308 c 0
 358 272 312 238 245 206 c 1
 270 187 285 175 290 170 c 2
 343 121 l 2
 380 86 413 69 443 69 c 0
 481 69 518 87 554 123 c 0
 584 153 599 189 599 230 c 0
 599 258 593 286 580 312 c 2
 520 440 l 2
 511 458 507 482 507 512 c 0
 507 544 514 572 527 598 c 0
 538 618 556 642 581 669 c 1
916 474 m 1
 874 484 845 495 829 509 c 0
 802 531 789 556 791 583 c 2
 795 651 l 2xf3d0
 796 663 794 674 789 686 c 0
 780 707 759 718 728 718 c 0
 696 718 666 709 637 690 c 0
 604 670 587 644 587 615 c 0
 587 591 598 561 620 525 c 2
 675 433 l 2
 696 392 706 358 706 331 c 0
 706 279 675 220 613 154 c 1
 640 143 662 131 681 120 c 0
 716 97 738 85 746 81 c 0
 769 70 793 64 818 64 c 0
 841 64 861 72 878 87 c 0
 895 103 903 123 903 146 c 0
 903 169 894 191 874 212 c 0
 871 215 852 231 816 261 c 0
 783 289 766 319 766 351 c 0xf3e8
 766 387 783 416 816 437 c 0
 835 448 868 460 916 474 c 1
EndSplineSet
EndChar

StartChar: X
Encoding: 88 88 53
Width: 611
GlyphClass: 2
Flags: MW
HStem: -22 49<110 180.5> 321 118<173 241> 588 169<474 534.5> 745 20G<177 177>
VStem: 13 123<41 95.5> 119 29 243 143<279 322> 465 131<651.5 696.5> 483 27<487 487>
LayerCount: 2
Fore
SplineSet
382 440 m 1xe7
 429 439 l 2
 448 439 462 442 469 448 c 0
 477 455 481 468 483 487 c 1
 510 487 l 1
 507 473 505 456 501 436 c 0
 493 382 485 351 476 341 c 0
 464 327 434 320 386 320 c 1
 386 238 399 187 426 165 c 0
 439 153 457 143 479 132 c 0
 504 120 524 115 538 115 c 0
 551 116 568 129 587 154 c 1
 606 138 l 1
 483 -23 l 1
 430 -9 391 5 365 20 c 0
 329 40 299 68 275 105 c 1
 261 67 245 40 225 22 c 0
 193 -7 159 -22 125 -22 c 0
 95 -22 69 -11 47 10 c 0
 24 31 13 56 13 84 c 0xea80
 13 107 20 126 33 141 c 0
 47 156 64 164 87 164 c 0
 106 164 122 158 135 146 c 0
 148 135 154 120 154 101 c 0
 154 88 152 78 148 71 c 2xe6
 139 57 l 2
 137 54 136 51 136 48 c 0xea
 136 34 146 27 167 27 c 0
 194 27 215 43 227 76 c 0
 239 112 245 167 244 243 c 2
 243 322 l 1
 179 321 l 2
 167 321 159 319 155 314 c 0
 153 311 150 302 148 289 c 0
 147 285 146 280 144 272 c 1
 119 273 l 1
 125 328 l 2
 130 378 139 409 150 420 c 0
 163 433 193 439 241 439 c 1
 241 481 241 507 240 516 c 0
 236 549 228 573 214 586 c 0
 203 597 189 606 172 616 c 0
 152 626 136 632 124 632 c 0
 109 632 91 615 68 582 c 1
 47 598 l 1
 177 765 l 1xd6
 224 752 259 738 283 723 c 0
 314 704 339 675 357 639 c 1
 371 677 387 705 405 723 c 0
 427 745 456 757 492 757 c 0
 521 757 545 748 565 731 c 0
 586 714 596 690 596 662 c 0
 596 641 589 623 576 609 c 0
 562 595 545 588 524 588 c 0
 505 588 489 594 476 606 c 0
 463 618 457 633 457 652 c 0
 457 661 458 668 460 673 c 2
 464 683 l 2
 465 686 465 689 465 692 c 0
 465 701 460 705 449 706 c 0
 433 707 418 696 405 675 c 0
 389 651 382 572 382 440 c 1xe7
EndSplineSet
EndChar

StartChar: Y
Encoding: 89 89 54
Width: 783
GlyphClass: 2
Flags: MW
HStem: -214 31<321.5 359.5> -21 21G<355 355> 242 22<85 104 85 85> 716 40<171 251.5>
VStem: 26 74<524 645> 103 147<-124.5 -63.5> 172 90<302 405> 309 145<340 470.5> 578 162<293 417>
LayerCount: 2
Fore
SplineSet
270 173 m 1xfd80
 331 153 387 125 436 87 c 1
 493 136 l 1
 509 122 l 1
 355 -21 l 1
 304 14 266 39 241 52 c 0
 197 76 155 91 114 99 c 1
 115 117 l 1
 192 155 242 189 265 218 c 0
 294 256 309 307 309 373 c 0
 309 421 306 471 299 524 c 0
 290 593 277 641 260 668 c 0
 241 700 215 716 182 716 c 0
 160 716 141 708 125 691 c 0
 108 675 100 656 100 634 c 0
 100 606 124 573 171 532 c 0
 232 481 262 430 262 380 c 0
 262 340 245 306 213 279 c 0
 182 255 146 242 104 242 c 2
 85 242 l 1
 83 264 l 1
 142 264 172 283 172 321 c 0xfb80
 172 336 168 347 160 354 c 2
 88 413 l 2
 47 447 26 494 26 554 c 0
 26 612 45 660 84 698 c 0
 124 737 172 756 230 756 c 0
 273 756 308 747 334 729 c 0
 359 713 382 685 405 646 c 1
 420 684 434 710 448 725 c 0
 467 745 494 755 529 755 c 0
 605 755 662 707 699 611 c 0
 726 541 740 462 740 372 c 0
 740 214 716 89 669 -1 c 0
 636 -66 588 -118 526 -156 c 0
 464 -195 396 -214 323 -214 c 0
 272 -214 226 -203 183 -182 c 0
 130 -156 103 -120 103 -74 c 0
 103 -53 110 -35 124 -21 c 0
 138 -6 155 1 176 1 c 0
 201 1 222 -10 238 -31 c 0
 249 -46 254 -58 253 -67 c 2
 250 -122 l 2
 250 -127 251 -132 254 -137 c 0
 270 -168 299 -183 344 -183 c 0
 395 -183 443 -167 486 -134 c 0
 526 -104 551 -64 562 -14 c 0
 570 26 575 129 578 293 c 2
 580 482 l 1
 575 585 l 2
 570 672 547 717 506 719 c 0
 485 721 467 708 452 683 c 0
 445 670 437 648 427 617 c 1
 445 553 454 496 454 445 c 0
 454 371 440 315 413 276 c 0
 388 241 340 207 270 173 c 1xfd80
EndSplineSet
EndChar

StartChar: Z
Encoding: 90 90 55
Width: 672
GlyphClass: 2
Flags: MW
HStem: -217 34<343.5 367> -27 21G<49 77> -6 65<68 162.5> 281 40<300 329.5 300 345> 712 41<297.5 308>
VStem: 96 24<575 584> 124 112<357.5 436.5> 442 151<493.5 543.5> 477 156<12 52>
LayerCount: 2
Fore
SplineSet
411 318 m 1xff
 469 310 516 290 551 257 c 0
 605 204 633 139 633 60 c 0
 633 -36 596 -108 521 -158 c 0
 462 -197 400 -217 334 -217 c 0
 284 -217 238 -207 198 -187 c 0
 150 -163 120 -129 108 -84 c 2
 98 -39 l 2
 90 -17 82 -6 72 -6 c 0
 64 -6 56 -13 49 -27 c 1
 27 -18 l 1
 48 34 82 59 130 59 c 0
 195 59 234 24 247 -45 c 2
 258 -108 l 2
 263 -131 274 -149 292 -163 c 0
 311 -176 332 -183 355 -183 c 0
 437 -183 477 -118 477 13 c 0xfe80
 477 91 468 150 451 190 c 0
 425 251 378 281 312 281 c 0
 249 281 198 241 160 162 c 1
 137 174 l 1
 151 209 165 234 179 250 c 0
 194 267 217 284 249 301 c 1
 208 309 180 322 163 338 c 0
 137 364 124 393 124 425 c 0
 124 448 131 467 145 483 c 0
 158 500 176 508 198 508 c 0
 217 508 234 501 248 487 c 0
 262 473 269 457 269 438 c 0
 269 422 264 407 252 392 c 2
 240 376 l 2
 237 372 236 368 236 364 c 0
 236 351 245 340 263 332 c 0
 278 324 293 321 307 321 c 0
 352 321 387 344 412 389 c 0
 432 426 442 469 442 518 c 0
 442 569 429 614 402 650 c 0
 372 691 333 712 283 712 c 0
 242 712 207 699 179 672 c 0
 158 651 138 619 120 575 c 1
 96 584 l 1
 108 639 136 681 179 710 c 0
 220 739 269 753 326 753 c 0
 397 753 459 733 510 692 c 0
 565 648 593 591 593 521 c 0
 593 415 532 347 411 318 c 1xff
EndSplineSet
EndChar

StartChar: bracketleft
Encoding: 91 91 56
Width: 309
GlyphClass: 2
Flags: MW
HStem: -208 35<232 297> 721 34<232 297>
VStem: 55 137<-136.5 -118 -118 666>
LayerCount: 2
Fore
SplineSet
55 754 m 1
 297 755 l 1
 297 721 l 1
 232 721 l 2
 206 721 192 702 192 666 c 2
 192 -118 l 2
 192 -155 206 -174 232 -173 c 2
 297 -173 l 1
 297 -208 l 1
 55 -207 l 1
 55 754 l 1
EndSplineSet
EndChar

StartChar: bracketright
Encoding: 93 93 57
Width: 321
GlyphClass: 2
Flags: MW
HStem: -209 34<39 104> 719 34<40 104 40 40>
VStem: 144 137<-120 664 664 682.5>
LayerCount: 2
Fore
SplineSet
281 753 m 1
 281 -208 l 1
 39 -209 l 1
 40 -175 l 1
 104 -175 l 2
 131 -176 144 -157 144 -120 c 2
 144 664 l 2
 144 701 131 720 104 719 c 2
 40 719 l 1
 39 753 l 1
 281 753 l 1
EndSplineSet
EndChar

StartChar: asciicircum
Encoding: 94 94 58
Width: 23
GlyphClass: 2
Flags: MW
HStem: 570 224
VStem: 123 306<575.5 584 575.5 584>
LayerCount: 2
Fore
SplineSet
275 658 m 1
 231 626 185 597 138 570 c 0
 137 569 135 569 134 568 c 0
 126 567 122 571 122 580 c 0
 122 581 122 582 123 582 c 1
 123 584 l 1
 161 621 195 665 224 716 c 2
 257 774 l 2
 265 787 271 794 275 794 c 0
 280 794 286 787 293 774 c 2
 327 716 l 2
 357 663 391 619 428 584 c 1
 429 582 l 1
 429 580 l 2
 429 571 425 567 417 568 c 0
 416 569 414 569 413 570 c 0
 366 597 319 626 275 658 c 1
EndSplineSet
EndChar

StartChar: underscore
Encoding: 95 95 59
Width: 996
GlyphClass: 2
Flags: MW
HStem: -314 64<-18 1019 -18 1019>
LayerCount: 2
Fore
SplineSet
1019 -250 m 1
 1019 -314 l 1
 -18 -314 l 1
 -18 -250 l 1
 1019 -250 l 1
EndSplineSet
Substitution2: "'ss01' Stilgruppe 1 in Lateinisch Nachschlagetabelle 8 Subtabelle" emdash
EndChar

StartChar: grave
Encoding: 96 96 60
Width: 23
GlyphClass: 2
Flags: MW
HStem: 567 226<197.5 315.5>
VStem: 167 161<587 768.5>
LayerCount: 2
Fore
SplineSet
213 793 m 0
 235 793 250 782 259 760 c 2
 321 612 l 2
 325 602 328 593 328 587 c 0
 329 574 322 567 309 567 c 0
 301 567 289 576 275 595 c 2
 175 725 l 2
 170 732 167 743 167 756 c 0
 167 781 182 793 213 793 c 0
EndSplineSet
EndChar

StartChar: a
Encoding: 97 97 61
Width: 510
GlyphClass: 2
Flags: MW
HStem: -21 21G<385 385> 527 20G
VStem: 55 127<156 188 188 311 311 332> 307 124<77.6665 111 102.333 391>
AnchorPoint: "combe" 280 693 basechar 0
LayerCount: 2
Fore
SplineSet
307 93 m 1
 255.666992188 62.3330078125 201.666992188 24.3330078125 145 -21 c 1
 107.666992188 7 83.3330078125 32 72 54 c 0
 60.6669921875 76 55 110 55 156 c 2
 55 311 l 2
 55 353 62.6669921875 385 78 407 c 0
 91.3330078125 426.333007812 117.666992188 446.666992188 157 468 c 0
 204.333007812 494 248.333007812 520.333007812 289 547 c 1
 342.333007812 499.666992188 404 468.666992188 474 454 c 1
 474 429 l 1
 454.666992188 426.333007812 442.666992188 419 438 407 c 0
 434 399.666992188 432 384.666992188 432 362 c 2
 431 111 l 2
 431 93.6669921875 436.333007812 85 447 85 c 0
 451.666992188 85 457.666992188 88 465 94 c 0
 467.666992188 96 472.333007812 99 479 103 c 1
 499 80 l 1
 459.666992188 48 428 20.6669921875 404 -2 c 2
 385 -21 l 1
 355.666992188 -7.6669921875 335.666992188 6.666015625 325 21.9990234375 c 0
 313 38.666015625 307 62.3330078125 307 93 c 1
307 391 m 1
 270.333007812 411.666992188 236.333007812 432.666992188 205 454 c 1
 189.666992188 440 182 425 182 409 c 2
 182 188 l 2
 182 120.666992188 195 87 221 87 c 0
 230.333007812 87 242.333007812 91.3330078125 257 100 c 2
 307 127 l 1
 307 391 l 1
EndSplineSet
EndChar

StartChar: b
Encoding: 98 98 62
Width: 498
GlyphClass: 2
Flags: MW
HStem: -22 21G 527 20G 713 23<309 310>
VStem: 73 125<134 414 446 554> 324 126<172.5 194 194 345 345 356>
LayerCount: 2
Fore
SplineSet
198 446 m 1
 260 480 316 513 366 547 c 1
 380 536 391 526 401 516 c 0
 434 483 450 429 450 356 c 2
 450 194 l 2
 450 151 442 120 426 100 c 0
 410 79 373 55 316 26 c 0
 282 9 256 -7 237 -22 c 1
 187 8 147 29 118 42 c 0
 96 52 67 62 30 72 c 1
 29 93 l 1
 58 102 73 116 73 134 c 2
 73 558 l 2
 73 597 58 643 27 697 c 1
 46 710 l 1
 69 675 87 638 98 597 c 1
 105 615 110 629 115 639 c 0
 129 669 150 693 178 711 c 0
 206 729 237 738 270 738 c 0
 273 738 286 737 309 736 c 1
 310 713 l 1
 280 710 257 702 241 688 c 0
 221 671 209 655 205 641 c 0
 200 627 198 598 198 554 c 2
 198 446 l 1
198 130 m 1
 239 111 280 89 320 64 c 1
 321 71 322 80 324 90 c 2
 324 345 l 2
 324 375 323 394 320 403 c 0
 318 412 311 422 299 434 c 0
 288 444 280 449 273 449 c 0
 267 449 242 437 198 414 c 1
 198 130 l 1
EndSplineSet
EndChar

StartChar: c
Encoding: 99 99 63
Width: 362
GlyphClass: 2
Flags: MW
HStem: -21 21G 521 20G<271 271>
VStem: 49 129<189.5 210 189.5 333 189.5 370.5>
LayerCount: 2
Fore
SplineSet
271 541 m 1
 350 407 l 1
 256 347 l 1
 186 471 l 1
 179 452 176 430 176 405 c 2
 178 210 l 2
 178 169 182 141 190 126 c 0
 208 92 237 75 276 75 c 0
 292 75 309 79 328 88 c 1
 337 66 l 1
 279 36 226 7 178 -21 c 1
 129 7 97 29 83 44 c 0
 60 70 49 105 49 149 c 2
 49 333 l 2
 49 408 87 460 165 492 c 0
 203 507 238 524 271 541 c 1
EndSplineSet
EndChar

StartChar: d
Encoding: 100 100 64
Width: 512
GlyphClass: 2
Flags: MW
HStem: -22 21G 718 25<222 223>
VStem: 58 96<595.5 684.5> 79 125<135 422 422 422> 331 127<173 182 182 322 322 338>
LayerCount: 2
Fore
SplineSet
79 422 m 1xd8
 130 429 173 443 209 463 c 1
 194 473 l 1
 160 494 l 2
 92 536 58 576 58 615 c 0
 58 645 71 673 97 699 c 0
 112 715 128 725 146 731 c 0
 163 738 189 742 222 743 c 1
 223 718 l 1
 177 715 154 699 154 670 c 0xe8
 154 658 160 646 173 635 c 0
 186 625 217 606 265 579 c 2
 368 521 l 2
 411 496 436 474 445 457 c 0
 454 440 458 401 458 341 c 2
 458 182 l 2
 458 164 457 151 455 142 c 0
 451 126 443 110 430 95 c 0
 417 79 403 68 388 62 c 2
 308 29 l 2
 281 18 253 1 224 -22 c 1
 153 24 91 54 36 69 c 1
 36 91 l 1
 65 101 79 115 79 135 c 2
 79 422 l 1xd8
204 131 m 1xd8
 227 119 267 96 325 62 c 1
 329 82 331 98 331 110 c 2
 331 322 l 2
 331 354 325 379 312 397 c 0
 299 415 275 431 240 446 c 1
 230 438 218 431 204 423 c 1
 204 131 l 1xd8
EndSplineSet
EndChar

StartChar: e
Encoding: 101 101 65
Width: 395
GlyphClass: 2
Flags: MW
HStem: -20 21G 526 20G<317 317>
VStem: 43 128<272 272 272 306.667>
LayerCount: 2
Fore
SplineSet
317 546 m 5
 386 325 l 5
 174 241 l 5
 174 200.333007812 181.333007812 169 196 147 c 4
 218 113 246.333007812 96 281 96 c 4
 301.666992188 96 329.666992188 107.666992188 365 131 c 5
 378 111 l 5
 332.666992188 77.6669921875 277.333007812 34 212 -20 c 5
 131.333007812 16 82.6669921875 53.6669921875 66 93 c 4
 50.6669921875 128.333007812 43 185 43 263 c 4
 43 350.333007812 55 410.333007812 79 443 c 4
 97 468.333007812 144 492.333007812 220 515 c 6
 317 546 l 5
215 476 m 5
 197 463.333007812 185.333007812 446.666992188 180 426 c 4
 172.666992188 403.333007812 169.333007812 369.666992188 170 325 c 6
 171 272 l 5
 267 307 l 5
 215 476 l 5
EndSplineSet
EndChar

StartChar: f
Encoding: 102 102 66
Width: 293
GlyphClass: 2
Flags: MW
HStem: 435 37<280 281> 618 94<204.5 237.5> 650 90<110.5 152.5>
VStem: 63 32<584 663.5> 74 139<393 393 393 435> 247 21<726.5 734>
LayerCount: 2
Fore
SplineSet
74 435 m 1xac
 16 435 l 1
 16 456 l 1
 37 470 51 482 59 493 c 0
 68 507 72 525 72 547 c 0
 72 560 71 575 69 591 c 0
 65 618 63 639 63 652 c 0
 63 675 70 696 85 714 c 0
 100 731 119 740 142 740 c 0xb4
 163 740 187 733 213 719 c 0
 221 714 228 712 233 712 c 0
 242 712 247 719 247 734 c 1
 268 734 l 1
 268 657 248 618 210 618 c 0xcc
 199 618 181 624 157 637 c 0
 139 646 126 650 118 650 c 0
 103 650 95 640 95 620 c 0xb4
 95 548 157 499 280 472 c 1
 281 435 l 1
 214 437 l 1
 213 393 l 2
 210 309 204 209 194 91 c 0
 187 6 174 -93 157 -206 c 1
 126 -206 l 1
 91 83 74 297 74 435 c 1xac
EndSplineSet
EndChar

StartChar: g
Encoding: 103 103 67
Width: 509
GlyphClass: 2
Flags: MW
HStem: -216 32 -21 21G 526 20G
VStem: 49 127<166.333 178 178 332.999 332.999 355.333> 76 129<-168.667 -105.667> 302 125<112.999 123.999 123.999 376.999> 366 117<-114.667 -38.001>
LayerCount: 2
Fore
SplineSet
304 74 m 1xea
 261.333007812 51.3330078125 217 23.666015625 171 -9.0009765625 c 0
 165.666992188 -13.0009765625 160 -17.0009765625 154 -21.0009765625 c 1
 133 -8.0009765625 l 2
 93 15.9990234375 68.6669921875 38.666015625 60 59.9990234375 c 0
 52.6669921875 75.33203125 49 109.33203125 49 161.999023438 c 2
 49 332.999023438 l 2
 49 377.666015625 68.6669921875 412.999023438 108 438.999023438 c 2
 159 472.999023438 l 2
 189 492.33203125 220.666992188 516.666015625 254 545.999023438 c 1
 330.666992188 502.666015625 404.333007812 472.666015625 475 455.999023438 c 1
 474 427.999023438 l 1
 442.666992188 422.666015625 427 405.666015625 427 376.999023438 c 2
 427 123.999023438 l 2xf4
 427 101.999023438 434 78.9990234375 448 54.9990234375 c 0
 471.333007812 12.9990234375 483 -23.0009765625 483 -53.0009765625 c 0
 483 -120.333984375 439.666992188 -169.000976562 353 -199.000976562 c 0
 320.333007812 -210.333984375 289 -216.000976562 259 -216.000976562 c 0
 219.666992188 -216.000976562 182 -208.66796875 146 -194.000976562 c 0
 99.3330078125 -175.333984375 76 -149.000976562 76 -115.000976562 c 0
 76 -96.333984375 83.3330078125 -81.0009765625 98 -69.0009765625 c 0
 111.333007812 -58.333984375 127.666992188 -53.0009765625 147 -53.0009765625 c 0
 167 -53.0009765625 183.666992188 -57.66796875 197 -67.0009765625 c 0
 212.333007812 -78.333984375 220 -93.6669921875 220 -113 c 0
 220 -122.333007812 218.666992188 -129.666992188 216 -135 c 2
 208 -150 l 2
 206 -153.333007812 205 -157 205 -161 c 0
 205 -176.333007812 223.666992188 -184 261 -184 c 0
 289.666992188 -184 313.666992188 -177.333007812 333 -164 c 0
 355 -149.333007812 366 -128.333007812 366 -101 c 0
 366 -81.6669921875 361.333007812 -65 352 -51 c 2
 328 -16 l 2
 312 8 304 38 304 74 c 1xea
302 389 m 1
 263.333007812 402.333007812 224.333007812 422.666992188 185 450 c 1
 179 433.333007812 176 415.333007812 176 396 c 2
 176 178 l 2
 176 154.666992188 180 133.666992188 188 115 c 0
 198 89 213 76 233 76 c 0
 241 76 251.666992188 79.6669921875 265 87 c 2
 302 107 l 1
 302 389 l 1
EndSplineSet
EndChar

StartChar: h
Encoding: 104 104 68
Width: 520
GlyphClass: 2
Flags: MW
HStem: -21 21G 523 20G 713 22<330 330>
VStem: 83 125<120 411 446 491.667 103.001 521 103.001 550.333> 207 1 344 124<63.3335 64>
LayerCount: 2
Fore
SplineSet
208 411 m 1xf4
 208 103.000976562 l 1
 220.666992188 92.333984375 236.333007812 82.6669921875 255 74 c 1
 283 93 l 1
 299 78 l 1
 256.333007812 42 221.333007812 9 194 -21 c 1
 188 -17.6669921875 179 -12.333984375 167 -5.0009765625 c 0
 113 23.666015625 68.6669921875 43.3330078125 34 54 c 1
 35 71 l 1
 52.3330078125 76.3330078125 64 81.3330078125 70 86 c 0
 78.6669921875 93.3330078125 83 104.666992188 83 120 c 2
 83 521 l 2xf4
 83 579.666992188 66.6669921875 637.333007812 34 694 c 1
 56 707 l 1
 72 684.333007812 88.3330078125 648.666992188 105 600 c 1
 129 648.666992188 156.333007812 683.333007812 187 704 c 0
 219 726 257.666992188 736.333007812 303 735 c 2
 331 735 l 1
 330 713 l 1
 293.333007812 709 263.666992188 694.333007812 241 669 c 0
 220.333007812 647.666992188 209 612 207 562 c 1xec
 207.666992188 576 208 537.333007812 208 446 c 1
 269.333007812 477.333007812 324 509.666992188 372 543 c 1
 413.333007812 519 440.333007812 493 453 465 c 0
 463.666992188 441.666992188 469 403.666992188 469 351 c 2
 468 112 l 2
 468 14.6669921875 438.333007812 -65.3330078125 379 -128 c 0
 334.333007812 -175.333007812 275 -204.666992188 201 -216 c 1
 201 -198 l 1
 253 -166.666992188 290 -130.333007812 312 -89 c 0
 333.333007812 -49.6669921875 344 1.3330078125 344 64 c 2
 343 357 l 2
 343 378.333007812 338 397.333007812 328 414 c 0
 316.666992188 432.666992188 300.666992188 442 280 442 c 0
 271.333007812 442 262.333007812 439.666992188 253 435 c 2
 208 411 l 1xf4
EndSplineSet
EndChar

StartChar: i
Encoding: 105 105 69
Width: 263
GlyphClass: 2
Flags: MW
HStem: -22 21G<158 158> 521 20G 734 20G<113 165>
VStem: 61 156<698.5 720 696 722> 69 125<116 379 379 390>
LayerCount: 2
Fore
SplineSet
139 599 m 1xf0
 115 627 l 1
 74 669 l 2
 65 678 61 691 61 706 c 0
 61 738 87 754 139 754 c 0
 191 754 217 737 217 703 c 0
 217 689 212 678 203 669 c 2
 167 634 l 1
 139 599 l 1xf0
158 -22 m 1
 120 -5 96 12 85 29 c 0
 74 45 69 75 69 116 c 2
 69 379 l 2xe8
 69 401 66 414 61 419 c 0xf0
 58 422 52 424 45 424 c 0
 42 424 37 422 29 418 c 1
 18 440 l 1
 67 472 107 505 139 541 c 1
 176 498 209 469 238 453 c 1
 238 436 l 1
 208 431 194 417 194 391 c 2
 194 104 l 2xe8
 194 97 197 91 203 85 c 0
 208 78 215 75 222 75 c 0
 227 75 234 79 243 87 c 1
 256 69 l 1
 229 45 l 1
 191 9 l 1
 158 -22 l 1
EndSplineSet
EndChar

StartChar: j
Encoding: 106 106 70
Width: 272
GlyphClass: 2
Flags: MW
HStem: 522 20G 734 20G<128 180>
VStem: 76 156<694 722.5> 91 124<73.5 106 106 382 382 393>
LayerCount: 2
Fore
SplineSet
189 -56 m 1xd0
 170 -132 139 -184 96 -214 c 0
 74 -230 50 -238 25 -238 c 2
 19 -238 l 1
 19 -224 l 1
 53 -202 75 -175 84 -142 c 0
 89 -124 91 -87 91 -33 c 2
 91 382 l 2
 91 411 83 426 67 426 c 0
 63 426 59 424 53 420 c 1
 42 442 l 1
 92 474 132 508 163 542 c 1
 200 500 233 471 262 455 c 1
 262 438 l 1
 231 432 215 417 215 393 c 2
 215 106 l 2
 215 41 217 -5 220 -30 c 0
 227 -79 242 -122 266 -157 c 1
 251 -176 l 1
 229 -155 208 -115 189 -56 c 1xd0
154 599 m 1
 102 645 76 681 76 707 c 0
 76 738 102 754 154 754 c 0
 206 754 232 738 232 707 c 0xe0
 232 681 206 645 154 599 c 1
EndSplineSet
EndChar

StartChar: k
Encoding: 107 107 71
Width: 353
GlyphClass: 2
Flags: MW
HStem: -22 21G<200 200> 437 59<214 238 263 328 214 238> 725 20G<56 56> 734 19<336 337>
VStem: 89 125<132 437 116 437> 238 25<496 512.5>
LayerCount: 2
Fore
SplineSet
214 496 m 1xdc
 238 496 l 1
 238 559 244 603 258 631 c 0
 271 658 295 674 330 678 c 1
 331 583 l 1
 305 582 287 576 278 564 c 0
 268 552 263 529 263 496 c 1
 328 496 l 1
 328 437 l 1
 214 437 l 1
 214 116 l 1
 232 104 251 93 270 85 c 1
 305 113 l 1
 323 96 l 1
 263 42 l 2
 245 25 224 3 200 -22 c 1
 157 5 l 2
 117 31 77 51 40 63 c 1
 40 83 l 1
 59 88 72 93 79 100 c 0
 85 107 89 118 89 132 c 2
 89 437 l 1
 30 437 l 1
 30 455 l 1
 55 478 72 497 80 512 c 0
 89 527 93 545 93 567 c 0
 93 585 90 606 85 628 c 0
 78 658 62 693 39 731 c 1
 56 745 l 1xec
 80 717 101 679 119 632 c 1
 134 659 147 679 158 692 c 0
 174 710 195 726 222 738 c 0
 250 750 276 756 302 756 c 0
 310 756 321 755 336 753 c 1
 337 734 l 1
 318 733 304 731 295 728 c 0
 241 710 214 650 214 549 c 2
 214 496 l 1xdc
EndSplineSet
EndChar

StartChar: l
Encoding: 108 108 72
Width: 316
GlyphClass: 2
Flags: MW
HStem: -22 21G 714 24<301 301>
VStem: 83 125<109 529 529 542>
LayerCount: 2
Fore
SplineSet
189 -22 m 1
 162 -5 133 11 103 25 c 0
 76 38 54 47 36 53 c 1
 36 71 l 1
 56 79 l 2
 74 85 83 95 83 109 c 2
 83 529 l 2
 83 555 78 582 69 612 c 0
 59 644 45 675 27 707 c 1
 46 720 l 1
 65 693 85 655 104 608 c 1
 121 642 137 667 152 682 c 0
 167 698 187 711 211 721 c 0
 234 731 264 736 301 738 c 1
 301 714 l 1
 274 708 255 698 241 684 c 0
 219 659 208 615 208 551 c 2
 208 108 l 1
 223 97 239 87 256 80 c 1
 282 98 l 1
 299 80 l 1
 271 57 235 23 189 -22 c 1
EndSplineSet
EndChar

StartChar: m
Encoding: 109 109 73
Width: 789
GlyphClass: 2
Flags: MW
HStem: -21 21G<132 151 132 132 383 383 383 402> 529 20G
VStem: 78 125<136 386> 328 128<387 431> 582 125<17 92>
LayerCount: 2
Fore
SplineSet
284 79 m 1
 304 88 316 95 320 100 c 0
 326 106 329 119 329 136 c 2
 328 387 l 2
 328 419 316 435 293 435 c 0
 284 435 275 432 264 425 c 2
 203 386 l 1
 203 125 l 2
 203 111 218 96 249 80 c 1
 249 66 l 1
 221 54 201 42 188 31 c 0
 176 21 164 3 151 -21 c 1
 132 -21 l 1
 118 4 104 22 92 33 c 0
 79 44 60 55 33 66 c 1
 33 79 l 1
 54 89 66 96 71 102 c 0
 76 108 78 120 78 136 c 2
 78 406 l 2
 78 416 78 423 77 425 c 0
 76 430 72 434 67 438 c 0
 62 441 59 443 56 443 c 0
 51 443 46 441 39 436 c 2
 30 431 l 1
 13 454 l 1
 27 463 43 476 63 491 c 0
 83 507 104 526 126 549 c 1
 156 535 176 519 186 503 c 0
 196 487 202 462 205 427 c 1
 276 475 l 2
 303 494 332 516 363 542 c 1
 400 527 425 512 437 497 c 0
 450 482 456 460 456 431 c 2
 456 427 l 1
 512 462 567 502 621 547 c 1
 646 522 667 504 685 494 c 0
 701 484 726 474 759 463 c 1
 759 436 l 1
 738 433 724 428 717 419 c 0
 710 411 707 396 707 375 c 2
 707 102 l 2
 709 89 717 82 731 82 c 0
 737 82 746 86 757 94 c 1
 776 77 l 1
 707 17 l 1
 668 -20 l 1
 650 -11 634 -3 622 5 c 0
 604 16 593 29 588 42 c 0
 584 52 582 69 582 92 c 2
 581 385 l 2
 581 417 568 433 543 433 c 0
 534 433 525 430 515 424 c 2
 453 386 l 1
 454 125 l 2
 454 111 469 96 500 80 c 1
 500 66 l 1
 472 54 452 42 439 31 c 0
 427 21 415 3 402 -21 c 1
 383 -21 l 1
 368 4 354 22 342 33 c 0
 330 44 311 55 284 66 c 1
 284 79 l 1
EndSplineSet
EndChar

StartChar: n
Encoding: 110 110 74
Width: 538
GlyphClass: 2
Flags: MW
HStem: -22 21G<132 151 132 132> 528 20G
VStem: 78 125<135 385> 331 125<17 92>
LayerCount: 2
Fore
SplineSet
203 385 m 1
 203 124 l 2
 203 110 218 95 249 79 c 1
 249 65 l 1
 221 53 201 41 188 31 c 0
 176 20 164 2 151 -22 c 1
 132 -22 l 1
 118 3 104 21 92 32 c 0
 79 43 60 54 33 65 c 1
 33 78 l 1
 54 88 66 95 71 101 c 0
 76 107 78 118 78 135 c 2
 78 405 l 2
 78 415 78 422 77 424 c 0
 76 429 72 433 67 437 c 0
 63 440 59 442 56 442 c 0
 51 442 46 440 39 435 c 2
 30 430 l 1
 13 453 l 1
 27 462 43 475 63 490 c 0
 83 506 104 525 126 548 c 1
 156 534 176 518 186 502 c 0
 196 486 202 461 205 426 c 1
 269 468 324 508 370 547 c 1
 395 522 416 504 434 494 c 0
 450 484 475 474 509 463 c 1
 508 436 l 1
 487 433 474 428 467 419 c 0
 460 411 456 396 456 375 c 2
 456 136 l 2
 456 116 456 105 457 102 c 0
 458 89 466 82 481 82 c 0
 486 82 495 86 506 94 c 1
 525 77 l 1
 511 64 l 1
 456 17 l 1
 418 -20 l 1
 397 -11 382 -3 372 5 c 0
 354 16 342 28 337 42 c 0
 333 52 331 69 331 92 c 2
 330 385 l 2
 330 417 317 433 292 433 c 0
 283 433 274 430 264 424 c 2
 203 385 l 1
EndSplineSet
EndChar

StartChar: o
Encoding: 111 111 75
Width: 497
GlyphClass: 2
Flags: MW
HStem: -22 21G 537 20G
VStem: 66 124<142 142 142 453> 316 128<69 179>
AnchorPoint: "combe" 260 700 basechar 0
LayerCount: 2
Fore
SplineSet
30 74 m 1
 29 93 l 1
 41 98 l 2
 58 105 66 114 66 124 c 2
 66 455 l 1
 125 467 168 479 196 491 c 0
 224 504 257 526 297 557 c 1
 348 535 385 514 408 492 c 0
 424 476 435 460 440 442 c 0
 444 430 445 410 445 382 c 2
 444 179 l 2
 444 141 441 116 435 104 c 0
 429 91 415 78 392 66 c 2
 306 20 l 2
 291 12 271 -2 245 -22 c 1
 196 9 159 30 134 41 c 0
 108 52 74 63 30 74 c 1
190 142 m 1
 233 122 275 98 316 69 c 1
 317 298 l 2
 317 338 317 362 315 370 c 0
 312 397 302 418 286 433 c 0
 267 451 246 460 223 460 c 0
 214 460 203 458 190 453 c 1
 190 142 l 1
EndSplineSet
EndChar

StartChar: p
Encoding: 112 112 76
Width: 528
GlyphClass: 2
Flags: MW
HStem: -24 21G<274 274> 528 20G
VStem: 19 23<23.999 23.999> 95 124<177.999 395.999> 344 126<184.999 207.999 207.999 328.999 328.999 351.666>
LayerCount: 2
Fore
SplineSet
220 30 m 1
 211.333007812 -63.3330078125 195.333007812 -145.000976562 172 -215.000976562 c 1
 143 -215.000976562 l 1
 118.333007812 -143.66796875 102.666992188 -51.0009765625 96 62.9990234375 c 1
 86 68.9990234375 78.6669921875 71.9990234375 74 71.9990234375 c 0
 54 71.9990234375 43.3330078125 55.9990234375 42 23.9990234375 c 1
 19 23.9990234375 l 1
 18 58.9990234375 l 2
 16.6669921875 95.666015625 22.6669921875 124.33203125 36 144.999023438 c 0
 48 162.999023438 67.6669921875 173.999023438 95 177.999023438 c 1
 95 400.999023438 l 2
 95 426.33203125 87.3330078125 438.999023438 72 438.999023438 c 0
 66 438.999023438 58 435.999023438 48 429.999023438 c 0
 45.3330078125 428.666015625 41 425.999023438 35 421.999023438 c 1
 16 450.999023438 l 1
 66 486.33203125 105 518.666015625 133 547.999023438 c 1
 164.333007812 535.33203125 185.666992188 521.666015625 197 506.999023438 c 0
 210.333007812 491.666015625 218.333007812 468.33203125 221 436.999023438 c 1
 283 472.999023438 334.666992188 509.999023438 376 547.999023438 c 1
 416.666992188 517.33203125 442.666992188 489.999023438 454 465.999023438 c 0
 464.666992188 443.999023438 470 406.999023438 470 354.999023438 c 2
 470 207.999023438 l 2
 470 161.999023438 465 131.999023438 455 117.999023438 c 0
 441 98.666015625 408.333007812 71.666015625 357 36.9990234375 c 0
 331.666992188 19.666015625 304 -0.6669921875 274 -24 c 1
 254 -4 l 1
 220 30 l 1
219 160.999023438 m 1
 259.666992188 134.999023438 301.333007812 103.33203125 344 65.9990234375 c 1
 344 328.999023438 l 2
 344 374.33203125 340.333007812 402.666015625 333 413.999023438 c 0
 323 427.999023438 312 434.999023438 300 434.999023438 c 0
 288.666992188 434.999023438 261.666992188 421.999023438 219 395.999023438 c 1
 219 160.999023438 l 1
EndSplineSet
EndChar

StartChar: q
Encoding: 113 113 77
Width: 486
GlyphClass: 2
Flags: MW
HStem: -21 21G<151 151> 527 20G<248 248>
VStem: 40 126<162 171 171 329 329 348> 293 124<62 84 84 84 122 355>
LayerCount: 2
Fore
SplineSet
366 -217 m 1
 337 -217 l 1
 307.666992188 -133 293 -40 293 62 c 2
 293 84 l 1
 261.666992188 64.6669921875 231 43 201 19 c 2
 151 -21 l 1
 111 2.3330078125 82.6669921875 27.3330078125 66 54 c 0
 48.6669921875 82 40 118 40 162 c 2
 40 329 l 2
 40 367 48.6669921875 396 66 416 c 0
 77.3330078125 428 103.333007812 446 144 470 c 0
 182 492 216.666992188 517.666992188 248 547 c 1
 275 531 l 2
 348.333007812 489 412.666992188 460.333007812 468 445 c 1
 468 418 l 1
 434 411.333007812 417 390.333007812 417 355 c 2
 417 105 l 2
 417 3.6669921875 400 -103.666992188 366 -217 c 1
293 387 m 1
 255 407.666992188 216 427.666992188 176 447 c 1
 169.333007812 437 166 418.666992188 166 392 c 2
 166 171 l 2
 166 149.666992188 169.666992188 131.333007812 177 116 c 0
 187 96 201.666992188 86 221 86 c 0
 232.333007812 86 243.333007812 89.6669921875 254 97 c 2
 293 122 l 1
 293 387 l 1
EndSplineSet
EndChar

StartChar: r
Encoding: 114 114 78
Width: 388
GlyphClass: 2
Flags: MW
HStem: -21 21G<204 204> 524 20G<305 305>
VStem: 83 125<122 390 390 399 122 406.333>
LayerCount: 2
Fore
SplineSet
210 441 m 1
 305 544 l 1
 381 445 l 1
 305 354 l 1
 244 437 l 1
 208 399 l 1
 208 122 l 1
 227.333007812 108 247 96.3330078125 267 87 c 1
 324 136 l 1
 341 117 l 1
 274 51 l 1
 240 16 l 1
 204 -21 l 1
 181 -7 l 2
 149 14.3330078125 125.333007812 28.3330078125 110 35 c 0
 88 45 61.6669921875 51.6669921875 31 55 c 1
 30 74 l 1
 65.3330078125 88 83 102.333007812 83 117 c 2
 83 390 l 2
 83 422.666992188 73.6669921875 439 55 439 c 0
 48.3330078125 439 39 435 27 427 c 1
 13 452 l 1
 69 490 109.333007812 521.666992188 134 547 c 1
 161.333007812 535.666992188 180.666992188 522.666992188 192 508 c 0
 204 491.333007812 210 469 210 441 c 1
EndSplineSet
EndChar

StartChar: s
Encoding: 115 115 79
Width: 465
GlyphClass: 2
Flags: MW
HStem: -7 21G<52 52> 44 86<101.333 196> 259 30 390 101<247.333 317.333> 521 20G 650 27<234.667 273>
VStem: 20 93 330 99 371 39<546.667 555.333 516.333 570.333>
LayerCount: 2
Fore
SplineSet
141 450 m 1xfe80
 122.333007812 424 112.999023438 400.999023438 112.999023438 380.999023438 c 0
 112.999023438 356.33203125 122.83203125 334.83203125 142.499023438 316.499023438 c 0
 162.166015625 298.166015625 184.666015625 288.999023438 209.999023438 288.999023438 c 0
 257.33203125 288.999023438 285.33203125 318.33203125 293.999023438 376.999023438 c 1
 336.666015625 373.666015625 369.83203125 359.166015625 393.499023438 333.499023438 c 0
 417.166015625 307.83203125 428.999023438 273.666015625 428.999023438 230.999023438 c 0
 428.999023438 174.999023438 397.33203125 123.666015625 333.999023438 76.9990234375 c 0
 305.33203125 54.9990234375 285.33203125 39.33203125 273.999023438 29.9990234375 c 0
 255.999023438 14.666015625 238.666015625 -3.6669921875 221.999023438 -25 c 1
 187.33203125 21 150.999023438 44 112.999023438 44 c 0
 89.666015625 44 69.3330078125 27 52 -7 c 1
 33 3 l 1
 69.6669921875 87.6669921875 117.666992188 130 177 130 c 0
 215 130 253 112 291 76 c 1
 317 98.6669921875 330 125.666992188 330 157 c 0xff
 330 185.666992188 321 209.833007812 303 229.5 c 0
 285 249.166992188 261.666992188 259 233 259 c 0
 206.333007812 259 184.666992188 249.333007812 168 230 c 0
 153.333007812 212.666992188 144.666992188 190.333007812 142 163 c 1
 101.333007812 175.666992188 71.3330078125 192.333007812 52 213 c 0
 30.6669921875 237 20 269 20 309 c 0
 20 365 47 412.333007812 101 451 c 2
 148 484 l 2
 168 498 187.666992188 517 207 541 c 1
 240.333007812 507.666992188 274 491 308 491 c 0
 326.666992188 491 341.833007812 497.166992188 353.5 509.5 c 0
 365.166992188 521.833007812 371 537.333007812 371 556 c 0
 371 584.666992188 359 608 335 626 c 0
 313.666992188 642 288 650 258 650 c 0
 211.333007812 650 171.666992188 631 139 593 c 1
 118 606 l 1
 154 653.333007812 200.333007812 677 257 677 c 0
 299 677 334.666992188 663.666992188 364 637 c 0
 394.666992188 609.666992188 410 575.666992188 410 535 c 0
 410 497.666992188 395.5 464.166992188 366.5 434.5 c 0
 337.5 404.833007812 304.333007812 390 267 390 c 0
 227.666992188 390 185.666992188 410 141 450 c 1xfe80
EndSplineSet
Substitution2: "Einzelne Substitution Nachschlagetabelle 3 Subtabelle" longs
EndChar

StartChar: t
Encoding: 116 116 80
Width: 321
GlyphClass: 2
Flags: MW
HStem: -22 21G 429 48
VStem: 74 125<122 131> 176 26<677 677>
LayerCount: 2
Fore
SplineSet
202 677 m 1xd0
 200.666992188 630.333007812 200 584.000976562 200 538.000976562 c 2
 200 477.000976562 l 1
 298 477.000976562 l 1
 298 429.000976562 l 1
 199 429.000976562 l 1
 199 113.000976562 l 1
 209.666992188 107.000976562 227 96.66796875 251 82.0009765625 c 1
 275 99.0009765625 l 1
 293 75.0009765625 l 1
 258.333007812 47.0009765625 220.333007812 14.66796875 179 -21.9990234375 c 1
 130.333007812 15.333984375 82 41.6669921875 34 57 c 1
 34 75 l 1
 50.6669921875 79.6669921875 61.5 85.6669921875 66.5 93 c 0
 71.5 100.333007812 74 113 74 131 c 2xe0
 73 428 l 1
 25 428 l 1
 25 450 l 1
 55 460.666992188 76 471.5 88 482.5 c 0
 100 493.5 115.333007812 514.333007812 134 545 c 0
 155.333007812 581 169.333007812 625 176 677 c 1
 202 677 l 1xd0
EndSplineSet
EndChar

StartChar: u
Encoding: 117 117 81
Width: 535
GlyphClass: 2
Flags: MW
HStem: -21 21G<408.001 408.001> 528 21G
VStem: 76 126 329 125<145 388>
AnchorPoint: "combe" 280 693 basechar 0
LayerCount: 2
Fore
SplineSet
505 92 m 1
 522.000976562 74 l 1
 496.66796875 54.6669921875 466.333984375 29.6669921875 431.000976562 -1 c 2
 408.000976562 -21 l 1
 353.333984375 1 326.66796875 40 328.000976562 96 c 2
 329.000976562 111 l 1
 243.000976562 47.6669921875 185.333984375 3.6669921875 156.000976562 -21 c 1
 130.000976562 5 111.000976562 22.3330078125 99.0009765625 31 c 0
 77.0009765625 47.6669921875 54.333984375 59.6669921875 31.0009765625 67 c 1
 30.0009765625 88 l 1
 60.66796875 94 76.0009765625 106.666992188 76.0009765625 126 c 2
 76.0009765625 411 l 2
 76.0009765625 416.333007812 72.5009765625 422.5 65.5009765625 429.5 c 0
 58.5009765625 436.5 52.0009765625 440 46.0009765625 440 c 0
 43.333984375 440 37.6669921875 437.666992188 29 433 c 1
 13 457 l 1
 51 485 86.3330078125 515.333007812 119 548 c 1
 151 533.333007812 172.833007812 517.166992188 184.5 499.5 c 0
 196.166992188 481.833007812 202 455.666992188 202 421 c 2
 202 117 l 2
 202 112.333007812 206.333007812 106 215 98 c 0
 223.666992188 90 230 86 234 86 c 0
 240.666992188 86 250.333007812 90.3330078125 263 99 c 2
 329 145 l 1
 329 396 l 2
 329 408.666992188 313.333007812 423 282 439 c 1
 283 453 l 1
 309.666992188 464.333007812 329.666992188 476.333007812 343 489 c 0
 356.333007812 501.666992188 368.333007812 521 379 547 c 1
 398 547 l 1
 410.666992188 519 424.166992188 498.666992188 438.5 486 c 0
 452.833007812 473.333007812 474.666992188 462 504 452 c 1
 505 438 l 1
 485.666992188 432 473.333007812 427 468 423 c 0
 458.666992188 416.333007812 454 404.666992188 454 388 c 2
 454 121 l 2
 454 94.3330078125 461.666992188 81 477 81 c 0
 483.666992188 81 493 84.6669921875 505 92 c 1
EndSplineSet
EndChar

StartChar: v
Encoding: 118 118 82
Width: 525
GlyphClass: 2
Flags: MW
HStem: -22 21G 530 20G
VStem: 92 125 343 128
LayerCount: 2
Fore
SplineSet
216 438 m 1
 272 472.666992188 324.665039062 510 373.998046875 550 c 1
 404.665039062 530 425.665039062 514 436.998046875 502 c 0
 454.331054688 484 464.998046875 460.333007812 468.998046875 431 c 0
 470.331054688 422.333007812 470.998046875 395 470.998046875 349 c 2
 470.998046875 216 l 2
 470.998046875 163.333007812 461.665039062 126 442.998046875 104 c 0
 429.665039062 87.3330078125 395.998046875 65.3330078125 341.998046875 38 c 0
 300.665039062 17.3330078125 265.665039062 -2.6669921875 236.998046875 -22 c 1
 166.998046875 16.6669921875 98.998046875 47 32.998046875 69 c 1
 32.998046875 85 l 1
 72.3310546875 101 91.998046875 125 91.998046875 157 c 2
 92.998046875 409 l 2
 92.998046875 416.333007812 89.8310546875 424.166992188 83.498046875 432.5 c 0
 77.1650390625 440.833007812 70.33203125 445 62.9990234375 445 c 0
 59.666015625 445 54.3330078125 442.666992188 47 438 c 2
 32 430 l 1
 13 453 l 1
 65 493.666992188 103.333007812 526.666992188 128 552 c 1
 157.333007812 531.333007812 177.333007812 515.666992188 188 505 c 0
 206.666992188 485 216 462.666992188 216 438 c 1
216.998046875 117 m 1
 322.998046875 60 l 1
 332.998046875 74 338.998046875 86 340.998046875 96 c 0
 342.331054688 102 342.998046875 116.333007812 342.998046875 139 c 2
 342.998046875 339 l 2
 342.998046875 409 328.665039062 444 299.998046875 444 c 0
 289.331054688 444 275.998046875 439 259.998046875 429 c 0
 249.998046875 423 235.665039062 415 216.998046875 405 c 1
 216.998046875 117 l 1
EndSplineSet
EndChar

StartChar: w
Encoding: 119 119 83
Width: 750
GlyphClass: 2
Flags: MW
HStem: -22 21G 528 20G
VStem: 83 124 331 124<122 402> 566 130<88 161.001>
LayerCount: 2
Fore
SplineSet
455 122 m 1
 494.333007812 96.6669921875 530.333007812 74.6669921875 563 56 c 1
 566 88 l 2
 566.666992188 100 567 109.333007812 567 116 c 2
 568 326 l 2
 568.666992188 399.333007812 556 436 530 436 c 0
 522.666992188 436 510.333007812 431 493 421 c 2
 456 399 l 1
 455 122 l 1
207 393 m 1
 206.999023438 130.001953125 l 2
 206.999023438 115.334960938 222.33203125 100.334960938 252.999023438 85.001953125 c 1
 252.999023438 70.001953125 l 1
 225.666015625 52.001953125 206.999023438 39.001953125 196.999023438 31.001953125 c 0
 180.33203125 16.3349609375 166.666015625 -1.33203125 155.999023438 -21.9990234375 c 1
 136.999023438 -21.9990234375 l 1
 117.666015625 11.333984375 84.33203125 42.0009765625 36.9990234375 70.0009765625 c 1
 36.9990234375 83.0009765625 l 1
 54.9990234375 91.66796875 66.33203125 98.66796875 70.9990234375 104.000976562 c 0
 78.9990234375 111.333984375 82.9990234375 123.333984375 82.9990234375 140.000976562 c 2
 81.9990234375 411.000976562 l 2
 81.9990234375 433.000976562 73.9990234375 444.000976562 57.9990234375 444.000976562 c 0
 54.666015625 444.000976562 49.3330078125 441.66796875 42 437.000976562 c 2
 29 429.000976562 l 1
 13 453.000976562 l 1
 39.6669921875 473.000976562 57.6669921875 487.000976562 67 495.000976562 c 2
 114 536.000976562 l 2
 114.666992188 536.66796875 120 540.66796875 130 548.000976562 c 1
 160.666992188 534.000976562 181.166992188 519.000976562 191.5 503.000976562 c 0
 201.833007812 487.000976562 207 462.333984375 207 429.000976562 c 1
 287 482.000976562 l 2
 317.666992188 502.000976562 348.333007812 524.000976562 379 548.000976562 c 1
 406.333007812 534.66796875 425.333007812 520.333984375 436 505.000976562 c 0
 447.333007812 489.000976562 453 466.66796875 453 438.000976562 c 1
 515 472.000976562 569 508.000976562 615 546.000976562 c 1
 648.333007812 523.333984375 670.166992188 501.500976562 680.5 480.500976562 c 0
 690.833007812 459.500976562 696 428.333984375 696 387.000976562 c 2
 696 161.000976562 l 2
 696 127.000976562 687 101.000976562 669 83.0009765625 c 0
 655.666992188 70.333984375 630.666992188 56.6669921875 594 42 c 0
 546.666992188 22.6669921875 502.666992188 1.6669921875 462 -21 c 1
 428.666992188 5 401.333007812 23.6669921875 380 35 c 0
 356.666992188 47.6669921875 325.666992188 60 287 72 c 1
 286 87 l 1
 316 94.3330078125 331 109.666992188 331 133 c 2
 331 402 l 2
 331 411.333007812 327 420 319 428 c 0
 311 436 302.333007812 440 293 440 c 0
 288.333007812 440 283 438.333007812 277 435 c 2
 207 393 l 1
EndSplineSet
EndChar

StartChar: x
Encoding: 120 120 84
Width: 396
GlyphClass: 2
Flags: MW
HStem: -181 30 -22 21G 523 21G
VStem: 4 59<-56.6675 6.6665> 87 125<117.999 415> 281 107<-104.667 -39.3335>
LayerCount: 2
Fore
SplineSet
214 446 m 1
 306 542.999023438 l 1
 385 438.999023438 l 1
 311 357.999023438 l 1
 249 442.999023438 l 1
 211 400.999023438 l 1
 212 117.999023438 l 1
 236.666992188 109.999023438 261 99.666015625 285 86.9990234375 c 1
 331 138.999023438 l 1
 352 124.999023438 l 1
 306 69.9990234375 l 1
 233 -22.0009765625 l 1
 181 5.33203125 145 18.9990234375 125 18.9990234375 c 0
 108.333007812 18.9990234375 93.8330078125 12.9990234375 81.5 0.9990234375 c 0
 69.1669921875 -11.0009765625 63 -25.333984375 63 -42.0009765625 c 0
 63 -71.333984375 75.5 -96.833984375 100.5 -118.500976562 c 0
 125.5 -140.16796875 155.333007812 -151.000976562 190 -151.000976562 c 0
 209.333007812 -151.000976562 227.666992188 -146.66796875 245 -138.000976562 c 0
 269 -126.000976562 281 -112.333984375 281 -97.0009765625 c 0
 281 -91.66796875 279.666992188 -86.3349609375 277 -81.001953125 c 0
 271 -68.3349609375 268 -57.66796875 268 -49.0009765625 c 0
 268 -31.0009765625 273.666992188 -15.833984375 285 -3.5009765625 c 0
 296.333007812 8.83203125 310.333007812 14.9990234375 327 14.9990234375 c 0
 344.333007812 14.9990234375 358.833007812 8.83203125 370.5 -3.5009765625 c 0
 382.166992188 -15.833984375 388 -30.6669921875 388 -48 c 0
 388 -84 369.333007812 -115.166992188 332 -141.5 c 0
 294.666992188 -167.833007812 250.666992188 -181 200 -181 c 0
 144.666992188 -181 98.1669921875 -164.5 60.5 -131.5 c 0
 22.8330078125 -98.5 4 -57.3330078125 4 -8 c 0
 4 21.3330078125 8.6669921875 44 18 60 c 0
 26 73.3330078125 43 90 69 110 c 0
 81 119.333007812 87 132.666992188 87 150 c 2
 87 415 l 2
 87 430.333007812 80.6669921875 438 68 438 c 0
 62.6669921875 438 57 436 51 432 c 0
 48.3330078125 430.666992188 44.3330078125 428.333007812 39 425 c 1
 24 451 l 1
 51.3330078125 470.333007812 66.3330078125 481 69 483 c 0
 83.6669921875 494.333007812 101.666992188 510.666992188 123 532 c 2
 135 544 l 1
 158.333007812 534.666992188 176.666992188 521.833007812 190 505.5 c 0
 203.333007812 489.166992188 211.333007812 469.333007812 214 446 c 1
EndSplineSet
EndChar

StartChar: y
Encoding: 121 121 85
Width: 525
GlyphClass: 2
Flags: MW
HStem: -220 25<198 198> -21 21G 529 20G
VStem: 86 126<99 415.001> 346 125<69.6675 99.001 99.001 349.001>
LayerCount: 2
Fore
SplineSet
211 411 m 1
 212 99 l 1
 221.333007812 91.6669921875 232 85.333984375 244 80.0009765625 c 1
 273 104.000976562 l 1
 288 89.0009765625 l 1
 171 -20.9990234375 l 1
 109 19.0009765625 59.3330078125 46.0009765625 22 60.0009765625 c 1
 22 79.0009765625 l 1
 64.6669921875 93.66796875 86 110.66796875 86 130.000976562 c 2
 86 415.000976562 l 2
 86 436.333984375 78.3330078125 447.000976562 63 447.000976562 c 0
 59 447.000976562 53.6669921875 444.66796875 47 440.000976562 c 0
 43.6669921875 438.000976562 39 435.000976562 33 431.000976562 c 1
 16 453.000976562 l 1
 58 484.333984375 97.3330078125 516.333984375 134 549.000976562 c 1
 161.333007812 537.000976562 180.333007812 523.66796875 191 509.000976562 c 0
 201.666992188 494.333984375 208.333007812 472.333984375 211 443.000976562 c 1
 269.666992188 475.000976562 326.666992188 509.66796875 382 547.000976562 c 1
 406 531.000976562 424.666992188 514.66796875 438 498.000976562 c 0
 454.666992188 477.333984375 464.666992188 456.66796875 468 436.000976562 c 0
 470 423.333984375 471 394.333984375 471 349.000976562 c 2
 471 99.0009765625 l 2
 471 40.333984375 463 -7.3330078125 447 -44 c 0
 431 -80.6669921875 403.333007812 -115.333007812 364 -148 c 0
 336 -171.333007812 311.333007812 -187.5 290 -196.5 c 0
 268.666992188 -205.5 238 -213.333007812 198 -220 c 1
 198 -195 l 1
 215.333007812 -189.666992188 226.333007812 -185.666992188 231 -183 c 0
 264.333007812 -167 291.833007812 -136.166992188 313.5 -90.5 c 0
 335.166992188 -44.8330078125 346 5.6669921875 346 61 c 2
 346 356 l 2
 346 380.666992188 340.833007812 400.666992188 330.5 416 c 0
 320.166992188 431.333007812 306.666992188 439 290 439 c 0
 280 439 253.666992188 429.666992188 211 411 c 1
EndSplineSet
EndChar

StartChar: z
Encoding: 122 122 86
Width: 411
GlyphClass: 2
Flags: MW
HStem: -222 32<173.333 203.667 168 228.333> 527 20G
VStem: 50 78<-62.3335 0.333496 -76.6665 17.3335> 219 135<338 445> 235 141<-14.3335 49>
LayerCount: 2
Fore
SplineSet
208 259 m 1xf0
 263.333007812 244.333007812 302.333007812 224 325 198 c 0
 359 158.666992188 376 98.6669921875 376 18 c 0
 376 -46.6669921875 362.666992188 -100.666992188 336 -144 c 0
 304.666992188 -196 258.666992188 -222 198 -222 c 0
 148.666992188 -222 110.666992188 -203 84 -165 c 0
 61.3330078125 -131.666992188 50 -88.6669921875 50 -36 c 0
 50 70.6669921875 90.3330078125 136.333007812 171 161 c 1
 180 145 l 1
 157.333007812 127 142.333007812 102 135 70 c 0
 130.333007812 50.6669921875 128 20.6669921875 128 -20 c 0
 128 -133.333007812 148 -190 188 -190 c 0
 219.333007812 -190 235 -122 235 14 c 0xe8
 235 84 232.333007812 130.666992188 227 154 c 0
 215 202.666992188 191.666992188 227 157 227 c 0
 143.666992188 227 116 218.666992188 74 202 c 1
 65 230 l 1
 112.333007812 246.666992188 145.333007812 260.666992188 164 272 c 0
 200.666992188 294.666992188 219 322 219 354 c 0
 219 372.666992188 213.333007812 389 202 403 c 0
 189.333007812 417.666992188 174 425 156 425 c 0
 142 425 122.333007812 416.666992188 97 400 c 2
 84 392 l 1
 69 418 l 1
 130.333007812 458.666992188 186 501.666992188 236 547 c 1
 314.666992188 515 354 472 354 418 c 0
 354 364 305.333007812 311 208 259 c 1xf0
EndSplineSet
EndChar

StartChar: sterling
Encoding: 163 163 87
Width: 548
GlyphClass: 2
Flags: MW
HStem: -7 64<384.5 398> 1 22<102 122 102 123> 99 27<125 138> 298 35<74 184 73 198 74 74> 469 98<394 421> 657 14<310 339.5>
VStem: 42 23<50.5 62 50 69.5> 146 72<455 540.5> 232 54<177 270> 420 54 492 15<143 164>
LayerCount: 2
Fore
SplineSet
198 80 m 1x7fe0
 171 93 148 99 128 99 c 0
 113 99 99 96 87 88 c 0
 72 80 65 69 65 55 c 0
 65 45 70 37 79 31 c 0
 88 26 97 23 107 23 c 0
 137 23 167 42 198 80 c 1x7fe0
275 333 m 1
 394 334 l 1
 394 298 l 1
 284 298 l 1
 285 284 286 273 286 267 c 0
 286 217 272 163 244 105 c 1
 319 73 370 57 399 57 c 0
 452 57 483 93 492 164 c 1
 507 164 l 1
 507 122 496 84 475 51 c 0
 450 12 418 -7 378 -7 c 0xbfe0
 339 -7 286 17 219 64 c 1
 174 22 138 1 108 1 c 0
 91 1 76 6 63 17 c 0
 49 28 42 42 42 59 c 0
 42 80 53 97 75 110 c 0
 93 121 114 126 136 126 c 0
 156 126 183 122 216 115 c 1
 227 141 232 166 232 188 c 0
 232 223 221 260 198 298 c 1
 74 298 l 1
 73 333 l 1
 184 333 l 1
 159 391 146 437 146 473 c 0
 146 525 163 570 197 609 c 0
 232 650 276 671 327 671 c 0
 363 671 396 658 426 633 c 0
 458 607 474 576 474 540 c 0
 474 522 468 506 457 492 c 0
 445 477 430 469 412 469 c 0
 376 469 358 486 358 521 c 0
 358 532 361 542 368 551 c 0
 375 561 383 566 394 567 c 2
 412 569 l 2
 418 570 421 575 420 584 c 0
 419 606 408 623 389 638 c 0
 370 651 350 657 329 657 c 0
 291 657 262 644 243 616 c 0
 226 592 218 560 218 521 c 0
 218 490 227 451 246 406 c 2
 275 333 l 1
EndSplineSet
EndChar

StartChar: currency
Encoding: 164 164 88
Width: 500
GlyphClass: 2
Flags: MW
HStem: 146 55<219.5 253 216.5 256.5> 464 56<216.5 249 214.5 253>
VStem: 47 57<314 343.5> 366 56<314 344 308.5 350>
LayerCount: 2
Fore
SplineSet
366 332 m 0
 366 368 353 400 328 425 c 0
 302 451 271 464 235 464 c 0
 198 464 167 451 142 425 c 0
 117 400 104 368 104 332 c 0
 104 296 117 265 142 239 c 0
 167 214 198 201 235 201 c 0
 271 201 302 214 328 239 c 0
 353 265 366 296 366 332 c 0
47 330 m 0
 47 357 52 382 62 404 c 0
 68 417 77 433 90 451 c 1
 32 509 l 1
 58 535 l 1
 117 479 l 1
 153 506 193 520 236 520 c 0
 262 520 286 515 307 505 c 0
 320 500 335 490 353 477 c 1
 411 535 l 1
 438 509 l 1
 379 451 l 1
 392 435 401 421 407 408 c 0
 417 385 422 359 422 329 c 0
 422 288 408 250 379 214 c 1
 438 156 l 1
 411 128 l 1
 353 186 l 1
 318 159 278 146 235 146 c 0
 204 146 177 151 155 161 c 0
 143 167 130 175 117 187 c 1
 58 128 l 1
 32 156 l 1
 90 214 l 1
 62 250 47 289 47 330 c 0
EndSplineSet
EndChar

StartChar: section
Encoding: 167 167 89
Width: 532
GlyphClass: 2
Flags: MW
HStem: -215 23<241.5 261.5 241.5 277.5> 542 21G<370.5 390.5> 729 23<261.5 280>
VStem: 42 75<235 354> 73 101<558 650.5> 74 80<-146.5 -61> 356 95 368 83<-116.5 -18> 407 88<173.5 310>
LayerCount: 2
Fore
SplineSet
391 101 m 1xe880
 413 78 428 58 436 41 c 0
 446 21 451 -4 451 -32 c 0
 451 -86 431 -130 390 -165 c 0
 352 -198 305 -215 250 -215 c 0
 206 -215 166 -202 132 -177 c 0
 93 -150 74 -114 74 -72 c 0
 74 -50 82 -31 98 -15 c 0
 114 2 133 10 154 10 c 0
 174 10 191 2 204 -12 c 0
 218 -27 224 -45 224 -65 c 0
 224 -94 206 -115 168 -128 c 0
 159 -131 154 -135 154 -140 c 0xe5
 154 -153 167 -165 192 -177 c 0
 215 -187 234 -192 249 -192 c 0
 274 -192 299 -184 325 -168 c 0
 354 -150 368 -129 368 -104 c 0
 368 -77 348 -48 309 -16 c 0
 290 1 249 28 187 67 c 0
 134 101 100 126 84 144 c 0
 56 175 42 213 42 257 c 0xf1
 42 322 74 381 137 432 c 1
 114 457 98 479 89 496 c 0
 78 518 73 543 73 573 c 0
 73 628 94 673 135 706 c 0
 174 737 221 752 278 752 c 0
 323 752 361 742 394 722 c 0
 432 698 451 665 451 623 c 0
 451 601 445 582 432 567 c 0
 418 550 401 542 380 542 c 0
 361 542 344 548 330 561 c 0
 315 573 308 589 308 608 c 0
 308 618 311 629 316 641 c 0
 323 653 330 661 338 665 c 0
 350 670 356 674 356 677 c 0xea
 356 689 345 701 323 713 c 0
 303 724 287 729 273 729 c 0
 250 729 227 720 207 702 c 0
 185 683 174 662 174 639 c 0
 174 597 214 553 295 505 c 0
 428 428 495 349 495 271 c 0
 495 205 460 148 391 101 c 1xe880
370 120 m 1
 395 140 407 162 407 185 c 0
 407 241 323 316 154 410 c 1xe480
 129 385 117 363 117 345 c 0xf0
 117 313 141 279 188 243 c 0
 232 208 293 167 370 120 c 1
EndSplineSet
EndChar

StartChar: guillemotleft
Encoding: 171 171 90
Width: 548
GlyphClass: 2
Flags: W
LayerCount: 2
Fore
SplineSet
326 297 m 1
 484 111 l 1
 448 111 l 1
 233 297 l 1
 448 483 l 1
 484 483 l 1
 326 297 l 1
156 297 m 1
 315 111 l 1
 279 111 l 1
 64 297 l 1
 279 483 l 1
 315 483 l 1
 156 297 l 1
EndSplineSet
EndChar

StartChar: logicalnot
Encoding: 172 172 91
Width: 510
GlyphClass: 2
Flags: MW
HStem: 249 18<24 347 24 472>
VStem: 348 124<2 267>
LayerCount: 2
Fore
SplineSet
348 2 m 1
 347 249 l 1
 24 249 l 1
 24 267 l 1
 472 267 l 1
 472 2 l 1
 348 2 l 1
EndSplineSet
EndChar

StartChar: degree
Encoding: 176 176 92
Width: 228
GlyphClass: 2
Flags: MW
HStem: 372 20<110.5 123 110.5 133.5> 656 20<110.5 123>
VStem: 23 73 137 73
LayerCount: 2
Fore
SplineSet
117 676 m 0
 149 676 173 658 190 623 c 0
 203 595 210 564 210 528 c 0
 210 490 204 457 191 429 c 0
 175 391 150 372 117 372 c 0
 84 372 59 390 42 427 c 0
 29 455 23 487 23 524 c 0
 23 561 29 593 42 621 c 0
 59 658 84 676 117 676 c 0
117 656 m 0
 104 656 97 646 96 627 c 2
 92 524 l 1
 96 421 l 2
 97 402 104 392 117 392 c 0
 129 392 136 402 137 421 c 2
 141 524 l 1
 137 627 l 2
 136 646 129 656 117 656 c 0
EndSplineSet
EndChar

StartChar: acute
Encoding: 180 180 93
Width: 25
GlyphClass: 2
Flags: MW
HStem: 567 226<220 328>
VStem: 208 161<587 762>
LayerCount: 2
Fore
SplineSet
322 793 m 0
 334 793 345 790 354 784 c 0
 364 777 369 768 369 756 c 0
 369 743 366 733 360 725 c 2
 246 577 l 2
 240 570 234 567 227 567 c 0
 213 567 207 574 208 587 c 0
 208 593 210 602 215 612 c 2
 276 760 l 2
 285 782 301 793 322 793 c 0
EndSplineSet
EndChar

StartChar: paragraph
Encoding: 182 182 94
Width: 677
GlyphClass: 2
Flags: MW
HStem: 636 31<385 446 385 385>
VStem: 23 362<413.5 636> 357 29<-50 254> 488 29<-57 588 -59 598 -59 603.5>
LayerCount: 2
Fore
SplineSet
657 640 m 1xd0
 550 639 l 2
 528 637 517 620 517 588 c 2
 517 -59 l 1
 488 -57 l 1
 488 598 l 2
 488 609 484 618 475 625 c 0
 467 633 457 636 446 636 c 2
 385 636 l 1xd0
 386 -50 l 1
 357 -50 l 1
 357 254 l 1xb0
 323 232 289 222 254 222 c 0
 190 222 136 243 91 286 c 0
 46 329 23 382 23 445 c 0
 23 514 50 571 104 616 c 0
 143 650 206 667 293 667 c 2
 657 667 l 1
 657 640 l 1xd0
EndSplineSet
EndChar

StartChar: periodcentered
Encoding: 183 183 95
AltUni2: 002219.ffffffff.0 002219.ffffffff.0
Width: 366
GlyphClass: 2
Flags: MW
HStem: 338 203<191 206 191 206>
VStem: 103 190<432 446 432 446>
LayerCount: 2
Fore
SplineSet
206 338 m 1
 191 338 l 1
 172 372 143 403 103 432 c 1
 103 446 l 1
 140 471 169 503 191 541 c 1
 206 541 l 1
 227 503 256 471 293 446 c 1
 293 432 l 1
 254 404 224 373 206 338 c 1
EndSplineSet
EndChar

StartChar: cedilla
Encoding: 184 184 96
Width: 36
GlyphClass: 2
Flags: MW
HStem: -365 322
VStem: 206 101<-274 -141>
LayerCount: 2
Fore
SplineSet
226 -43 m 1
 280 -70 307 -112 307 -170 c 0
 307 -210 295 -247 272 -280 c 0
 257 -303 229 -331 190 -365 c 1
 174 -352 l 1
 195 -314 206 -285 206 -263 c 0
 206 -225 185 -185 145 -142 c 1
 177 -109 204 -76 226 -43 c 1
EndSplineSet
EndChar

StartChar: guillemotright
Encoding: 187 187 97
Width: 548
GlyphClass: 2
Flags: W
LayerCount: 2
Fore
SplineSet
223 297 m 1
 64 483 l 1
 100 483 l 1
 315 297 l 1
 100 111 l 1
 64 111 l 1
 223 297 l 1
392 297 m 1
 233 483 l 1
 270 483 l 1
 484 297 l 1
 270 111 l 1
 233 111 l 1
 392 297 l 1
EndSplineSet
EndChar

StartChar: onequarter
Encoding: 188 188 98
Width: 766
GlyphClass: 2
Flags: MW
HStem: -26 16<519 567 519 567 567 574 672 713> 80 35<492 492 492 588 471 492> 284 17<45 45> 607 16<50 86 50 50>
VStem: 111 72<316 316 316 326 316 596> 588 69<9 376 80 376 115 309 309 309>
LayerCount: 2
Fore
SplineSet
689 713 m 1
 725 677 l 1
 81 -26 l 1
 48 9 l 1
 689 713 l 1
603 376 m 1
 657 376 l 1
 657 115 l 1
 708 115 l 1
 708 79 l 1
 656 79 l 1
 656 7 l 2
 656 -4 661 -10 672 -10 c 2
 713 -10 l 1
 713 -26 l 1
 519 -26 l 1
 519 -10 l 1
 567 -10 l 2
 581 -10 588 -3 588 9 c 2
 588 80 l 1
 471 80 l 1
 471 107 l 1
 603 376 l 1
588 309 m 1
 492 115 l 1
 588 114 l 1
 588 309 l 1
142 682 m 1
 184 682 l 1
 183 316 l 1
 187 305 l 2
 190 302 194 300 199 300 c 2
 247 301 l 1
 248 284 l 1
 45 284 l 1
 45 301 l 1
 93 300 l 2
 105 300 111 305 111 315 c 2
 111 326 l 1
 111 596 l 2
 111 603 103 607 86 607 c 2
 50 607 l 1
 50 623 l 1
 75 624 93 629 105 637 c 0
 116 644 128 659 142 682 c 1
EndSplineSet
Ligature2: "'frac' Diagonale Br+APwA-che in Lateinisch Nachschlagetabelle 7 Subtabelle" one slash four
EndChar

StartChar: onehalf
Encoding: 189 189 99
Width: 766
GlyphClass: 2
Flags: MW
HStem: -23 67<512 671 671 675 512 690 482 671> 211 81 284 17<46 46> 361 22<577.5 583> 607 16<51 87 51 51>
VStem: 112 72<316 316 316 326 316 596> 479 32<271 324.5> 640 81<254 282 241.5 283>
LayerCount: 2
Fore
SplineSet
690 713 m 1x9f
 726 677 l 1
 82 -26 l 1
 49 9 l 1
 690 713 l 1x9f
143 682 m 1
 185 682 l 1
 184 316 l 1
 188 305 l 2
 191 302 195 300 200 300 c 2
 248 301 l 1
 249 284 l 1
 46 284 l 1
 46 301 l 1xbf
 94 300 l 2
 106 300 112 305 112 315 c 2
 112 326 l 1
 112 596 l 2
 112 603 104 607 87 607 c 2
 51 607 l 1
 51 623 l 1
 76 624 94 629 106 637 c 0
 117 644 129 659 143 682 c 1
512 44 m 1
 671 44 l 2
 679 44 685 49 689 58 c 2
 697 83 l 1
 704 104 l 1
 719 103 l 1
 702 37 l 2
 696 17 693 -3 690 -23 c 1
 482 -23 l 1
 487 42 508 93 544 127 c 2
 596 178 l 2
 625 206 640 237 640 271 c 0
 640 295 635 315 624 332 c 0
 612 351 594 361 572 361 c 0
 558 361 545 357 532 351 c 0
 518 342 511 331 511 318 c 0
 511 304 520 296 538 292 c 0
 561 287 572 274 572 253 c 0
 572 241 568 231 559 223 c 0
 551 215 541 211 529 211 c 0xdf
 513 211 500 219 491 234 c 0
 483 247 479 262 479 280 c 0
 479 310 491 335 514 354 c 0
 536 373 562 383 593 383 c 0
 627 383 657 372 682 350 c 0
 708 327 721 299 721 265 c 0
 721 218 691 180 633 149 c 0
 595 129 571 115 562 108 c 0
 540 92 523 70 512 44 c 1
EndSplineSet
Ligature2: "'frac' Diagonale Br+APwA-che in Lateinisch Nachschlagetabelle 7 Subtabelle" one slash two
EndChar

StartChar: threequarters
Encoding: 190 190 100
Width: 777
GlyphClass: 2
Flags: MW
HStem: -26 16<531 580 531 580 580 586.5 684 726> 80 35<504 504 504 600 483 504> 285 13<134.5 151.5 134.5 158.5> 475 35<87 91.5> 494 14<143 152.5 132.5 162.5> 683 17<145 158.5>
VStem: 32 62<324.5 373.5> 53 44<599 658.5> 189 76<572.5 610.5 572.5 620> 191 82<396 408.5 378.5 440.5> 600 69<1.5 80 309 309>
LayerCount: 2
Fore
SplineSet
701 713 m 1xe420
 736 677 l 1
 93 -26 l 1
 60 9 l 1
 701 713 l 1xe420
187 505 m 1
 213 498 234 484 250 465 c 0
 265 445 273 422 273 395 c 0
 273 362 259 335 231 313 c 0
 206 295 176 285 141 285 c 0
 113 285 89 292 68 305 c 0
 44 320 32 341 32 367 c 0
 32 380 36 391 45 399 c 0
 53 408 64 412 77 412 c 0
 88 412 97 408 106 401 c 0
 114 393 118 384 118 373 c 0
 118 363 115 355 108 348 c 2
 98 338 l 2
 96 335 94 332 94 329 c 0
 94 320 100 313 111 306 c 0
 120 301 130 298 139 298 c 0
 164 298 179 312 187 341 c 0
 190 354 191 378 191 414 c 0
 191 467 177 494 148 494 c 0xee60
 138 494 129 492 121 488 c 2
 104 479 l 2
 99 476 94 475 89 475 c 0
 77 475 71 481 71 493 c 0
 71 504 79 510 95 510 c 0xf660
 101 510 109 509 117 509 c 0
 126 508 131 508 134 508 c 0
 171 508 189 535 189 588 c 0
 189 652 174 683 143 683 c 0
 132 683 123 681 114 676 c 0
 103 670 97 663 97 654 c 0xeda0
 97 649 101 644 109 638 c 0
 123 628 130 616 130 603 c 0
 130 593 127 583 120 576 c 0
 113 568 104 564 94 564 c 0xee20
 83 564 74 568 65 576 c 0
 57 584 53 594 53 604 c 0
 53 632 64 654 86 673 c 0
 107 691 131 700 159 700 c 0
 188 700 213 690 234 670 c 0
 255 650 265 625 265 596 c 0xeda0
 265 549 239 518 187 505 c 1
615 376 m 1
 669 376 l 1
 669 115 l 1
 720 115 l 1
 720 79 l 1
 668 79 l 1
 669 7 l 2
 669 -4 674 -10 684 -10 c 2
 726 -10 l 1
 726 -26 l 1
 531 -26 l 1
 531 -10 l 1
 580 -10 l 2
 593 -10 600 -3 600 9 c 2
 600 80 l 1
 483 80 l 1
 484 107 l 1
 615 376 l 1
600 309 m 1
 504 115 l 1
 601 114 l 1
 600 309 l 1
EndSplineSet
Ligature2: "'frac' Diagonale Br+APwA-che in Lateinisch Nachschlagetabelle 7 Subtabelle" three slash four
EndChar

StartChar: Agrave
Encoding: 192 192 101
Width: 627
GlyphClass: 2
Flags: MW
HStem: -4 31<197 207> 233 17 246 17<234 329 241 323> 472 72<456 551.5> 530 84<160 297.5>
VStem: 24 23<373 399.5 365.5 422.5> 72 107<47.5 125.5> 317 84<42 120 42 120> 519 25<129.5 150 115 157>
LayerCount: 2
Fore
SplineSet
449 233 m 1xc780
 417 128 401 68 401 52 c 0
 401 32 413 22 438 22 c 0
 464 22 485 36 500 65 c 0
 513 89 519 115 519 144 c 0
 519 170 514 189 503 202 c 0
 492 215 474 226 449 233 c 1xc780
234 246 m 1xa780
 185 91 l 2
 181 78 179 67 179 58 c 0
 179 37 188 27 206 27 c 0
 226 27 245 44 263 77 c 0
 270 91 280 116 292 154 c 2
 323 246 l 1
 234 246 l 1xa780
605 591 m 1
 615 587 l 1
 609 550 592 521 564 501 c 0
 538 482 506 472 468 472 c 0x9780
 444 472 402 481 341 498 c 0
 268 519 214 530 181 530 c 0
 139 530 106 515 82 484 c 0
 58 456 47 421 47 378 c 0
 47 353 52 332 63 316 c 0
 73 302 90 288 114 275 c 1
 159 428 l 1
 292 429 l 1
 241 263 l 1
 329 263 l 1xaf80
 379 427 l 1
 509 427 l 1
 456 250 l 1
 487 240 509 226 522 209 c 0
 537 191 544 166 544 134 c 0
 544 96 532 63 509 38 c 0
 485 11 454 -3 416 -3 c 0
 376 -3 347 10 330 37 c 0
 320 50 316 70 317 97 c 2
 317 120 l 1
 278 37 232 -4 182 -4 c 0
 148 -4 122 7 102 30 c 0
 82 51 72 79 72 112 c 0
 72 139 76 167 85 195 c 2
 106 258 l 1
 75 275 54 292 42 311 c 0
 30 330 24 356 24 390 c 0
 24 455 49 509 99 552 c 0
 146 593 203 614 270 614 c 0xcf80
 325 614 381 602 438 578 c 2
 495 554 l 2
 511 547 526 544 539 544 c 0x9780
 564 544 586 560 605 591 c 1
EndSplineSet
EndChar

StartChar: Adieresis
Encoding: 196 196 102
Width: 696
GlyphClass: 2
Flags: MW
HStem: -21 21G<582 582> 228 18<76 79> 620 31<190.5 218.5>
VStem: 43 81<482.5 577> 152 88 234 118<766 780.5> 279 133<384 468.5 384 479.5> 450 45 475 141<135 135> 489 118<766 780.5>
LayerCount: 2
Fore
SplineSet
295 697 m 1xf4
 254 733 234 757 234 769 c 0
 234 792 257 803 303 803 c 0
 336 803 352 794 352 776 c 0
 352 756 333 730 295 697 c 1xf4
240 166 m 1xfa80
 378 90 l 1
 476 165 l 1
 475 531 l 2xfa80
 475 554 466 583 450 616 c 1
 470 628 l 1
 479 612 488 591 495 565 c 0xf1
 499 553 502 542 505 531 c 1
 528 573 552 602 577 618 c 0
 602 634 639 643 687 646 c 1
 686 629 l 1
 658 621 639 606 628 585 c 0
 620 569 615 544 615 512 c 2
 616 141 l 2
 616 123 618 111 623 104 c 0
 633 92 642 87 650 87 c 0
 653 87 657 89 662 93 c 0
 664 94 667 96 670 98 c 2
 685 83 l 1
 582 -21 l 1
 546 -8 522 4 509 15 c 0
 488 32 477 56 476 85 c 2
 475 135 l 1
 340 24 l 2
 317 6 300 -9 289 -21 c 1
 211 26 144 58 90 75 c 1
 90 92 l 1
 119 110 l 2
 191 156 236 195 253 230 c 0
 270 263 279 322 279 409 c 0
 279 550 249 620 188 620 c 0
 173 620 158 616 146 607 c 0
 131 597 124 585 124 569 c 0
 124 550 129 535 140 523 c 2
 203 456 l 2
 227 429 240 399 240 367 c 0
 240 324 216 286 170 255 c 0
 147 240 117 231 79 228 c 1
 76 246 l 1
 127 253 152 275 152 312 c 0
 152 329 146 343 135 354 c 2
 86 400 l 2
 57 428 43 462 43 503 c 0
 43 545 61 581 97 610 c 0
 130 637 169 651 212 651 c 0
 262 651 307 635 347 604 c 0
 390 570 412 511 412 426 c 0
 412 342 387 277 335 232 c 0
 315 215 283 193 240 166 c 1xfa80
550 697 m 1
 509 733 489 757 489 769 c 0
 489 792 512 803 558 803 c 0
 591 803 607 794 607 776 c 0xf040
 607 756 588 730 550 697 c 1
EndSplineSet
EndChar

StartChar: Aring
Encoding: 197 197 103
Width: 718
GlyphClass: 2
Flags: MW
HStem: -21 21G<592 592> 228 18<86 89> 620 31<200.5 229> 648 26<392 408 392 412> 779 26<392 408>
VStem: 53 81<482.5 577> 162 88 289 133<384 468.5 384 479.5> 302 35<719 734.5 719 738.5> 460 45 462 35<719 734.5> 485 141<135 135>
LayerCount: 2
Fore
SplineSet
400 805 m 0xdea0
 424 805 446 798 465 784 c 0
 486 769 497 750 497 727 c 0
 497 703 486 684 465 668 c 0
 446 655 424 648 400 648 c 0
 375 648 354 655 334 668 c 0
 313 684 302 703 302 727 c 0
 302 750 313 769 334 785 c 0
 354 798 376 805 400 805 c 0xdea0
400 779 m 0
 384 779 369 774 357 765 c 0
 344 755 337 742 337 727 c 0
 337 711 344 698 357 688 c 0
 369 679 384 674 400 674 c 0
 416 674 430 679 442 688 c 0
 456 698 462 711 462 727 c 0
 462 742 456 755 442 765 c 0
 430 774 416 779 400 779 c 0
250 166 m 1
 388 90 l 1
 486 165 l 1
 485 531 l 2xef10
 485 554 477 583 460 616 c 1
 480 628 l 1
 489 612 498 591 505 565 c 0xee40
 509 553 512 542 515 531 c 1
 538 573 562 602 587 618 c 0
 612 634 649 643 697 646 c 1
 696 629 l 1
 668 621 649 606 639 585 c 0
 630 569 625 544 625 512 c 2
 626 141 l 2
 626 123 628 111 633 104 c 0
 643 92 652 87 660 87 c 0
 663 87 667 89 672 93 c 0
 674 94 677 96 681 98 c 1
 695 83 l 1
 592 -21 l 1
 557 -8 532 4 519 15 c 0
 498 32 487 56 486 85 c 2
 485 135 l 1
 350 24 l 2
 327 6 310 -9 299 -21 c 1
 221 26 155 58 101 75 c 1
 100 92 l 1
 129 110 l 2
 201 156 246 195 264 230 c 0
 281 263 289 322 289 409 c 0
 289 550 259 620 199 620 c 0
 183 620 168 616 156 607 c 0
 141 597 134 585 134 569 c 0
 134 550 140 535 150 523 c 2
 213 456 l 2
 238 429 250 399 250 367 c 0
 250 324 227 286 180 255 c 0
 157 240 127 231 89 228 c 1
 86 246 l 1
 137 253 162 275 162 312 c 0
 162 329 156 343 145 354 c 2
 96 400 l 2
 68 428 53 462 53 503 c 0
 53 545 71 581 107 610 c 0
 140 637 179 651 222 651 c 0
 272 651 317 635 357 604 c 0
 401 570 422 511 422 426 c 0xef10
 422 342 397 277 346 232 c 0
 326 215 294 193 250 166 c 1
EndSplineSet
EndChar

StartChar: AE
Encoding: 198 198 104
Width: 1136
GlyphClass: 2
Flags: MW
HStem: -20 78<844 858> 134 39<839 854.5 836.5 890.5> 435 96<997.5 1059.5> 606 81<949.5 1031> 703 29<192 194> 720 35<688.5 734>
VStem: 40 71<552.5 648> 153 96<332.5 435> 289 134<432 478> 481 149<456.5 464> 738 19<263 271> 749 90<483 609> 903 100<221 315.5>
LayerCount: 2
Fore
SplineSet
831 651 m 1xf7d8
 865 685 l 2
 897 715 918 738 929 753 c 1
 950 730 963 715 969 710 c 0
 987 695 1004 687 1021 687 c 0
 1041 687 1060 699 1077 724 c 1
 1095 714 l 1
 1052 642 1008 606 961 606 c 0
 938 606 906 622 865 654 c 1
 848 638 839 619 839 599 c 0xf7d8
 839 573 853 544 881 512 c 2
 917 472 l 2
 923 465 933 453 945 437 c 1
 992 492 l 2
 1014 518 1033 531 1050 531 c 0
 1069 531 1093 515 1122 484 c 1
 1097 456 1075 427 1054 397 c 1
 1032 422 1015 435 1003 435 c 0
 992 435 980 428 968 414 c 1
 991 370 1003 332 1003 299 c 0
 1003 258 991 221 968 188 c 0
 943 152 910 134 871 134 c 0
 807 134 763 177 738 263 c 1
 757 271 l 1xf7e8
 771 239 782 217 790 207 c 0
 806 184 825 173 848 173 c 0
 861 173 874 179 885 190 c 0
 897 202 903 214 903 228 c 0
 903 244 892 267 870 296 c 2
 819 356 l 2
 772 413 749 462 749 504 c 0
 749 536 770 578 811 632 c 1
 783 691 752 720 716 720 c 0xf7d8
 659 720 630 661 630 542 c 0
 630 371 646 253 677 187 c 0
 696 148 721 118 752 95 c 0
 786 70 824 58 864 58 c 0
 956 58 1033 102 1094 190 c 1
 1111 186 l 1
 1092 123 1056 72 1002 35 c 0
 951 -2 891 -20 825 -20 c 0
 761 -20 700 -2 641 33 c 0
 614 49 592 68 575 89 c 0
 562 105 547 130 529 164 c 1
 447 104 381 49 330 -1 c 2
 309 -23 l 1
 264 14 232 39 211 52 c 0
 177 74 139 89 99 97 c 1
 99 115 l 1
 168 147 217 185 246 228 c 0
 265 256 278 291 284 334 c 0
 287 359 289 397 289 448 c 0
 289 508 288 545 287 561 c 0
 282 609 270 644 251 666 c 0
 229 691 206 703 182 703 c 0
 165 703 150 697 135 684 c 0
 119 670 111 656 111 640 c 0
 111 619 130 590 169 553 c 0
 222 501 249 455 249 415 c 0
 249 378 231 344 194 312 c 0
 165 286 129 267 88 253 c 1
 79 275 l 1
 128 291 153 316 153 349 c 0
 153 366 138 391 109 424 c 0
 86 451 69 472 60 489 c 0
 47 513 40 539 40 566 c 0
 40 616 57 656 92 687 c 0
 126 717 167 732 217 732 c 0xfbd8
 287 732 340 704 376 648 c 0
 407 601 423 541 423 467 c 0
 423 397 407 342 375 299 c 0
 353 271 308 232 238 183 c 1
 383 86 l 1
 517 191 l 1
 493 263 481 331 481 395 c 0
 481 533 514 633 580 695 c 0
 622 735 666 755 711 755 c 0
 762 755 801 720 831 651 c 1xf7d8
EndSplineSet
EndChar

StartChar: Idieresis
Encoding: 207 207 105
Width: 263
GlyphClass: 2
Flags: MW
HStem: -22 21G<158 158> 521 20G 592 128<211 228.5>
VStem: -17 128<650.5 665.5> 69 125<116 379 379 390> 155 128<648.5 663.5>
LayerCount: 2
Fore
SplineSet
220 720 m 0xe4
 238 720 253 714 265 702 c 0
 277 690 283 675 283 657 c 0
 283 640 277 624 264 611 c 0
 252 598 237 592 220 592 c 0
 202 592 187 598 174 610 c 0
 161 621 155 636 155 654 c 0
 155 673 161 688 173 701 c 0
 186 714 201 720 220 720 c 0xe4
48 722 m 0
 66 722 81 716 93 704 c 0
 105 692 111 677 111 659 c 0
 111 642 105 626 93 614 c 0
 80 601 66 594 48 594 c 0
 30 594 15 600 2 612 c 0
 -11 623 -17 638 -17 656 c 0xf0
 -17 675 -11 690 1 703 c 0
 14 716 29 722 48 722 c 0
158 -22 m 1
 120 -5 96 12 85 29 c 0
 74 45 69 75 69 116 c 2
 69 379 l 2
 69 401 66 414 61 419 c 0
 58 422 52 424 45 424 c 0
 42 424 37 422 29 418 c 1
 18 440 l 1
 67 472 107 505 139 541 c 1
 176 498 209 469 238 453 c 1
 238 436 l 1
 208 431 194 417 194 391 c 2
 194 104 l 2xe8
 194 97 197 91 203 85 c 0
 208 78 215 75 222 75 c 0
 227 75 234 79 243 87 c 1
 256 69 l 1
 229 45 l 1
 191 9 l 1
 158 -22 l 1
EndSplineSet
EndChar

StartChar: Odieresis
Encoding: 214 214 106
Width: 742
GlyphClass: 2
Flags: MW
HStem: -22 93<372 536.5> 1 21G<49 49> 56 102<109.5 231> 177 37<117 121.5 91.5 149.5> 510 121<187.5 322.5> 532 130<380 514.5>
VStem: 18 22<279 301> 47 84<421.5 527> 145 110<236.5 305.5> 188 118<770.5 784> 411 118<770.5 784> 670 29<281 337.5>
LayerCount: 2
Fore
SplineSet
155 571 m 1x1bb0
 139 553 131 535 131 519 c 0
 131 495 145 466 172 434 c 2
 227 370 l 2
 245 343 255 318 255 293 c 0
 255 263 242 235 218 212 c 0
 193 188 165 177 134 177 c 0
 100 177 72 188 51 211 c 0
 29 234 18 262 18 296 c 1
 40 301 l 1
 49 243 73 214 110 214 c 0
 133 214 145 225 145 248 c 0
 145 266 132 291 104 323 c 0
 66 368 47 406 47 437 c 0
 47 488 78 539 140 590 c 1
 124 609 112 629 103 650 c 1
 120 665 l 1
 143 642 171 631 204 631 c 0x1bb0
 214 631 230 633 250 638 c 0
 315 654 364 662 396 662 c 0
 475 662 542 638 597 589 c 0
 665 529 699 436 699 309 c 0
 699 253 688 202 667 154 c 0
 644 102 610 62 567 32 c 0
 514 -4 457 -22 397 -22 c 0x97b0
 347 -22 292 -8 230 19 c 0
 173 44 136 56 118 56 c 0
 101 56 87 51 76 40 c 0
 69 33 60 20 49 1 c 1
 26 13 l 1
 74 110 136 158 214 158 c 0x73b0
 248 158 283 151 318 136 c 2
 413 95 l 2
 450 79 483 71 512 71 c 0
 561 71 601 99 632 155 c 0
 657 202 670 253 670 307 c 0
 670 368 655 419 625 461 c 0
 591 509 544 532 485 532 c 0x97b0
 467 532 450 531 435 528 c 2
 368 515 l 2
 352 511 333 510 312 510 c 0
 277 510 248 514 226 522 c 0
 203 531 179 547 155 571 c 1x1bb0
249 700 m 1
 208 737 188 761 188 772 c 0
 188 796 211 807 257 807 c 0
 290 807 306 798 306 781 c 0x1370
 306 760 287 733 249 700 c 1
472 700 m 1
 431 737 411 761 411 772 c 0
 411 796 434 807 480 807 c 0
 513 807 529 798 529 781 c 0
 529 760 510 733 472 700 c 1
EndSplineSet
EndChar

StartChar: multiply
Encoding: 215 215 107
Width: 727
GlyphClass: 2
Flags: MW
HStem: -1 21G<659 659>
LayerCount: 2
Fore
SplineSet
89 674 m 1
 374 391 l 1
 648 665 l 1
 702 611 l 1
 428 336 l 1
 712 52 l 1
 659 -1 l 1
 375 283 l 1
 99 8 l 1
 46 62 l 1
 320 337 l 1
 36 622 l 1
 89 674 l 1
EndSplineSet
EndChar

StartChar: Oslash
Encoding: 216 216 108
Width: 811
GlyphClass: 2
Flags: MW
HStem: -22 121<437 577> 68 122<121 241.5> 200 47<103 168> 602 128<183.5 336> 743 20G<142 142>
VStem: 24 20<321.5 345> 59 22<22 26> 61 91<489 609.5> 165 119<284 373.5> 735 33<321.5 375>
LayerCount: 2
Fore
SplineSet
525 759 m 1x7dc0
 555 838 l 1
 581 829 l 1
 552 750 l 1
 616 711 662 669 692 623 c 0
 743 546 768 459 768 362 c 0
 768 233 726 131 641 57 c 0
 581 4 519 -22 455 -22 c 0xbdc0
 419 -22 360 -9 279 18 c 1
 244 -78 l 1
 216 -66 l 1
 251 29 l 1
 229 39 l 2
 187 58 154 68 131 68 c 0
 111 68 94 53 81 22 c 1
 59 26 l 1x7ec0
 68 90 101 138 159 169 c 0
 185 183 209 190 233 190 c 0
 250 190 274 186 305 177 c 1
 476 630 l 1
 463 628 455 627 452 626 c 2
 384 609 l 2
 364 604 345 602 327 602 c 0
 281 602 233 618 184 651 c 1
 162 637 152 620 152 599 c 0
 152 573 163 548 184 524 c 2
 242 459 l 2
 270 428 284 393 284 354 c 0
 284 315 271 280 247 250 c 0
 220 217 187 200 149 200 c 0
 112 200 81 215 58 243 c 0
 35 270 24 303 24 340 c 1
 44 345 l 1
 61 280 86 247 120 247 c 0
 132 247 143 251 152 260 c 0
 161 268 165 278 165 290 c 0
 165 305 155 325 136 350 c 0
 86 415 61 468 61 510 c 0
 61 564 97 617 169 668 c 1
 140 694 123 723 118 755 c 1
 142 763 l 1
 157 741 174 730 193 730 c 0
 208 730 223 732 239 737 c 2
 304 757 l 2
 348 771 391 778 434 778 c 0
 464 778 494 771 525 759 c 1x7dc0
510 632 m 1
 335 168 l 1
 367 155 l 1
 459 117 l 2
 488 105 517 99 546 99 c 0
 608 99 656 127 691 184 c 0
 720 232 735 289 735 354 c 0
 735 396 727 437 710 477 c 0
 694 520 670 554 640 580 c 0
 613 603 569 621 510 632 c 1
EndSplineSet
EndChar

StartChar: Udieresis
Encoding: 220 220 109
Width: 592
GlyphClass: 2
Flags: MW
HStem: -21 21G<487 487> 556 21G<20 27>
VStem: 65 143<132 132 132 540> 126 118<766 780.5> 338 118<765 778.5> 376 144<107.5 118 118 138 138 138>
LayerCount: 2
Fore
SplineSet
376 138 m 1xe4
 229 14 l 2
 216 4 204 -8 193 -21 c 1
 158 7 133 26 117 35 c 0
 92 50 63 60 29 66 c 1
 29 86 l 1
 53 94 65 105 65 121 c 2
 65 540 l 2
 65 557 61 565 52 565 c 0
 49 565 45 564 40 562 c 2
 27 556 l 1
 20 577 l 1
 64 603 102 627 134 652 c 1
 184 632 209 595 209 539 c 2
 208 132 l 1
 268 83 l 1
 375 169 l 1
 376 517 l 2
 376 537 368 548 352 548 c 0
 343 548 332 543 317 534 c 1
 304 555 l 1
 347 581 388 611 428 643 c 1
 478 606 521 580 559 567 c 1
 559 547 l 1
 542 547 532 544 527 538 c 0
 522 532 520 520 520 503 c 2
 520 118 l 2
 520 97 527 86 541 86 c 0
 547 86 556 92 567 105 c 1
 584 89 l 1
 487 -21 l 1
 453 -6 430 8 416 19 c 0
 389 40 376 62 376 87 c 2
 376 138 l 1xe4
188 697 m 1
 146 733 126 757 126 769 c 0
 126 792 149 803 195 803 c 0
 228 803 244 794 244 776 c 0xd0
 244 756 225 730 188 697 c 1
399 695 m 1
 358 731 338 755 338 767 c 0
 338 790 361 802 407 802 c 0
 440 802 456 793 456 775 c 0xc8
 456 755 437 728 399 695 c 1
EndSplineSet
EndChar

StartChar: germandbls
Encoding: 223 223 110
Width: 483
GlyphClass: 2
Flags: MW
HStem: -205 57 525 20G 618 94<173 209> 649 90<88.6665 97.3335>
VStem: 52 20 93 27 217 21<726 733 694.667 734 694.667 734> 300 138 312 136
LayerCount: 2
Fore
SplineSet
183 429 m 1xdf
 269.999023438 481 l 2
 296.666015625 499.666992188 322.33203125 521 346.999023438 545 c 1
 414.33203125 497.666992188 447.999023438 445.666992188 447.999023438 389 c 0xde80
 447.999023438 307.666992188 393.33203125 250.333007812 283.999023438 217 c 1
 335.33203125 206.333007812 371.666015625 188.333007812 392.999023438 163 c 0
 422.999023438 127 437.999023438 81.3330078125 437.999023438 26 c 0
 437.999023438 -30.6669921875 425.33203125 -81 399.999023438 -125 c 0
 369.33203125 -178.333007812 327.999023438 -205 275.999023438 -205 c 0
 243.999023438 -205 215.499023438 -196.333007812 190.499023438 -179 c 0
 165.499023438 -161.666992188 147.666015625 -138 136.999023438 -108 c 1
 132.33203125 -140 126.666015625 -172.666992188 119.999023438 -206 c 1
 92.9990234375 -205 l 1
 75.666015625 -56.3330078125 60.3330078125 156.666992188 47 434 c 1
 9 434 l 1
 9 452 l 1
 26.3330078125 465.333007812 38 479.666992188 44 495 c 0
 49.3330078125 507.666992188 52 526 52 550 c 0
 52 562 51.3330078125 573 50 583 c 2
 45 636 l 2
 44.3330078125 642.666992188 44 649.333007812 44 656 c 0
 44 711.333007812 66.3330078125 739 111 739 c 0xdf
 132.333007812 739 156.666992188 732.333007812 184 719 c 0
 192 714.333007812 199 712 205 712 c 0
 213 712 217 716.666992188 217 726 c 2
 217 734 l 1
 238 733 l 1
 238 656.333007812 218.333007812 618 179 618 c 0xef
 167 618 149.666992188 624.333007812 127 637 c 0
 113 645 101.666992188 649 93 649 c 0
 79 649 72 640.666992188 72 624 c 0
 72 592.666992188 91.3330078125 560.333007812 130 527 c 0
 148.666992188 510.333007812 161.5 496 168.5 484 c 0
 175.5 472 180.333007812 453.666992188 183 429 c 1xdf
176.999023438 221 m 1
 218.999023438 227 246.666015625 234 259.999023438 242 c 0
 294.666015625 260.666992188 311.999023438 297.333007812 311.999023438 352 c 0
 311.999023438 399.333007812 293.33203125 423 255.999023438 423 c 0
 237.999023438 423 214.33203125 415 184.999023438 399 c 1
 179.666015625 308.333007812 176.999023438 249 176.999023438 221 c 1
148.999023438 -55 m 1
 166.33203125 -117 197.33203125 -148.000976562 241.999023438 -148.000976562 c 0
 269.33203125 -148.000976562 286.999023438 -120.000976562 294.999023438 -64.0009765625 c 0
 298.33203125 -41.333984375 299.999023438 -3.6669921875 299.999023438 49 c 0xcf
 299.999023438 107 288.33203125 147.666992188 264.999023438 171 c 0
 246.999023438 188.333007812 216.999023438 197 174.999023438 197 c 1
 168.999023438 117.666992188 160.33203125 33.6669921875 148.999023438 -55 c 1
EndSplineSet
EndChar

StartChar: adieresis
Encoding: 228 228 111
Width: 510
GlyphClass: 2
Flags: MW
HStem: -21 21G<385 385> 527 20G 729 20G<197 213.667>
VStem: 55 127<156 188 188 311 311 332> 146 118<681.667 698> 307 124<77.6665 111 102.333 391> 356 118<680.333 696>
LayerCount: 2
Fore
SplineSet
307 93 m 1xe4
 255.666992188 62.3330078125 201.666992188 24.3330078125 145 -21 c 1
 107.666992188 7 83.3330078125 32 72 54 c 0
 60.6669921875 76 55 110 55 156 c 2
 55 311 l 2
 55 353 62.6669921875 385 78 407 c 0
 91.3330078125 426.333007812 117.666992188 446.666992188 157 468 c 0
 204.333007812 494 248.333007812 520.333007812 289 547 c 1
 342.333007812 499.666992188 404 468.666992188 474 454 c 1
 474 429 l 1xf2
 454.666992188 426.333007812 442.666992188 419 438 407 c 0
 434 399.666992188 432 384.666992188 432 362 c 2
 431 111 l 2
 431 93.6669921875 436.333007812 85 447 85 c 0
 451.666992188 85 457.666992188 88 465 94 c 0
 467.666992188 96 472.333007812 99 479 103 c 1
 499 80 l 1
 459.666992188 48 428 20.6669921875 404 -2 c 2
 385 -21 l 1
 355.666992188 -7.6669921875 335.666992188 6.666015625 325 21.9990234375 c 0
 313 38.666015625 307 62.3330078125 307 93 c 1xe4
307 391 m 1xf4
 270.333007812 411.666992188 236.333007812 432.666992188 205 454 c 1
 189.666992188 440 182 425 182 409 c 2
 182 188 l 2
 182 120.666992188 195 87 221 87 c 0
 230.333007812 87 242.333007812 91.3330078125 257 100 c 2
 307 127 l 1
 307 391 l 1xf4
190 577 m 1
 160.666992188 614.333007812 146 651.666992188 146 689 c 0
 146 707 151.5 721.5 162.5 732.5 c 0
 173.5 743.5 188 749 206 749 c 0
 221.333007812 749 234.666992188 745 246 737 c 0
 258 728.333007812 264 716.333007812 264 701 c 0xe8
 264 662.333007812 239.333007812 621 190 577 c 1
400 575 m 1
 370.666992188 612.333007812 356 649.666992188 356 687 c 0
 356 705 361.5 719.5 372.5 730.5 c 0
 383.5 741.5 398 747 416 747 c 0
 431.333007812 747 444.666992188 743 456 735 c 0
 468 726.333007812 474 714.666992188 474 700 c 0xe2
 474 660.666992188 449.333007812 619 400 575 c 1
EndSplineSet
EndChar

StartChar: aring
Encoding: 229 229 112
Width: 577
GlyphClass: 2
Flags: MW
HStem: -20 21G 574 33<251.667 270 251.667 275.333> 743 34<251.667 270.333>
VStem: 55 127<151.999 183.999 183.999 303.999 303.999 323.999> 156 38<665.667 684.667 665.667 688.667> 307 124<75 107.999 99.6655 381.999> 328 37<665 683.667>
LayerCount: 2
Fore
SplineSet
365 677 m 0xea
 365 648.333007812 354.833007812 624 334.5 604 c 0
 314.166992188 584 289.666992188 574 261 574 c 0
 232.333007812 574 207.666992188 584 187 604 c 0
 166.333007812 624 156 647.666992188 156 675 c 0
 156 702.333007812 166.333007812 726.166992188 187 746.5 c 0
 207.666992188 766.833007812 232.333007812 777 261 777 c 0
 289 777 313.333007812 767 334 747 c 0
 354.666992188 727 365 703.666992188 365 677 c 0xea
328 674 m 0
 328 693.333007812 321.5 709.666992188 308.5 723 c 0
 295.5 736.333007812 279.666992188 743 261 743 c 0
 242.333007812 743 226.5 736.5 213.5 723.5 c 0
 200.5 710.5 194 694.333007812 194 675 c 0
 194 656.333007812 200.5 640.333007812 213.5 627 c 0
 226.5 613.666992188 242.333007812 607 261 607 c 0
 279 607 294.666992188 613.666992188 308 627 c 0
 321.333007812 640.333007812 328 656 328 674 c 0
307 90 m 1xf4
 259 62.6669921875 205 25.9990234375 145 -20.0009765625 c 1
 114.333007812 1.9990234375 93.3330078125 20.33203125 82 34.9990234375 c 0
 64 58.9990234375 55 97.9990234375 55 151.999023438 c 2
 55 303.999023438 l 2
 55 343.999023438 61.6669921875 373.999023438 75 393.999023438 c 0
 88.3330078125 413.999023438 115.666992188 434.999023438 157 456.999023438 c 0
 187.666992188 472.999023438 213.333007812 487.33203125 234 499.999023438 c 0
 244 505.999023438 262.333007812 517.666015625 289 534.999023438 c 1
 313.666992188 513.666015625 336.333007812 497.33203125 357 485.999023438 c 0
 393.666992188 465.999023438 432.666992188 451.999023438 474 443.999023438 c 1
 474 418.999023438 l 1
 454.666992188 416.33203125 442.333007812 408.999023438 437 396.999023438 c 0
 433.666992188 390.33203125 432 375.999023438 432 353.999023438 c 2
 431 107.999023438 l 2
 431 91.33203125 436.666992188 82.9990234375 448 82.9990234375 c 0
 452.666992188 82.9990234375 458.333007812 85.9990234375 465 91.9990234375 c 0
 469 94.666015625 473.666992188 97.3330078125 479 100 c 1
 499 78 l 1
 480.333007812 63.3330078125 448.666992188 36.3330078125 404 -3 c 2
 385 -21 l 1
 353.666992188 -7 332.833007812 7.5 322.5 22.5 c 0
 312.166992188 37.5 307 60 307 90 c 1xf4
307 381.999023438 m 1
 272.333007812 401.33203125 238.333007812 421.999023438 205 443.999023438 c 1
 189.666992188 429.33203125 182 414.33203125 182 398.999023438 c 2
 182 183.999023438 l 2
 182 117.999023438 195 84.9990234375 221 84.9990234375 c 0
 230.333007812 84.9990234375 242.333007812 88.9990234375 257 96.9990234375 c 2
 307 123.999023438 l 1
 307 381.999023438 l 1
EndSplineSet
EndChar

StartChar: ae
Encoding: 230 230 113
Width: 660
GlyphClass: 2
Flags: MW
HStem: -21 21G 525 20G
VStem: 55 127<152 184 184 304 304 330.333> 307 128<273 273 273 382 273 382>
LayerCount: 2
Fore
SplineSet
479 476 m 1
 461 464 449 447.666992188 443 427 c 0
 436.333007812 403.666992188 433.333007812 370 434 326 c 2
 435 273 l 1
 531 308 l 1
 479 476 l 1
320 97 m 1
 263.333007812 65 205 25.6669921875 145 -21 c 1
 107.666992188 7 83.3330078125 31.5 72 52.5 c 0
 60.6669921875 73.5 55 106.666992188 55 152 c 2
 55 304 l 2
 55 356.666992188 67 393 91 413 c 0
 94.3330078125 415.666992188 116.333007812 430.666992188 157 458 c 2
 269 531 l 2
 271 533 277 537.666992188 287 545 c 1
 317.666992188 519.666992188 348.666992188 496.666992188 380 476 c 1
 410.666992188 491.333007812 445.333007812 504.666992188 484 516 c 0
 507.333007812 522 539.666992188 532.333007812 581 547 c 1
 650 325 l 1
 438 242 l 1
 438 202.666992188 445.666992188 170 461 144 c 0
 480.333007812 112.666992188 508.333007812 97 545 97 c 0
 565 97 593 108.666992188 629 132 c 1
 642 112 l 1
 596 78.6669921875 540.666992188 35 476 -19 c 1
 437.333007812 -3 408.5 12.1669921875 389.5 26.5 c 0
 370.5 40.8330078125 347.333007812 64.3330078125 320 97 c 1
307 382 m 1
 270.333007812 402.666992188 236.333007812 423.333007812 205 444 c 1
 189.666992188 430 182 415 182 399 c 2
 182 184 l 2
 182 118 195 85 221 85 c 0
 231 85 243 89 257 97 c 2
 307 125 l 1
 307 382 l 1
EndSplineSet
EndChar

StartChar: edieresis
Encoding: 235 235 114
Width: 413
GlyphClass: 2
Flags: MW
HStem: -20 21G 526 20G<317 317> 594 128<127 144 125.667 144.667 319 336.667>
VStem: 43 128<272 272 272 306.667> 71 128<650.333 665.333> 263 128<650.333 665.333>
LayerCount: 2
Fore
SplineSet
328 722 m 0xe4
 345.333007812 722 360.166992188 716 372.5 704 c 0
 384.833007812 692 391 677 391 659 c 0
 391 641.666992188 384.833007812 626.5 372.5 613.5 c 0
 360.166992188 600.5 345.333007812 594 328 594 c 0
 310 594 294.666992188 599.833007812 282 611.5 c 0
 269.333007812 623.166992188 263 638 263 656 c 0
 263 674.666992188 269.166992188 690.333007812 281.5 703 c 0
 293.833007812 715.666992188 309.333007812 722 328 722 c 0xe4
135 722 m 0
 153 722 168.166992188 716 180.5 704 c 0
 192.833007812 692 199 677 199 659 c 0
 199 641.666992188 192.833007812 626.5 180.5 613.5 c 0
 168.166992188 600.5 153.333007812 594 136 594 c 0
 118 594 102.666992188 599.833007812 90 611.5 c 0
 77.3330078125 623.166992188 71 638 71 656 c 0xec
 71 674.666992188 77 690.333007812 89 703 c 0
 101 715.666992188 116.333007812 722 135 722 c 0
317 546 m 1
 386 325 l 1
 174 241 l 1
 174 200.333007812 181.333007812 169 196 147 c 0
 218 113 246.333007812 96 281 96 c 0
 301.666992188 96 329.666992188 107.666992188 365 131 c 1
 378 111 l 1
 332.666992188 77.6669921875 277.333007812 34 212 -20 c 1
 131.333007812 16 82.6669921875 53.6669921875 66 93 c 0
 50.6669921875 128.333007812 43 185 43 263 c 0xf4
 43 350.333007812 55 410.333007812 79 443 c 0
 97 468.333007812 144 492.333007812 220 515 c 2
 317 546 l 1
215 476 m 1
 197 463.333007812 185.333007812 446.666992188 180 426 c 0
 172.666992188 403.333007812 169.333007812 369.666992188 170 325 c 2
 171 272 l 1
 267 307 l 1
 215 476 l 1
EndSplineSet
EndChar

StartChar: idieresis
Encoding: 239 239 115
Width: 263
GlyphClass: 2
Flags: MW
HStem: -22 21G<157.999 157.999> 521 20G 592 128<211 228.667>
VStem: -17 128 69 125 155 128<648.333 663.333>
LayerCount: 2
Fore
SplineSet
220 720 m 0xe4
 238 720 253 714 265 702 c 0
 277 690 283 675 283 657 c 0
 283 639.666992188 276.833007812 624.5 264.5 611.5 c 0
 252.166992188 598.5 237.333007812 592 220 592 c 0
 202 592 186.666992188 597.833007812 174 609.5 c 0
 161.333007812 621.166992188 155 636 155 654 c 0
 155 672.666992188 161.166992188 688.333007812 173.5 701 c 0
 185.833007812 713.666992188 201.333007812 720 220 720 c 0xe4
48 722 m 0
 66 722 80.9990234375 716 92.9990234375 704 c 0
 104.999023438 692 110.999023438 677 110.999023438 659 c 0
 110.999023438 641.666992188 104.83203125 626.5 92.4990234375 613.5 c 0
 80.166015625 600.5 65.3330078125 594 48 594 c 0
 30 594 14.6669921875 599.833007812 2 611.5 c 0
 -10.6669921875 623.166992188 -17 638 -17 656 c 0xf0
 -17 674.666992188 -10.8330078125 690.333007812 1.5 703 c 0
 13.8330078125 715.666992188 29.3330078125 722 48 722 c 0
157.999023438 -22 m 1
 119.999023438 -5.3330078125 95.6650390625 11.5 84.998046875 28.5 c 0
 74.3310546875 45.5 68.998046875 74.6669921875 68.998046875 116 c 2
 68.998046875 379 l 2
 68.998046875 401 66.3310546875 414.333007812 60.998046875 419 c 0
 57.6650390625 422.333007812 52.33203125 424 44.9990234375 424 c 0
 42.33203125 424 36.9990234375 422 28.9990234375 418 c 1
 17.9990234375 440 l 1
 66.666015625 471.333007812 106.999023438 505 138.999023438 541 c 1
 175.666015625 498.333007812 208.666015625 469 237.999023438 453 c 1
 237.999023438 436 l 1
 208.666015625 431.333007812 193.999023438 416.333007812 193.999023438 391 c 2
 193.999023438 104 l 2xe8
 193.999023438 97.3330078125 196.83203125 90.8330078125 202.499023438 84.5 c 0
 208.166015625 78.1669921875 214.666015625 75 221.999023438 75 c 0
 226.666015625 75 233.666015625 79 242.999023438 87 c 1
 255.999023438 69 l 1
 228.999023438 45 l 1
 190.999023438 9 l 1
 157.999023438 -22 l 1
EndSplineSet
EndChar

StartChar: ntilde
Encoding: 241 241 116
Width: 538
GlyphClass: 2
Flags: MW
HStem: -22 21G<132 151 132 132> 528 20G 593 90<383 393.5> 614 91<196.5 239>
VStem: 78 125<135 385> 331 125<17 92>
LayerCount: 2
Fore
SplineSet
203 385 m 1xcc
 203 124 l 2
 203 110 218 95 249 79 c 1
 249 65 l 1
 221 53 201 41 188 31 c 0
 176 20 164 2 151 -22 c 1
 132 -22 l 1
 118 3 104 21 92 32 c 0
 79 43 60 54 33 65 c 1
 33 78 l 1
 54 88 66 95 71 101 c 0
 76 107 78 118 78 135 c 2
 78 405 l 2
 78 415 78 422 77 424 c 0
 76 429 72 433 67 437 c 0
 63 440 59 442 56 442 c 0
 51 442 46 440 39 435 c 2
 30 430 l 1
 13 453 l 1
 27 462 43 475 63 490 c 0
 83 506 104 525 126 548 c 1
 156 534 176 518 186 502 c 0
 196 486 202 461 205 426 c 1
 269 468 324 508 370 547 c 1
 395 522 416 504 434 494 c 0
 450 484 475 474 509 463 c 1
 508 436 l 1
 487 433 474 428 467 419 c 0
 460 411 456 396 456 375 c 2
 456 136 l 2
 456 116 456 105 457 102 c 0
 458 89 466 82 481 82 c 0
 486 82 495 86 506 94 c 1
 525 77 l 1
 511 64 l 1
 456 17 l 1
 418 -20 l 1
 397 -11 382 -3 372 5 c 0
 354 16 342 28 337 42 c 0
 333 52 331 69 331 92 c 2
 330 385 l 2
 330 417 317 433 292 433 c 0
 283 433 274 430 264 424 c 2
 203 385 l 1xcc
160 585 m 1
 138 593 l 1xec
 146 617 152 633 156 642 c 0
 176 684 201 705 231 705 c 0xdc
 247 705 266 702 289 698 c 0
 339 688 374 683 392 683 c 0
 414 683 433 692 449 711 c 1
 467 699 l 1
 450 628 417 593 370 593 c 0xec
 357 593 340 595 316 599 c 2
 258 608 l 2
 235 612 218 614 206 614 c 0xdc
 187 614 171 604 160 585 c 1
EndSplineSet
EndChar

StartChar: odieresis
Encoding: 246 246 117
Width: 497
GlyphClass: 2
Flags: MW
HStem: -21 21G 530 20G 727 20G<147 163.667>
VStem: 66 124<116.667 141> 96 118<679.333 695> 307 117<678.667 694.667> 315 129<68 176>
LayerCount: 2
Fore
SplineSet
29 73 m 1xf2
 29 91 l 1
 41 97 l 2
 57.6669921875 103 66 111.333007812 66 122 c 2
 65 450 l 1
 120.333007812 460.666992188 161.666992188 471.666992188 189 483 c 0
 221 496.333007812 257 518.666992188 297 550 c 1
 379.666992188 515.333007812 426.666992188 478 438 438 c 0
 442 424.666992188 444 404.333007812 444 377 c 2
 444 176 l 2
 444 143.333007812 442 121.333007812 438 110 c 0
 431.333007812 92.6669921875 416 77.6669921875 392 65 c 2
 306 19 l 2
 286 8.3330078125 265.666992188 -5 245 -21 c 1
 168.333007812 25 96.3330078125 56.3330078125 29 73 c 1xf2
190 141 m 1
 232.666992188 121.666992188 274.333007812 97.3330078125 315 68 c 1
 316 294 l 2
 316.666992188 333.333007812 316 358.333007812 314 369 c 0
 309.333007812 396.333007812 297.666992188 417.333007812 279 432 c 0
 260.333007812 446.666992188 241.666992188 454 223 454 c 0
 215 454 203.666992188 452 189 448 c 1
 190 141 l 1
140 575 m 1
 110.666992188 612.333007812 96 649.333007812 96 686 c 0
 96 704 101.5 718.666992188 112.5 730 c 0
 123.5 741.333007812 138 747 156 747 c 0
 171.333007812 747 184.666992188 743 196 735 c 0
 208 725.666992188 214 713.666992188 214 699 c 0xe8
 214 659.666992188 189.333007812 618.333007812 140 575 c 1
351 574 m 1
 321.666992188 611.333007812 307 648.666992188 307 686 c 0
 307 703.333007812 312.333007812 717.666992188 323 729 c 0
 333.666992188 740.333007812 348 746 366 746 c 0
 382 746 395.333007812 742 406 734 c 0
 418 725.333007812 424 713.333007812 424 698 c 0xe4
 424 659.333007812 399.666992188 618 351 574 c 1
EndSplineSet
EndChar

StartChar: oslash
Encoding: 248 248 118
Width: 497
GlyphClass: 2
Flags: MW
HStem: -21 21G 537 20G
VStem: 66 124<118.667 454> 316 128<73.001 179.001>
LayerCount: 2
Fore
SplineSet
292 428 m 1
 266.666992188 449.333007812 243.666992188 460 223 460 c 0
 215 460 204 458 190 454 c 1
 190 150 l 1
 292 428 l 1
245 -21 m 1
 220.333007812 -5 196.333007812 9.333984375 173 22.0009765625 c 1
 151 -35.9990234375 l 1
 124 -25.9990234375 l 1
 146 35.0009765625 l 1
 104.666992188 51.66796875 65.6669921875 64.66796875 29 74.0009765625 c 1
 29 93.0009765625 l 1
 42 98.0009765625 l 2
 58 104.66796875 66 113.333984375 66 124.000976562 c 2
 65 455.000976562 l 1
 121 466.333984375 162.333007812 477.66796875 189 489.000976562 c 0
 221 502.333984375 257 525.000976562 297 557.000976562 c 1
 309.666992188 551.66796875 322.333007812 545.66796875 335 539.000976562 c 1
 362 607.000976562 l 1
 391 600.000976562 l 1
 364 525.000976562 l 1
 397.333007812 503.000976562 418.666992188 484.000976562 428 468.000976562 c 0
 438 450.000976562 443 421.66796875 443 383.000976562 c 2
 444 179.000976562 l 2
 444 145.000976562 442 122.66796875 438 112.000976562 c 0
 431.333007812 94.0009765625 416 78.66796875 392 66.0009765625 c 2
 306 20.0009765625 l 2
 287.333007812 9.333984375 267 -4.3330078125 245 -21 c 1
214 128.000976562 m 1
 246 115.333984375 280 97.0009765625 316 73.0009765625 c 1
 317 298.000976562 l 1
 312 395.000976562 l 1
 214 128.000976562 l 1
EndSplineSet
EndChar

StartChar: udieresis
Encoding: 252 252 119
Width: 528
GlyphClass: 2
Flags: MW
HStem: -21 21G<154 154> 534 21G 727 20G<139.5 167.5>
VStem: 74 125<128 415 415 418> 99 117<680 706.5> 309 118<678 704.5> 327 125<113 113 112.5 400>
LayerCount: 2
Fore
SplineSet
503 93 m 1xf2
 520 75 l 1
 429 -1 l 1
 406 -20 l 1
 375 -8 353 10 340 32 c 0
 331 48 326 69 326 97 c 0
 326 104 326 109 327 113 c 1
 216 29 l 1xea
 154 -21 l 1
 140 -7 124 8 107 23 c 0
 83 44 57 59 29 68 c 1
 28 89 l 1
 59 95 74 108 74 128 c 2
 74 415 l 2
 74 421 71 428 64 435 c 0
 57 441 50 445 44 445 c 0
 42 445 37 442 27 437 c 1
 11 461 l 1
 47 487 82 518 117 554 c 1
 150 538 172 522 183 505 c 0
 194 488 199 461 199 425 c 2
 199 118 l 2
 199 117 202 112 208 104 c 0
 218 93 226 88 233 88 c 0
 239 88 249 92 261 101 c 2
 327 146 l 1
 327 400 l 2
 327 413 312 427 280 443 c 1
 281 458 l 1
 310 470 330 482 342 494 c 0
 354 506 366 526 377 553 c 1
 396 553 l 1
 409 524 422 504 436 491 c 0
 449 479 471 467 502 457 c 1
 503 442 l 1
 482 436 470 431 464 427 c 0
 456 420 451 409 451 392 c 2
 452 122 l 2
 452 103 455 91 459 86 c 0
 463 83 468 82 475 82 c 0
 482 82 491 86 503 93 c 1xf2
143 575 m 1
 114 613 99 650 99 686 c 0xe8
 99 727 119 747 160 747 c 0
 175 747 188 743 199 735 c 0xf0
 210 726 216 714 216 700 c 0
 216 660 192 619 143 575 c 1
353 574 m 1
 324 611 309 647 309 684 c 0
 309 725 330 745 371 745 c 0
 386 745 398 741 409 733 c 0
 421 724 427 712 427 698 c 0xe4
 427 658 403 617 353 574 c 1
EndSplineSet
EndChar

StartChar: longs
Encoding: 383 383 120
Width: 264
GlyphClass: 2
Flags: MW
HStem: 618 94<189 223.5> 649 91<108 113>
VStem: 59 28<609 683.5> 62 140<339 339> 232 21<721.5 727>
LayerCount: 2
Fore
SplineSet
63 434 m 1x58
 24 434 l 1
 24 453 l 1
 42 466 53 480 59 495 c 0
 64 508 67 527 67 551 c 0
 67 562 66 573 65 583 c 2
 60 636 l 2
 59 643 59 649 59 655 c 0
 59 712 82 740 126 740 c 0x68
 148 740 172 733 198 719 c 0
 207 714 214 712 219 712 c 0
 228 712 232 717 232 726 c 0
 232 728 232 731 231 734 c 1
 253 734 l 1
 253 657 234 618 196 618 c 0xa8
 182 618 164 624 143 637 c 0
 129 645 118 649 108 649 c 0
 94 650 87 641 87 624 c 0x68
 87 594 108 562 149 527 c 0
 172 508 187 489 194 469 c 0
 199 454 202 429 202 395 c 0
 202 254 182 54 143 -206 c 1
 112 -206 l 1
 77 17 61 199 62 339 c 2
 63 434 l 1x58
EndSplineSet
Substitution2: "Einzelne Substitution Nachschlagetabelle 4 Subtabelle" s
EndChar

StartChar: circumflex
Encoding: 710 710 121
Width: 30
GlyphClass: 2
Flags: MW
HStem: 795 161<325 479>
VStem: 322 175<798.5 947>
LayerCount: 2
Fore
SplineSet
324 810 m 2
 373 938 l 2
 376 947 379 952 382 954 c 0
 385 955 391 956 401 956 c 2
 479 956 l 2
 490 956 496 953 497 947 c 0
 497 941 494 936 489 931 c 2
 337 801 l 2
 333 797 329 795 327 795 c 0
 323 795 322 797 322 800 c 0
 322 802 323 805 324 810 c 2
EndSplineSet
EndChar

StartChar: tilde
Encoding: 732 732 122
Width: 25
GlyphClass: 2
Flags: MW
HStem: 558 76<326 393> 619 77<183.5 248.5>
VStem: 128 317<585 665>
LayerCount: 2
Fore
SplineSet
425 665 m 1xa0
 445 665 l 1
 442 636 430 612 410 591 c 0
 389 569 364 558 336 558 c 0xa0
 316 558 298 563 282 572 c 2
 217 612 l 2
 210 617 203 619 195 619 c 0
 172 619 157 607 149 585 c 1
 128 585 l 1
 132 615 144 640 163 661 c 0
 184 684 209 696 237 696 c 0x60
 260 696 278 692 292 683 c 2
 354 645 l 2
 366 637 375 634 383 634 c 0
 403 634 417 644 425 665 c 1xa0
EndSplineSet
EndChar

StartChar: endash
Encoding: 8211 8211 124
Width: 476
GlyphClass: 2
Flags: MW
HStem: 214 66<19 19 19 463 18 19>
LayerCount: 2
Fore
SplineSet
463 279 m 1
 463 214 l 1
 18 214 l 1
 19 280 l 1
 463 279 l 1
EndSplineSet
EndChar

StartChar: emdash
Encoding: 8212 8212 125
Width: 1093
GlyphClass: 2
Flags: MW
HStem: 214 65<31 1068>
LayerCount: 2
Fore
SplineSet
1068 279 m 1
 1067 215 l 1
 31 214 l 1
 31 279 l 1
 1068 279 l 1
EndSplineSet
EndChar

StartChar: quoteleft
Encoding: 8216 8216 126
Width: 280
GlyphClass: 2
Flags: MW
HStem: 393 378<96.5 215>
VStem: 53 171
LayerCount: 2
Fore
SplineSet
223 740 m 2
 188 471 l 2
 181 419 158 393 118 393 c 0
 75 393 53 412 53 451 c 0
 53 466 57 482 66 499 c 2
 192 755 l 2
 198 766 204 771 210 771 c 0
 220 771 224 765 224 754 c 0
 224 752 224 748 223 740 c 2
EndSplineSet
EndChar

StartChar: quoteright
Encoding: 8217 8217 127
Width: 229
GlyphClass: 2
Flags: MW
HStem: 723 20G
VStem: 87 112<486 619.5>
LayerCount: 2
Fore
SplineSet
109 743 m 1
 141 727 164 708 178 687 c 0
 192 666 199 637 199 602 c 0
 199 557 187 516 161 479 c 0
 144 454 113 423 69 385 c 1
 52 399 l 1
 75 441 87 474 87 498 c 0
 87 541 64 586 19 633 c 1
 56 670 85 707 109 743 c 1
EndSplineSet
EndChar

StartChar: quotesinglbase
Encoding: 8218 8218 128
Width: 188
GlyphClass: 2
Flags: MW
VStem: 11 171
LayerCount: 2
Fore
SplineSet
13 -162 m 2
 46 108 l 2
 52 159 77 185 121 185 c 0
 138 185 153 180 165 169 c 0
 176 158 182 144 182 126 c 0
 182 111 178 95 170 79 c 2
 43 -177 l 2
 38 -188 32 -193 25 -193 c 0
 16 -193 11 -187 11 -176 c 0
 11 -175 12 -170 13 -162 c 2
EndSplineSet
EndChar

StartChar: quotedblleft
Encoding: 8220 8220 129
Width: 432
GlyphClass: 2
Flags: MW
HStem: 751 20G<186 194 411.5 419.5>
LayerCount: 2
Fore
SplineSet
427 740 m 2
 392 471 l 2
 385 419 362 393 322 393 c 0
 279 393 257 412 257 451 c 0
 257 465 262 481 271 499 c 2
 396 755 l 2
 402 766 408 771 415 771 c 0
 424 771 428 765 428 754 c 0
 428 750 428 745 427 740 c 2
202 740 m 2
 167 471 l 2
 160 419 137 393 97 393 c 0
 54 393 32 412 32 451 c 0
 32 466 36 482 45 499 c 2
 171 755 l 2
 177 766 183 771 189 771 c 0
 199 771 203 765 203 754 c 0
 203 752 203 748 202 740 c 2
EndSplineSet
EndChar

StartChar: quotedblbase
Encoding: 8222 8222 130
Width: 433
GlyphClass: 2
Flags: W
LayerCount: 2
Fore
SplineSet
7 -165 m 2
 42 104 l 2
 49 156 72 182 110 182 c 0
 155 182 177 163 177 124 c 0
 177 109 173 93 164 76 c 2
 38 -180 l 2
 32 -191 26 -196 20 -196 c 0
 10 -196 6 -190 6 -179 c 0
 6 -177 6 -172 7 -165 c 2
232 -165 m 2
 268 104 l 2
 274 156 298 182 337 182 c 0
 380 182 402 163 402 124 c 0
 402 109 398 93 390 76 c 2
 263 -180 l 2
 258 -191 252 -196 245 -196 c 0
 235 -196 230 -190 231 -179 c 0
 231 -178 231 -173 232 -165 c 2
EndSplineSet
EndChar

StartChar: dagger
Encoding: 8224 8224 131
Width: 521
GlyphClass: 2
Flags: MW
HStem: 331 183<80 99 77.5 100> 722 20G<252 278.5>
VStem: 167 196<644.5 668> 250 31<-210 -210>
LayerCount: 2
Fore
SplineSet
250 -210 m 1xd0
 226 -20 199 145 168 285 c 1
 215 335 241 375 247 406 c 1
 225 403 205 394 184 379 c 0
 140 347 109 331 91 331 c 0
 69 331 51 341 37 362 c 0
 24 381 18 401 18 424 c 0
 18 447 24 467 36 484 c 0
 49 504 67 514 88 514 c 0
 110 514 138 502 171 477 c 0
 187 465 198 457 205 454 c 0
 216 448 230 444 245 443 c 1
 236 474 224 508 206 544 c 0
 180 597 167 634 167 655 c 0
 167 681 177 702 197 719 c 0
 216 734 239 742 265 742 c 0
 292 742 314 734 333 719 c 0
 353 702 363 681 363 655 c 0
 363 634 350 597 325 544 c 0
 306 507 293 473 286 443 c 1
 307 445 332 456 360 477 c 0
 393 501 419 513 440 513 c 0
 463 513 481 504 495 484 c 0
 507 467 513 447 513 423 c 0
 513 401 507 380 494 362 c 0
 479 341 461 331 440 331 c 0
 422 331 391 347 347 379 c 0
 326 394 305 403 284 406 c 1
 290 375 316 335 363 285 c 1xe0
 332 145 305 -20 281 -210 c 1
 250 -210 l 1xd0
EndSplineSet
EndChar

StartChar: bullet
Encoding: 8226 8226 132
Width: 410
GlyphClass: 2
Flags: MW
HStem: 207 250<191.5 225>
VStem: 84 250<315 349.5>
LayerCount: 2
Fore
SplineSet
209 457 m 0
 244 457 273 445 298 421 c 0
 322 396 334 367 334 332 c 0
 334 297 322 267 297 243 c 0
 273 219 243 207 207 207 c 0
 173 207 144 219 120 244 c 0
 96 268 84 298 84 332 c 0
 84 367 96 396 120 421 c 0
 145 445 174 457 209 457 c 0
EndSplineSet
EndChar

StartChar: ellipsis
Encoding: 8230 8230 133
Width: 1145
GlyphClass: 2
Flags: MW
HStem: -21 203<182 197 182 197 566 580 949 964>
LayerCount: 2
Fore
SplineSet
197 -21 m 1
 182 -21 l 1
 164 13 134 44 94 73 c 1
 94 86 l 1
 131 111 161 143 182 182 c 1
 197 182 l 1
 218 143 247 111 285 86 c 1
 285 73 l 1
 245 45 216 13 197 -21 c 1
580 -21 m 1
 566 -21 l 1
 547 13 518 44 478 73 c 1
 478 86 l 1
 515 111 544 143 566 182 c 1
 580 182 l 1
 602 143 631 111 668 86 c 1
 668 73 l 1
 629 45 600 14 580 -21 c 1
964 -21 m 1
 949 -21 l 1
 930 13 901 45 861 73 c 1
 861 86 l 1
 899 111 928 143 949 182 c 1
 964 182 l 1
 985 143 1015 111 1052 86 c 1
 1052 73 l 1
 1012 44 982 13 964 -21 c 1
EndSplineSet
Ligature2: "'liga' Standard-Ligaturen in Lateinisch Nachschlagetabelle 5 Subtabelle" period period period
EndChar

StartChar: perthousand
Encoding: 8240 8240 134
Width: 884
GlyphClass: 2
Flags: MW
HStem: -22.04 23.2002 307.4 23.1992 327.96 23.2002 657.4 23.1992
VStem: 21.9297 88.3301 159.87 88.3301 364.93 88.3301 502.87 88.3301 634.93 88.3301 772.87 88.3301
LayerCount: 2
Fore
SplineSet
748.669921875 330.599609375 m 0xdfc0
 787.389648438 330.599609375 816.431640625 309.719726562 837.001953125 269.120117188 c 0
 852.731445312 236.639648438 861.201171875 200.6796875 861.201171875 158.919921875 c 0
 861.201171875 114.83984375 853.94140625 76.5595703125 839.420898438 44.080078125 c 0
 818.850585938 -0 788.600585938 -22.0400390625 748.670898438 -22.0400390625 c 0
 708.741210938 -22.0400390625 678.491210938 -1.16015625 659.130859375 41.759765625 c 0
 643.400390625 74.240234375 634.930664062 111.360351562 634.930664062 154.280273438 c 0
 634.930664062 197.200195312 643.400390625 234.3203125 659.129882812 266.799804688 c 0
 678.490234375 309.719726562 708.740234375 330.599609375 748.669921875 330.599609375 c 0xdfc0
748.671875 307.399414062 m 0
 732.94140625 307.399414062 724.471679688 295.799804688 723.26171875 273.759765625 c 2
 718.421875 154.279296875 l 1
 723.26171875 34.798828125 l 2
 724.471679688 12.7587890625 732.94140625 1.1591796875 748.671875 1.1591796875 c 0
 763.19140625 1.1591796875 771.661132812 12.7587890625 772.87109375 34.798828125 c 2
 777.7109375 154.279296875 l 1
 772.87109375 273.759765625 l 2
 771.661132812 295.799804688 763.19140625 307.399414062 748.671875 307.399414062 c 0
478.671875 330.599609375 m 0
 517.391601562 330.599609375 546.431640625 309.719726562 567.001953125 269.120117188 c 0
 582.731445312 236.639648438 591.201171875 200.6796875 591.201171875 158.919921875 c 0
 591.201171875 114.83984375 583.94140625 76.5595703125 569.421875 44.080078125 c 0
 548.8515625 -0 518.6015625 -22.0400390625 478.671875 -22.0400390625 c 0
 438.7421875 -22.0400390625 408.4921875 -1.16015625 389.131835938 41.759765625 c 0
 373.401367188 74.240234375 364.931640625 111.360351562 364.931640625 154.280273438 c 0
 364.931640625 197.200195312 373.401367188 234.3203125 389.131835938 266.799804688 c 0
 408.4921875 309.719726562 438.7421875 330.599609375 478.671875 330.599609375 c 0
478.671875 307.399414062 m 0
 462.94140625 307.399414062 454.471679688 295.799804688 453.26171875 273.759765625 c 2
 448.421875 154.279296875 l 1
 453.26171875 34.798828125 l 2
 454.471679688 12.7587890625 462.94140625 1.1591796875 478.671875 1.1591796875 c 0
 493.19140625 1.1591796875 501.661132812 12.7587890625 502.87109375 34.798828125 c 2
 507.7109375 154.279296875 l 1
 502.87109375 273.759765625 l 2
 501.661132812 295.799804688 493.19140625 307.399414062 478.671875 307.399414062 c 0
539.001953125 686.999023438 m 1
 572.001953125 659.999023438 l 1
 74.001953125 -32.0009765625 l 1
 43.001953125 -7.0009765625 l 1
 539.001953125 686.999023438 l 1
135.671875 680.598632812 m 0
 174.391601562 680.598632812 203.430664062 659.71875 224.000976562 619.119140625 c 0
 239.731445312 586.638671875 248.201171875 550.678710938 248.201171875 508.918945312 c 0
 248.201171875 464.838867188 240.94140625 426.55859375 226.421875 394.078125 c 0
 205.8515625 349.998046875 175.6015625 327.958007812 135.671875 327.958007812 c 0xbfc0
 95.7421875 327.958007812 65.4921875 348.837890625 46.1318359375 391.7578125 c 0
 30.40234375 424.23828125 21.931640625 461.358398438 21.931640625 504.278320312 c 0
 21.931640625 547.198242188 30.40234375 584.318359375 46.1318359375 616.798828125 c 0
 65.4921875 659.71875 95.7421875 680.598632812 135.671875 680.598632812 c 0
135.670898438 657.3984375 m 0
 119.940429688 657.3984375 111.471679688 645.798828125 110.26171875 623.758789062 c 2
 105.421875 504.278320312 l 1
 110.26171875 384.797851562 l 2
 111.471679688 362.7578125 119.94140625 351.158203125 135.671875 351.158203125 c 0
 150.19140625 351.158203125 158.661132812 362.7578125 159.87109375 384.797851562 c 2
 164.7109375 504.278320312 l 1
 159.87109375 623.758789062 l 2
 158.661132812 645.798828125 150.19140625 657.3984375 135.670898438 657.3984375 c 0
EndSplineSet
Ligature2: "'liga' Standard-Ligaturen in Lateinisch Nachschlagetabelle 5 Subtabelle" percent zero
EndChar

StartChar: guilsinglleft
Encoding: 8249 8249 135
Width: 375
GlyphClass: 2
Flags: MW
VStem: 64 251<111 297>
LayerCount: 2
Fore
SplineSet
156 297 m 1
 315 111 l 1
 279 111 l 1
 64 297 l 1
 279 483 l 1
 315 483 l 1
 156 297 l 1
EndSplineSet
EndChar

StartChar: guilsinglright
Encoding: 8250 8250 136
Width: 382
GlyphClass: 2
Flags: MW
VStem: 64 251<111 297 297 483>
LayerCount: 2
Fore
SplineSet
223 297 m 1
 64 483 l 1
 100 483 l 1
 315 297 l 1
 100 111 l 1
 64 111 l 1
 223 297 l 1
EndSplineSet
EndChar

StartChar: u20AC
Encoding: 8364 8364 137
Width: 630
GlyphClass: 2
Flags: MW
HStem: -17 24<349 409 349 410> 231 75<49 49 49 71 7 49> 363 75<59 59> 671 20<337 366 319.5 377>
VStem: 578 17<389 389> 583 22<260 260>
LayerCount: 2
Fore
SplineSet
59 363 m 1xf4
 8 364 l 1
 50 438 l 1
 72 438 l 1
 100 520 135 580 176 617 c 0
 230 666 289 691 350 691 c 0
 382 691 412 682 440 665 c 0
 458 653 482 632 512 602 c 0
 524 590 534 583 542 583 c 0
 552 583 560 592 566 608 c 0
 570 621 572 633 572 646 c 1
 592 646 l 1
 595 389 l 1
 578 389 l 1xf8
 566 456 541 518 501 575 c 0
 456 639 405 671 349 671 c 0
 325 671 307 668 295 661 c 0
 281 654 269 639 260 619 c 0
 246 586 236 526 230 438 c 1
 443 438 l 1
 400 364 l 1
 227 363 l 1
 226 343 l 2
 226 337 227 325 228 307 c 1
 374 306 l 1
 332 231 l 1
 230 231 l 1
 232 215 l 2
 238 146 248 98 261 73 c 0
 282 29 321 7 377 7 c 0
 441 7 492 34 528 89 c 0
 557 132 575 189 583 260 c 1
 605 260 l 1
 597 181 579 121 550 82 c 0
 503 16 445 -17 375 -17 c 0
 297 -17 226 13 164 72 c 0
 124 109 93 162 71 231 c 1
 7 231 l 1
 49 306 l 1
 60 307 l 1
 59 321 58 331 58 337 c 0
 58 343 58 352 59 363 c 1xf4
EndSplineSet
EndChar

StartChar: u20B0
Encoding: 8368 8368 138
Width: 623
GlyphClass: 2
Flags: MW
HStem: -24 25<148 170 148 170.5> 722 20<374 396>
VStem: 29 84<30 135> 239 88<578.5 658> 320 20<230.5 237> 471 32<574.5 597> 489 108<134.5 186>
LayerCount: 2
Fore
SplineSet
457 473 m 1xf4
 466 518 471 554 471 582 c 0
 471 612 464 641 449 670 c 0
 432 705 410 722 382 722 c 0
 366 722 352 714 341 697 c 0
 331 683 327 667 327 649 c 0
 327 621 343 588 375 551 c 0
 386 539 413 513 457 473 c 1xf4
479 453 m 1
 520 408 550 367 567 331 c 0
 587 289 597 240 597 184 c 0
 597 85 559 -14 484 -113 c 0
 441 -169 368 -237 266 -316 c 1
 250 -302 l 1
 299 -258 336 -221 362 -188 c 0
 446 -83 489 31 489 154 c 0
 489 218 469 273 430 318 c 1
 382 227 344 160 315 117 c 0
 251 23 195 -24 146 -24 c 0
 113 -24 85 -10 62 19 c 0
 40 45 29 75 29 108 c 0
 29 162 49 210 89 253 c 0
 128 295 175 317 228 317 c 0
 256 317 281 310 302 297 c 0
 327 282 340 261 340 234 c 0xea
 340 227 339 218 337 208 c 1
 363 251 388 294 411 339 c 1
 346 410 l 2
 310 448 286 476 274 493 c 0
 250 528 239 562 239 595 c 0
 239 634 253 669 281 698 c 0
 310 727 344 742 383 742 c 0
 421 742 451 726 473 693 c 0
 493 664 503 630 503 590 c 0
 503 559 495 514 479 453 c 1
281 276 m 0
 262 278 235 258 202 216 c 0
 182 191 164 162 146 130 c 0
 124 89 113 57 113 35 c 0
 113 25 117 17 126 10 c 0
 134 4 143 1 153 1 c 0
 187 1 223 29 263 86 c 0
 301 139 320 184 320 220 c 0
 320 254 307 273 281 276 c 0
EndSplineSet
EndChar

StartChar: lbbar
Encoding: 8468 8468 139
Width: 627
GlyphClass: 2
Flags: MW
HStem: -4 31<197 207> 233 17 246 17<234 329 241 323> 472 72<456 551.5> 530 84<160 297.5>
VStem: 24 23<373 399.5 365.5 422.5> 72 107<47.5 125.5> 317 84<42 120 42 120> 519 25<129.5 150 115 157>
LayerCount: 2
Fore
SplineSet
449 233 m 1xc780
 417 128 401 68 401 52 c 0
 401 32 413 22 438 22 c 0
 464 22 485 36 500 65 c 0
 513 89 519 115 519 144 c 0
 519 170 514 189 503 202 c 0
 492 215 474 226 449 233 c 1xc780
234 246 m 1xa780
 185 91 l 2
 181 78 179 67 179 58 c 0
 179 37 188 27 206 27 c 0
 226 27 245 44 263 77 c 0
 270 91 280 116 292 154 c 2
 323 246 l 1
 234 246 l 1xa780
605 591 m 1
 615 587 l 1
 609 550 592 521 564 501 c 0
 538 482 506 472 468 472 c 0x9780
 444 472 402 481 341 498 c 0
 268 519 214 530 181 530 c 0
 139 530 106 515 82 484 c 0
 58 456 47 421 47 378 c 0
 47 353 52 332 63 316 c 0
 73 302 90 288 114 275 c 1
 159 428 l 1
 292 429 l 1
 241 263 l 1
 329 263 l 1xaf80
 379 427 l 1
 509 427 l 1
 456 250 l 1
 487 240 509 226 522 209 c 0
 537 191 544 166 544 134 c 0
 544 96 532 63 509 38 c 0
 485 11 454 -3 416 -3 c 0
 376 -3 347 10 330 37 c 0
 320 50 316 70 317 97 c 2
 317 120 l 1
 278 37 232 -4 182 -4 c 0
 148 -4 122 7 102 30 c 0
 82 51 72 79 72 112 c 0
 72 139 76 167 85 195 c 2
 106 258 l 1
 75 275 54 292 42 311 c 0
 30 330 24 356 24 390 c 0
 24 455 49 509 99 552 c 0
 146 593 203 614 270 614 c 0xcf80
 325 614 381 602 438 578 c 2
 495 554 l 2
 511 547 526 544 539 544 c 0x9780
 564 544 586 560 605 591 c 1
EndSplineSet
EndChar

StartChar: Rscript
Encoding: 8475 8475 140
Width: 1111
GlyphClass: 2
Flags: MW
HStem: -21 19<190 226 182.5 260.5> 124 127 319 27<717 728.5 702 742> 407 24<706 716.5> 718 29<716.5 760> 733 19
VStem: 10 43<79.5 160.5> 323 20<365 424> 704 88<26 125> 966 125<520 553 505.5 581>
LayerCount: 2
Fore
SplineSet
844 337 m 1xf7c0
 868 308 881 277 881 245 c 0
 881 206 864 164 829 117 c 0
 804 83 792 56 792 37 c 0
 792 15 804 4 827 4 c 0
 858 4 897 28 945 78 c 0
 967 100 990 135 1016 183 c 1
 1033 175 l 1
 1028 167 l 1
 1011 135 l 2
 987 88 957 50 921 22 c 0
 885 -7 849 -21 814 -21 c 0
 781 -21 753 -9 733 16 c 0
 713 40 704 69 704 103 c 0
 704 147 721 192 756 240 c 0
 770 259 779 273 784 282 c 0
 791 296 795 312 798 330 c 1
 769 322 748 319 736 319 c 0
 698 319 670 330 650 353 c 1
 627 293 604 246 582 212 c 0
 556 171 521 132 478 95 c 0
 387 18 301 -21 220 -21 c 0
 160 -21 111 -8 74 17 c 0
 31 47 10 90 10 147 c 0
 10 174 17 197 31 217 c 0
 47 240 67 251 92 251 c 0
 110 251 124 245 135 233 c 0
 146 221 152 207 152 189 c 0
 152 152 127 130 79 124 c 0
 61 121 53 111 53 95 c 0
 53 64 70 40 105 21 c 0
 134 6 166 -2 199 -2 c 0
 253 -2 303 25 351 78 c 0
 387 118 418 168 445 229 c 2
 529 424 l 2
 590 562 696 656 848 705 c 1
 809 713 775 718 745 718 c 0
 688 718 631 706 577 683 c 0
 519 659 472 626 436 584 c 0
 378 518 347 445 343 365 c 1
 323 365 l 1
 323 483 370 577 462 649 c 0
 547 714 650 747 771 747 c 0xfbc0
 811 747 856 740 907 727 c 1
 948 739 989 748 1031 752 c 0
 1036 753 1045 754 1057 756 c 1
 1058 733 l 1
 1025 729 988 722 946 712 c 1
 996 687 1030 663 1048 642 c 0
 1077 607 1091 572 1091 534 c 0
 1091 477 1062 430 1006 393 c 0
 974 372 920 354 844 337 c 1xf7c0
823 368 m 1
 918 410 966 475 966 565 c 0
 966 597 960 622 948 642 c 0
 937 661 917 678 889 692 c 1
 807 638 736 549 675 424 c 1
 688 429 700 431 712 431 c 0
 752 431 789 410 823 368 c 1
792 359 m 1
 765 391 734 407 699 407 c 0
 674 407 662 398 662 380 c 0
 662 358 682 346 722 346 c 0
 735 346 759 350 792 359 c 1
EndSplineSet
EndChar

StartChar: Mscript
Encoding: 8499 8499 141
Width: 1049
GlyphClass: 2
Flags: MW
HStem: -22 38<818.5 825> -21 18<114.5 149> 94 114<62.5 81 60.5 93.5> 713 20G<761 778>
VStem: 3 38<58 131.5> 371 103<44.5 51.5 44.5 71> 689 105<39.5 142.5>
LayerCount: 2
Fore
SplineSet
1018 234 m 1xbe
 1038 227 l 1
 1004 147 974 91 948 60 c 0
 905 5 854 -22 796 -22 c 0xbe
 765 -22 740 -10 719 15 c 0
 699 38 689 66 689 97 c 0
 689 188 744 324 854 506 c 0
 904 589 958 658 1018 712 c 1
 986 705 956 688 926 660 c 0
 860 598 782 478 691 299 c 0
 654 225 627 175 611 149 c 0
 577 94 541 52 502 21 c 0
 472 -2 446 -13 423 -13 c 0
 407 -13 394 -6 384 7 c 0
 375 19 371 34 371 51 c 0
 371 91 389 154 426 241 c 0
 455 308 485 368 516 422 c 0
 579 530 652 624 736 706 c 1
 674 674 618 627 567 564 c 0
 531 520 490 458 446 377 c 2
 353 210 l 2
 316 143 286 96 263 67 c 0
 216 8 171 -21 127 -21 c 0
 89 -21 59 -7 35 21 c 0
 14 48 3 81 3 120 c 0
 3 143 8 163 19 180 c 0
 32 199 49 208 72 208 c 0
 90 208 104 203 116 193 c 0
 128 183 134 169 134 151 c 0
 134 113 114 94 73 94 c 0
 52 94 41 85 41 67 c 0
 41 49 50 32 69 18 c 0
 87 4 105 -3 124 -3 c 0x7e
 184 -3 252 68 329 209 c 2
 432 401 l 2
 512 549 602 652 701 708 c 0
 730 725 753 733 769 733 c 0
 787 733 796 725 796 710 c 0
 796 689 775 640 733 565 c 0
 654 424 595 313 556 231 c 2
 483 79 l 2
 477 67 474 56 474 47 c 0
 474 42 476 40 480 40 c 0
 487 40 498 48 515 63 c 0
 554 99 597 163 644 256 c 0
 695 358 727 421 742 445 c 0
 799 544 854 619 906 670 c 0
 952 715 996 738 1039 738 c 0
 1058 738 1067 728 1067 708 c 0
 1067 674 1036 600 975 485 c 0
 941 420 906 348 870 269 c 0
 819 156 794 83 794 51 c 0
 794 28 806 16 831 16 c 0
 889 16 952 89 1018 234 c 1xbe
EndSplineSet
EndChar

StartChar: onethird
Encoding: 8531 8531 142
Width: 766
GlyphClass: 2
Flags: MW
HStem: -22 12<585.5 602.5 585.5 609.5> 167 36<538.5 543> 186 14<595 604.5 583.5 614.5> 284 17<46 46> 375 17<596.5 609.5> 607 16<51 87 51 51>
VStem: 112 72<316 316 316 326 316 596> 483 62<16.5 66> 504 44<292 350.5> 641 76<265 303.5 265 311.5> 643 82<88 101.5 71 132>
LayerCount: 2
Fore
SplineSet
690 713 m 1x9e
 726 677 l 1
 82 -26 l 1
 49 9 l 1
 690 713 l 1x9e
143 682 m 1
 185 682 l 1
 184 316 l 1
 188 305 l 2
 191 302 195 300 200 300 c 2
 248 301 l 1
 249 284 l 1
 46 284 l 1
 46 301 l 1
 94 300 l 2
 106 300 112 305 112 315 c 2
 112 326 l 1
 112 596 l 2
 112 603 104 607 87 607 c 2
 51 607 l 1
 51 623 l 1
 76 624 94 629 106 637 c 0
 117 644 129 659 143 682 c 1
637 197 m 1
 664 190 685 177 701 157 c 0
 717 138 725 115 725 88 c 0
 725 54 711 27 683 6 c 0
 657 -13 627 -22 592 -22 c 0
 564 -22 540 -15 519 -2 c 0
 495 13 483 34 483 60 c 0
 483 72 487 82 496 91 c 0
 504 100 514 104 527 104 c 0
 538 104 548 100 556 93 c 0
 565 85 569 76 569 65 c 0
 569 55 566 47 559 40 c 2
 549 30 l 2
 546 27 545 24 545 21 c 0
 545 12 550 5 562 -1 c 0
 571 -7 581 -10 590 -10 c 0
 615 -10 631 5 638 33 c 0
 641 47 643 71 643 105 c 0
 643 159 629 186 600 186 c 0xbf20
 590 186 581 184 572 180 c 2
 556 171 l 2
 550 168 545 167 541 167 c 0
 529 167 523 173 523 185 c 0
 523 197 531 203 546 203 c 0xdf20
 549 203 557 202 569 201 c 0
 575 201 581 200 586 200 c 0
 623 200 641 227 641 280 c 0
 641 343 625 375 594 375 c 0
 584 375 574 373 565 368 c 0
 554 363 548 355 548 346 c 0
 548 341 552 336 560 331 c 0
 574 320 581 308 581 295 c 0
 581 285 578 276 571 268 c 0
 564 261 555 257 544 257 c 0
 534 257 524 261 516 269 c 0
 508 277 504 287 504 297 c 0
 504 324 515 347 537 366 c 0
 558 383 583 392 610 392 c 0
 639 392 664 382 685 362 c 0
 706 342 717 318 717 289 c 0xbec0
 717 241 690 211 637 197 c 1
EndSplineSet
Ligature2: "'frac' Diagonale Br+APwA-che in Lateinisch Nachschlagetabelle 7 Subtabelle" one slash three
EndChar

StartChar: twothird
Encoding: 8532 8532 143
Width: 768
GlyphClass: 2
Flags: MW
HStem: -22 12<588.5 605.5 588.5 612.5> 167 36<541 545.5> 186 14<598 606.5 585.5 617.5> 284 68<71 231 231 235 71 250 42 231> 375 17<599.5 610.5> 519 81 669 22<137 142>
VStem: 38 32<578.5 632.5> 199 81<562 590 550 591> 486 62<16.5 66> 507 44<292 350> 644 76<265 303.5 265 312.5> 646 82<87.5 101.5 71 132>
LayerCount: 2
Fore
SplineSet
689 713 m 1x9f80
 725 677 l 1
 81 -26 l 1
 48 9 l 1
 689 713 l 1x9f80
640 197 m 1
 667 190 688 177 704 157 c 0
 720 138 728 115 728 88 c 0
 728 54 714 27 686 6 c 0
 660 -13 630 -22 595 -22 c 0
 568 -22 543 -15 522 -2 c 0
 498 13 486 34 486 60 c 0
 486 72 491 82 499 91 c 0
 507 100 518 104 530 104 c 0
 541 104 551 100 560 93 c 0
 568 85 572 76 572 65 c 0
 572 55 569 46 562 40 c 2
 552 30 l 2
 549 27 548 24 548 21 c 0
 548 12 553 5 564 -1 c 0
 574 -7 584 -10 593 -10 c 0
 618 -10 634 5 641 33 c 0
 644 46 646 70 646 105 c 0
 646 159 632 186 603 186 c 0xbfc8
 593 186 584 184 575 180 c 2
 559 171 l 2
 553 168 548 167 543 167 c 0
 531 167 525 173 525 185 c 0
 525 197 533 203 549 203 c 0xdfc8
 552 203 559 202 571 201 c 0
 577 201 583 200 588 200 c 0
 625 200 644 227 644 281 c 0
 644 344 627 375 594 375 c 0
 585 375 576 372 567 367 c 0
 556 361 551 354 551 346 c 0xbfb0
 551 341 555 336 563 331 c 0
 577 320 584 309 584 295 c 0
 584 285 580 276 573 269 c 0
 566 261 558 257 548 257 c 0xbfc0
 537 257 528 261 520 269 c 0
 511 277 507 287 507 297 c 0
 507 324 518 347 541 366 c 0
 561 383 586 392 613 392 c 0
 643 392 668 382 689 362 c 0
 710 342 720 318 720 289 c 0xbfb0
 720 241 694 211 640 197 c 1
71 352 m 1
 231 352 l 2
 239 352 245 357 249 366 c 2
 257 390 l 1
 264 411 l 1
 278 410 l 1
 261 345 252 303 250 284 c 1
 42 284 l 1
 47 350 67 400 104 435 c 2
 155 485 l 2
 185 514 199 545 199 579 c 0
 199 603 194 623 183 640 c 0
 171 659 153 669 131 669 c 0
 117 669 104 665 92 658 c 0
 77 650 70 639 70 626 c 0
 70 612 79 604 97 600 c 0
 120 596 131 583 131 561 c 0
 131 549 127 539 118 531 c 0
 110 523 100 519 88 519 c 0
 72 519 59 527 50 542 c 0
 42 555 38 570 38 587 c 0
 38 617 50 642 73 663 c 0
 95 681 122 691 152 691 c 0
 187 691 217 680 242 658 c 0
 267 635 280 607 280 573 c 0
 280 527 251 488 192 457 c 0
 154 436 130 422 121 416 c 0
 100 400 83 378 71 352 c 1
EndSplineSet
Ligature2: "'frac' Diagonale Br+APwA-che in Lateinisch Nachschlagetabelle 7 Subtabelle" two slash three
EndChar

StartChar: u2160
Encoding: 8544 8544 144
Width: 382
GlyphClass: 2
Flags: MW
HStem: -1 28<22 357 22 22> 646 28<22 22>
VStem: 114 151<80 593>
LayerCount: 2
Fore
SplineSet
252 672 m 1
 306 673 l 1
 357 674 l 1
 357 646 l 1
 327 645 l 2
 302 645 286 642 279 637 c 0
 270 631 265 616 265 593 c 2
 265 80 l 2
 265 57 269 43 276 37 c 0
 283 32 299 29 327 28 c 2
 357 27 l 1
 357 -1 l 1
 22 -1 l 1
 22 27 l 1
 52 28 l 2
 80 29 97 32 104 38 c 0
 110 44 114 57 114 80 c 2
 114 593 l 2
 114 616 109 631 100 637 c 0
 93 642 77 645 52 645 c 2
 22 646 l 1
 22 674 l 1
 73 673 l 1
 127 672 l 1
 252 672 l 1
EndSplineSet
EndChar

StartChar: u2164
Encoding: 8548 8548 145
Width: 792
GlyphClass: 2
Flags: MW
HStem: 0 21G<383 424 383 383> 650 25<348 349>
LayerCount: 2
Fore
SplineSet
465 180 m 1
 613 549 l 2
 618 562 621 575 621 589 c 0
 621 630 596 650 545 650 c 2
 536 650 l 1
 512 650 l 1
 512 675 l 1
 635 672 l 1
 778 674 l 1
 778 650 l 1
 765 649 755 648 749 649 c 2
 740 650 l 2
 730 651 721 650 713 648 c 0
 694 644 678 626 666 596 c 2
 424 0 l 1
 383 0 l 1
 136 598 l 2
 127 619 111 634 89 641 c 0
 75 646 53 648 23 648 c 1
 23 674 l 1
 76 673 l 1
 131 673 l 1
 215 672 l 1
 348 675 l 1
 390 674 l 1
 390 649 l 1
 370 649 l 1
 349 650 l 2
 315 652 299 640 299 616 c 0
 299 604 301 592 307 579 c 2
 465 180 l 1
EndSplineSet
EndChar

StartChar: u2169
Encoding: 8553 8553 146
Width: 741
GlyphClass: 2
Flags: MW
HStem: 0 25<10 10 358 358> 647 25<23 46.5>
LayerCount: 2
Fore
SplineSet
318 291 m 1
 190 122 l 2
 176 104 169 87 169 71 c 0
 169 50 182 36 208 30 c 0
 221 27 243 25 272 25 c 1
 272 1 l 1
 262 0 256 -1 255 -1 c 2
 132 4 l 1
 10 0 l 1
 10 25 l 1
 39 28 61 33 75 40 c 0
 92 48 109 63 125 84 c 2
 304 317 l 1
 117 611 l 2
 101 635 70 647 23 647 c 1
 23 672 l 1
 74 671 l 1
 128 670 l 1
 203 669 l 1
 382 672 l 1
 382 647 l 1
 371 647 361 646 351 646 c 0
 317 646 299 637 299 619 c 0
 299 608 305 593 317 573 c 2
 417 408 l 1
 520 549 l 2
 539 576 549 597 549 611 c 0
 549 634 526 647 480 648 c 2
 450 649 l 1
 450 671 l 1
 667 670 l 2
 673 670 687 671 709 672 c 1
 709 649 l 1
 678 649 655 646 640 640 c 0
 623 633 605 618 588 596 c 2
 431 386 l 1
 625 77 l 2
 645 45 675 28 717 25 c 1
 717 0 l 1
 613 3 l 1
 539 4 l 1
 464 3 l 1
 409 1 l 1
 358 0 l 1
 357 25 l 1
 380 25 l 2
 425 24 448 38 448 68 c 0
 448 79 444 90 437 102 c 2
 318 291 l 1
EndSplineSet
EndChar

StartChar: angleleft
Encoding: 9001 9001 147
Width: 388
GlyphClass: 2
Flags: MW
HStem: 751 20G<301 301>
VStem: 39 315
LayerCount: 2
Fore
SplineSet
39 302 m 1
 301 771 l 1
 354 750 l 1
 158 302 l 1
 354 -145 l 1
 301 -167 l 1
 39 302 l 1
EndSplineSet
EndChar

StartChar: angleright
Encoding: 9002 9002 148
Width: 388
GlyphClass: 2
Flags: MW
HStem: 751 20G<92 92>
VStem: 39 315
LayerCount: 2
Fore
SplineSet
354 302 m 1
 92 -167 l 1
 39 -145 l 1
 235 302 l 1
 39 750 l 1
 92 771 l 1
 354 302 l 1
EndSplineSet
EndChar

StartChar: e_t_c
Encoding: 42843 42843 149
Width: 746
GlyphClass: 3
Flags: MW
HStem: -22 21G 522 20G
VStem: 179 121<263 416.5> 430 129<189.5 210 189.5 333 189.5 370.5>
LayerCount: 2
Fore
SplineSet
148 154 m 1
 198 133 245 109 288 82 c 1
 338 139 l 1
 358 122 l 1
 320 76 l 2
 286 34 259 2 237 -22 c 1
 174 19 109 50 40 72 c 1
 39 94 l 1
 132 153 179 223 179 303 c 0
 179 348 155 390 105 428 c 1
 60 391 l 1
 40 414 l 1
 87 455 134 498 179 542 c 1
 260 507 300 453 300 380 c 0
 300 337 284 294 250 252 c 0
 229 226 195 193 148 154 c 1
651 541 m 1
 731 407 l 1
 637 347 l 1
 567 471 l 1
 560 452 557 430 557 405 c 2
 559 210 l 2
 559 169 563 141 571 126 c 0
 589 92 618 75 657 75 c 0
 673 75 690 79 709 88 c 1
 718 66 l 1
 660 36 606 7 559 -21 c 1
 509 7 478 29 464 44 c 0
 441 70 430 105 430 149 c 2
 430 333 l 2
 430 408 468 460 545 492 c 0
 583 507 619 524 651 541 c 1
EndSplineSet
Ligature2: "'liga' Standard-Ligaturen in Lateinisch Nachschlagetabelle 5 Subtabelle" e t c
EndChar

StartChar: uE000
Encoding: 57344 57344 150
Width: 965
GlyphClass: 2
Flags: MW
HStem: -19 21<465 502.5> 63 54<68 146.5> 390 35<209 270.5> 696 19<961 962> 727 31<474 528.5 470.5 533>
VStem: 2 26<34 47 34 52.5> 108 106<479.5 518.5> 804 137<356 418.5 348.5 450.5>
LayerCount: 2
Fore
SplineSet
739 621 m 1
 696 570 664 526 643 488 c 0
 628 459 607 408 580 334 c 0
 548 249 519 188 493 151 c 0
 453 95 399 58 332 40 c 1
 391 15 443 2 487 2 c 0
 556 2 628 45 703 131 c 0
 770 208 804 301 804 411 c 0
 804 490 782 560 739 621 c 1
319 451 m 1
 328 438 l 1
 295 406 260 390 225 390 c 0
 193 390 166 400 144 418 c 0
 120 438 108 464 108 495 c 0
 108 542 130 590 173 637 c 0
 210 677 261 708 325 729 c 0
 381 748 440 758 501 758 c 0
 556 758 603 752 643 740 c 0
 679 728 722 708 771 678 c 1
 847 703 906 716 949 716 c 0
 951 716 955 716 962 715 c 1
 961 696 l 1
 917 691 862 679 796 658 c 1
 845 616 880 577 901 541 c 0
 928 496 941 446 941 391 c 0
 941 306 912 228 854 158 c 0
 808 102 750 58 679 27 c 0
 611 -4 540 -19 465 -19 c 0
 410 -19 347 -7 276 16 c 1
 204 -6 153 -16 125 -16 c 0
 101 -16 76 -12 52 -4 c 0
 19 7 2 22 2 41 c 0
 2 64 17 83 48 98 c 0
 74 111 99 117 125 117 c 0
 168 117 221 98 282 61 c 1
 317 93 341 121 356 145 c 0
 369 166 385 200 402 248 c 0
 441 355 478 434 515 486 c 0
 562 553 629 609 714 653 c 1
 678 680 647 699 620 709 c 0
 590 721 554 727 512 727 c 0
 436 727 369 706 311 663 c 0
 246 616 214 556 214 482 c 0
 214 444 230 425 263 425 c 0
 278 425 297 434 319 451 c 1
227 32 m 1
 160 53 113 63 88 63 c 0
 48 63 28 55 28 39 c 0
 28 29 41 20 67 13 c 0
 88 7 105 4 118 4 c 0
 142 4 178 13 227 32 c 1
EndSplineSet
EndChar

StartChar: glyph188
Encoding: 65537 -1 151
Width: 432
GlyphClass: 2
Flags: MW
HStem: 751 20G<186 194 411.5 419.5>
LayerCount: 2
Fore
SplineSet
427 740 m 2
 392 471 l 2
 385 419 362 393 322 393 c 0
 279 393 257 412 257 451 c 0
 257 465 262 481 271 499 c 2
 396 755 l 2
 402 766 408 771 415 771 c 0
 424 771 428 765 428 754 c 0
 428 750 428 745 427 740 c 2
202 740 m 2
 167 471 l 2
 160 419 137 393 97 393 c 0
 54 393 32 412 32 451 c 0
 32 466 36 482 45 499 c 2
 171 755 l 2
 177 766 183 771 189 771 c 0
 199 771 203 765 203 754 c 0
 203 752 203 748 202 740 c 2
EndSplineSet
EndChar

StartChar: c_h
Encoding: 65538 -1 152
Width: 756
GlyphClass: 3
Flags: MW
HStem: -21 21G<417 417> 44 28<257.333 283.333> 527 20G<259 259> 711 22<574 574>
VStem: 55 125<123.333 197> 326 125<110 129 89.001 451> 583 126<120.001 150.001 120.001 327.001>
LayerCount: 2
Fore
SplineSet
327 422 m 1
 259 369 l 1
 185 466 l 1
 182.333007812 452 181 443.333007812 181 440 c 2
 180 197 l 2
 180 167.666992188 180.333007812 150.666992188 181 146 c 0
 183.666992188 129.333007812 190.333007812 115 201 103 c 0
 219.666992188 82.3330078125 242.333007812 72 269 72 c 0
 307 72 326 91 326 129 c 2
 327 422 l 1
450 442 m 1
 511.333007812 475.333007812 569.333007812 510.333984375 624 547.000976562 c 1
 664 518.333984375 689 490.000976562 699 462.000976562 c 0
 706.333007812 442.000976562 710 403.333984375 710 346.000976562 c 2
 709 150.000976562 l 2
 709 90.0009765625 705 43.66796875 697 11.0009765625 c 0
 686.333007812 -32.9990234375 664.333007812 -73.33203125 631 -109.999023438 c 0
 579 -167.999023438 513 -203.666015625 433 -216.999023438 c 1
 433 -195.999023438 l 1
 533 -148.666015625 583 -51.666015625 583 95.0009765625 c 2
 583 327.000976562 l 2
 583 369.000976562 579.333007812 397.333984375 572 412.000976562 c 0
 560 433.333984375 545 444.000976562 527 444.000976562 c 0
 517.666992188 444.000976562 506.666992188 440.333984375 494 433.000976562 c 2
 451 407.000976562 l 1
 451 89.0009765625 l 1
 461 81.66796875 472 75.66796875 484 71.0009765625 c 1
 518 95.0009765625 l 1
 533 75.0009765625 l 1
 487.666992188 40.333984375 452.333007812 11.6669921875 427 -11 c 2
 417 -21 l 1
 344.333007812 22.3330078125 295.666992188 44 271 44 c 0
 243.666992188 44 212.666992188 22.3330078125 178 -21 c 1
 134.666992188 -5.6669921875 103.333007812 14.3330078125 84 39 c 0
 64.6669921875 65 55 100.666992188 55 146 c 2
 56 339 l 2
 56 387 64 423 80 447 c 0
 92.6669921875 466.333007812 133.666992188 490.666992188 203 520 c 0
 219 526 237.666992188 535 259 547 c 1
 326 451 l 1
 327 584 l 2
 327.666992188 619.333007812 313.333007812 659.666992188 284 705 c 1
 305 717 l 1
 327 687 344.333007812 654.333007812 357 619 c 1
 382.333007812 657.666992188 408 686 434 704 c 0
 464 724 500 734 542 734 c 0
 549.333007812 734 560 733.666992188 574 733 c 1
 574 711 l 1
 538.666992188 704.333007812 513 694 497 680 c 0
 466.333007812 652 451 614 451 566 c 2
 450 442 l 1
EndSplineSet
Ligature2: "'liga' Standard-Ligaturen in Lateinisch Nachschlagetabelle 5 Subtabelle" c h
EndChar

StartChar: c_k
Encoding: 65539 -1 153
Width: 573
GlyphClass: 3
Flags: MW
HStem: -20 20G 48 27<243 297.667> 436 62<448 466> 527 20G<243 243> 579 95<551 559 551 559> 716 20G<293 293> 726 23<555 555>
VStem: 51 127<135.667 193> 323 125<180 436 124 443 124 443> 466 23<498 533>
LayerCount: 2
Fore
SplineSet
179 464 m 1xf9c0
 177.666992188 440.666992188 177 426 177 420 c 2
 178 344 l 1
 178 193 l 2
 178 162.333007812 183.333007812 136.333007812 194 115 c 0
 208 88.3330078125 229 75 257 75 c 0
 280.333007812 75 298 87.3330078125 310 112 c 0
 318.666992188 130.666992188 323 153.333007812 323 180 c 2
 323 443 l 1
 252 390 l 1
 179 464 l 1xf9c0
448 498 m 1
 466 498 l 1
 466 568 479 618.333007812 505 649 c 0
 519 665.666992188 534.333007812 674 551 674 c 2
 559 674 l 1
 559 579 l 1
 533 579 514.666992188 571.666992188 504 557 c 0
 495.333007812 545.666992188 490.333007812 526 489 498 c 1
 555 498 l 1
 555 435 l 1
 448 436 l 1
 448 124 l 1
 468 112 487.333007812 102 506 94 c 1
 539 121 l 1
 557 104 l 1
 518.333007812 64.6669921875 481 23 445 -21 c 1
 401.666992188 5 376.333007812 20 369 24 c 0
 337 40 309.333007812 48 286 48 c 0
 253.333007812 48 214.666992188 25.3330078125 170 -20 c 1
 126 -3.3330078125 95 19 77 47 c 0
 59.6669921875 73.6669921875 51 111.333007812 51 160 c 2
 52 354 l 2
 52 395.333007812 61.6669921875 426.333007812 81 447 c 0
 93 460.333007812 131.666992188 485 197 521 c 0
 198.333007812 521.666992188 213.666992188 530.333007812 243 547 c 1
 321 469 l 1
 320 563 l 2
 320 616.333007812 303.666992188 669.333007812 271 722 c 1
 293 736 l 1
 309 712.666992188 327 676 347 626 c 1
 362.333007812 663.333007812 384.666992188 693.333007812 414 716 c 0xfdc0
 445.333007812 740 480.666992188 752 520 752 c 0
 527.333007812 752 539 751 555 749 c 1
 555 726 l 1xfbc0
 528.333007812 724 508.666992188 718.333007812 496 709 c 0
 477.333007812 696.333007812 464.666992188 679.666992188 458 659 c 0
 450 636.333007812 446.333007812 604.666992188 447 564 c 2
 448 498 l 1
EndSplineSet
Ligature2: "'liga' Standard-Ligaturen in Lateinisch Nachschlagetabelle 5 Subtabelle" c k
EndChar

StartChar: longs_c_h
Encoding: 65540 -1 154
Width: 1020
GlyphClass: 3
Flags: MW
HStem: -219 21G -24 21G 42 28 522 20G 618 94<187.333 224> 649 90<104.333 112.333> 712 20G
VStem: 59 28<618.333 682.333> 62 140<264.667 415.333> 232 21<726 734 695.333 734> 320 125<144 146.001 146.001 337 337 353> 591 124<405.002 405.002 405.002 420.001 405.002 420.001 405.002 449> 848 126<104.334 149.001 149.001 325.002 325.002 339.668>
LayerCount: 2
Fore
SplineSet
63 434 m 1xf4f8
 24 433 l 1
 24 452 l 1
 36.6669921875 462.666992188 45 470.666992188 49 476 c 0
 61 492.666992188 67 517.666992188 67 551 c 0
 67 557.666992188 66.3330078125 568 65 582 c 2
 60 636 l 2
 59.3330078125 643.333007812 59 649.333007812 59 654 c 0
 59 710.666992188 81.6669921875 739 127 739 c 0xf578
 147.666992188 739 171.333007812 732.333007812 198 719 c 0
 207.333007812 714.333007812 214.666992188 712 220 712 c 0
 228 712 232 716.666992188 232 726 c 2
 232 734 l 1
 253 734 l 1
 253 656.666992188 233.333007812 618 194 618 c 0xf978
 180.666992188 618 163.666992188 624.333007812 143 637 c 0
 127 645 115.666992188 649 109 649 c 0
 94.3330078125 649 87 640.666992188 87 624 c 0xf578
 87 612.666992188 89.6669921875 602.333007812 95 593 c 0
 104.333007812 571 122.333007812 549 149 527 c 0
 172.333007812 508.333007812 187.333007812 489.333007812 194 470 c 0
 199.333007812 455.333007812 202 431.666992188 202 399 c 0
 202 323.666992188 197.666992188 240.666992188 189 150 c 0
 180.333007812 62.6669921875 164.666992188 -56 142 -206 c 1
 112 -206 l 1
 78.6669921875 10 62 191.333007812 62 338 c 0
 62 374.666992188 62.3330078125 406.666992188 63 434 c 1xf4f8
714 440 m 1
 776.666992188 474 834 508.000976562 886 542.000976562 c 1
 928.666992188 516.66796875 955 488.66796875 965 458.000976562 c 0
 971 440.000976562 974 401.66796875 974 343.000976562 c 2
 974 149.000976562 l 2
 974 59.66796875 962.666992188 -6.6650390625 940 -49.998046875 c 0
 921.333007812 -85.998046875 894.333007812 -118.665039062 859 -147.998046875 c 0
 832.333007812 -170.665039062 808.5 -186.498046875 787.5 -195.498046875 c 0
 766.5 -204.498046875 736.666992188 -212.331054688 698 -218.998046875 c 1
 697 -197.998046875 l 1
 738.333007812 -177.998046875 770.666992188 -151.331054688 794 -117.998046875 c 0
 830 -65.998046875 848 4.3349609375 848 93.001953125 c 2
 848 325.001953125 l 2
 848 354.334960938 846.666992188 376.001953125 844 390.001953125 c 0
 841.333007812 403.334960938 834.833007812 415.334960938 824.5 426.001953125 c 0
 814.166992188 436.668945312 803.333007812 442.001953125 792 442.001953125 c 0
 782.666992188 442.001953125 771.666992188 438.334960938 759 431.001953125 c 2
 715 405.001953125 l 1
 716 87.001953125 l 1
 725.333007812 79.6689453125 736.333007812 73.6689453125 749 69.001953125 c 1
 782 93.001953125 l 1
 798 73.001953125 l 1
 754.666992188 40.3349609375 719.333007812 11.66796875 692 -12.9990234375 c 2
 681 -22.9990234375 l 1
 612 18.0009765625 l 2
 580.666992188 34.0009765625 555.333007812 42.0009765625 536 42.0009765625 c 0
 522.666992188 42.0009765625 509.333007812 37.66796875 496 29.0009765625 c 0
 479.333007812 18.333984375 461.666992188 0.6669921875 443 -24 c 1
 413 -13.3330078125 390.666992188 -2.3330078125 376 9 c 0
 338.666992188 36.3330078125 320 81.3330078125 320 144 c 2
 320 337 l 2
 320 369 324 396.333007812 332 419 c 0
 339.333007812 441 350.166992188 457 364.5 467 c 0
 378.833007812 477 413.333007812 493.666992188 468 517 c 0
 475.333007812 520.333007812 494 529.666992188 524 545 c 1
 591 449 l 1
 592 582 l 2
 592 617.333007812 577.666992188 657.666992188 549 703 c 1
 569 715 l 1
 591.666992188 684.333007812 609 651.666992188 621 617 c 1
 637.666992188 641 650.666992188 658.333007812 660 669 c 0
 698 711 747 732 807 732 c 0xf278
 819 732 829.333007812 731.666992188 838 731 c 1
 838 709 l 1
 808 703 786.333007812 695.333007812 773 686 c 0
 735 659.333007812 715.666992188 618.666992188 715 564 c 2
 714 440 l 1
591 420.000976562 m 1
 524 367.000976562 l 1
 450 464.000976562 l 1
 445 438.000976562 l 1
 445 146.000976562 l 2
 445 126.66796875 455 109.000976562 475 93.0009765625 c 0
 493.666992188 77.66796875 513 70.0009765625 533 70.0009765625 c 0
 571.666992188 70.0009765625 591 89.0009765625 591 127.000976562 c 2
 591 420.000976562 l 1
EndSplineSet
Ligature2: "'liga' Standard-Ligaturen in Lateinisch Nachschlagetabelle 5 Subtabelle" longs c h
EndChar

StartChar: longs_i
Encoding: 65541 -1 155
Width: 509
GlyphClass: 3
Flags: MW
HStem: -19 21G 528 20G 618 94<182.001 218.334> 649 90<98.3345 106.667> 736 20G<357 409>
VStem: 53 28 56 140 227 20 305 156<701 722.667 698.667 724> 314 125
LayerCount: 2
Fore
SplineSet
383 601 m 1xc980
 371.666992188 614.333007812 363.666992188 623.333007812 359 628 c 2
 324 664 l 2
 311.333007812 679.333007812 305 694 305 708 c 0
 305 740 331 756 383 756 c 0
 435 756 461 739.333007812 461 706 c 0
 461 691.333007812 456.666992188 679.333007812 448 670 c 2
 411 636 l 2
 405 630 395.666992188 618.333007812 383 601 c 1xc980
57 434 m 1
 18.0009765625 434 l 1
 18.0009765625 452 l 1
 35.333984375 465.333007812 47.0009765625 479.666992188 53.0009765625 495 c 0
 58.333984375 507.666992188 61.0009765625 526 61.0009765625 550 c 0
 61.0009765625 562 60.66796875 573 60.0009765625 583 c 2
 54.0009765625 636 l 2
 53.333984375 642.666992188 53.0009765625 649.333007812 53.0009765625 656 c 0
 53.0009765625 711.333007812 75.66796875 739 121.000976562 739 c 0xd5
 141.66796875 739 165.66796875 732.333007812 193.000976562 719 c 0
 201.66796875 714.333007812 208.66796875 712 214.000976562 712 c 0
 222.66796875 712 227.000976562 716.666992188 227.000976562 726 c 0
 227.000976562 728 226.66796875 730.666992188 226.000976562 734 c 1
 247.000976562 733 l 1
 247.000976562 656.333007812 227.333984375 618 188.000976562 618 c 0xe5
 176.000976562 618 159.000976562 624.333007812 137.000976562 637 c 0
 123.000976562 645 111.333984375 649 102.000976562 649 c 0
 88.0009765625 649 81.0009765625 641 81.0009765625 625 c 0xd5
 81.0009765625 593.666992188 101.66796875 561 143.000976562 527 c 0
 165.66796875 508.333007812 180.66796875 490 188.000976562 472 c 0
 193.333984375 456.666992188 196.000976562 433 196.000976562 401 c 0
 196.000976562 255.666992188 176.333984375 53 137.000976562 -207 c 1
 106.000976562 -206 l 1
 71.333984375 16.6669921875 54.6669921875 198 56 338 c 2xd3
 57 434 l 1
403.000976562 -19 m 1
 365.66796875 -1.6669921875 341.500976562 15.8330078125 330.500976562 33.5 c 0
 319.500976562 51.1669921875 314.000976562 81 314.000976562 123 c 2
 314.000976562 386 l 2
 314.000976562 416 306.333984375 431 291.000976562 431 c 0
 287.000976562 431 281.333984375 429 274.000976562 425 c 1
 264.000976562 447 l 1
 312.66796875 479 352.66796875 512.666992188 384.000976562 548 c 1
 420.66796875 505.333007812 453.66796875 476 483.000976562 460 c 1
 483.000976562 442 l 1
 453.66796875 438.666992188 439.000976562 423.666992188 439.000976562 397 c 2
 439.000976562 111 l 2xc140
 439.000976562 104.333007812 442.000976562 98 448.000976562 92 c 0
 454.000976562 86 460.333984375 83 467.000976562 83 c 0
 472.333984375 83 479.333984375 86.6669921875 488.000976562 94 c 1
 501.000976562 76 l 1
 474.000976562 52 l 2
 448.66796875 28.6669921875 425.000976562 5 403.000976562 -19 c 1
EndSplineSet
Ligature2: "'liga' Standard-Ligaturen in Lateinisch Nachschlagetabelle 5 Subtabelle" longs i
EndChar

StartChar: longs_longs
Encoding: 65542 -1 156
Width: 509
GlyphClass: 3
Flags: MW
HStem: 618 94<189 223.5> 649 91<108 113 350 358.5>
VStem: 59 28<609 683.5> 62 140<339 339> 232 21<721.5 727> 305 28<609 683.5> 308 140<339 339> 478 21<726 734 695.5 734>
LayerCount: 2
Fore
SplineSet
63 434 m 1x59
 24 434 l 1
 24 453 l 1
 42 466 53 480 59 495 c 0
 64 508 67 527 67 551 c 0
 67 562 66 573 65 583 c 2
 60 636 l 2
 59 643 59 649 59 655 c 0
 59 712 82 740 126 740 c 0x69
 148 740 172 733 198 719 c 0
 207 714 214 712 219 712 c 0
 228 712 232 717 232 726 c 0
 232 728 232 731 231 734 c 1
 253 734 l 1
 253 657 234 618 196 618 c 0xa9
 182 618 164 624 143 637 c 0
 129 645 118 649 108 649 c 0
 94 650 87 641 87 624 c 0x69
 87 594 108 562 149 527 c 0
 172 508 187 489 194 469 c 0
 199 454 202 429 202 395 c 0
 202 254 182 54 143 -206 c 1
 112 -206 l 1
 77 17 61 199 62 339 c 2
 63 434 l 1x59
309 434 m 1
 270 434 l 1
 270 453 l 1
 287 466 299 480 305 495 c 0
 310 508 313 527 313 551 c 0
 313 559 312 570 311 583 c 2
 306 636 l 2
 305 643 305 649 305 655 c 0
 305 712 327 740 373 740 c 0x4d
 394 740 418 733 444 719 c 0
 453 714 460 712 465 712 c 0
 474 712 478 717 478 726 c 2
 478 734 l 1
 499 734 l 1
 499 657 479 618 441 618 c 0x8d
 428 618 410 624 389 637 c 0
 374 645 363 649 354 649 c 0
 340 649 333 641 333 624 c 0x4d
 333 594 354 562 395 527 c 0
 418 508 433 488 440 469 c 0
 445 454 448 429 448 395 c 0
 448 254 428 54 388 -206 c 1
 357 -206 l 1
 324 12 307 194 308 339 c 2x4b
 309 434 l 1
EndSplineSet
Ligature2: "'liga' Standard-Ligaturen in Lateinisch Nachschlagetabelle 6 Subtabelle" longs longs
EndChar

StartChar: longs_t
Encoding: 65543 -1 157
Width: 554
GlyphClass: 3
Flags: MW
HStem: -21 21G<412 412> 430 48<432 531 432 432> 618 94<189 223.5> 649 91<108 113>
VStem: 59 28<609 683.5> 62 140<339 339> 232 21<721.5 727> 306 126<132 429 429 429> 408 26<678 678>
LayerCount: 2
Fore
SplineSet
434 678 m 1xc280
 431 478 l 1
 531 478 l 1
 531 430 l 1
 432 430 l 1
 432 114 l 1
 453 100 472 87 490 72 c 1
 515 86 l 1
 529 69 l 1
 412 -21 l 1
 365 15 317 41 266 57 c 1
 267 76 l 1
 283 80 294 86 299 94 c 0
 304 102 306 114 306 132 c 2
 306 429 l 1xc3
 258 430 l 1
 258 451 l 1
 310 482 348 520 375 567 c 0
 392 598 403 635 408 678 c 1
 434 678 l 1xc280
63 434 m 1
 24 434 l 1
 24 453 l 1
 42 466 53 480 59 495 c 0
 64 508 67 527 67 551 c 0
 67 562 66 573 65 583 c 2
 60 636 l 2
 59 643 59 649 59 655 c 0
 59 712 82 740 126 740 c 0xda
 148 740 172 733 198 719 c 0
 207 714 214 712 219 712 c 0
 228 712 232 717 232 726 c 0
 232 728 232 731 231 734 c 1
 253 734 l 1
 253 657 234 618 196 618 c 0xea
 182 618 164 624 143 637 c 0
 129 645 118 649 108 649 c 0
 94 650 87 641 87 624 c 0xda
 87 594 108 562 149 527 c 0
 172 508 187 489 194 469 c 0
 199 454 202 429 202 395 c 0
 202 254 182 54 143 -206 c 1
 112 -206 l 1
 77 17 61 199 62 339 c 2xd6
 63 434 l 1
EndSplineSet
Ligature2: "'liga' Standard-Ligaturen in Lateinisch Nachschlagetabelle 5 Subtabelle" longs t
EndChar

